# Blender v2.93.3 OBJ File: 'untitled.blend'
# www.blender.org
o BezierCurve.010_BezierCurve.002
v -10.038467 0.436684 14.251235
v -10.044342 0.756359 14.570885
v -10.052368 0.873368 15.007534
v -10.060396 0.756359 15.444183
v -10.066271 0.436684 15.763833
v -10.068419 0.000001 15.880834
v -10.066271 -0.436683 15.763834
v -10.060396 -0.756358 15.444184
v -10.052368 -0.873368 15.007535
v -10.044342 -0.756359 14.570886
v -10.038467 -0.436684 14.251236
v -10.036316 -0.000001 14.134235
v -7.194613 0.436684 14.269382
v -7.199244 0.756358 14.589040
v -7.205568 0.873368 15.025701
v -7.211893 0.756359 15.462360
v -7.216523 0.436684 15.782018
v -7.218218 0.000001 15.899021
v -7.216523 -0.436683 15.782019
v -7.211893 -0.756358 15.462361
v -7.205568 -0.873368 15.025702
v -7.199243 -0.756359 14.589041
v -7.194613 -0.436684 14.269383
v -7.192919 -0.000001 14.152380
v -4.576273 0.436684 14.283268
v -4.579602 0.756358 14.602932
v -4.584149 0.873368 15.039601
v -4.588697 0.756359 15.476272
v -4.592027 0.436684 15.795936
v -4.593245 0.000001 15.912941
v -4.592027 -0.436683 15.795937
v -4.588697 -0.756358 15.476273
v -4.584149 -0.873368 15.039602
v -4.579601 -0.756359 14.602933
v -4.576273 -0.436684 14.283268
v -4.575055 -0.000001 14.166263
v -2.117606 0.436684 14.293591
v -2.119654 0.756358 14.613260
v -2.122452 0.873368 15.049936
v -2.125249 0.756359 15.486614
v -2.127298 0.436684 15.806284
v -2.128048 0.000001 15.923291
v -2.127298 -0.436683 15.806284
v -2.125249 -0.756358 15.486615
v -2.122452 -0.873368 15.049938
v -2.119654 -0.756359 14.613260
v -2.117606 -0.436684 14.293591
v -2.116856 -0.000001 14.176583
v 0.247307 0.436684 14.301049
v 0.246411 0.756358 14.620723
v 0.245187 0.873368 15.057405
v 0.243964 0.756359 15.494086
v 0.243067 0.436684 15.813761
v 0.242740 0.000001 15.930769
v 0.243067 -0.436683 15.813761
v 0.243963 -0.756358 15.494088
v 0.245187 -0.873368 15.057405
v 0.246411 -0.756359 14.620724
v 0.247307 -0.436684 14.301050
v 0.247635 -0.000001 14.184041
v 2.584373 0.436684 14.306344
v 2.584396 0.756359 14.626019
v 2.584428 0.873368 15.062704
v 2.584461 0.756359 15.499389
v 2.584484 0.436684 15.819065
v 2.584493 0.000001 15.936074
v 2.584484 -0.436683 15.819065
v 2.584461 -0.756358 15.499390
v 2.584428 -0.873368 15.062705
v 2.584396 -0.756359 14.626020
v 2.584373 -0.436684 14.306344
v 2.584364 -0.000001 14.189334
v 4.959424 0.436684 14.310171
v 4.960062 0.756358 14.629848
v 4.960935 0.873368 15.066534
v 4.961807 0.756359 15.503220
v 4.962446 0.436684 15.822897
v 4.962680 0.000001 15.939907
v 4.962446 -0.436683 15.822898
v 4.961807 -0.756358 15.503222
v 4.960935 -0.873368 15.066535
v 4.960062 -0.756359 14.629848
v 4.959424 -0.436684 14.310171
v 4.959189 -0.000001 14.193161
v 7.438173 0.436684 14.313229
v 7.439100 0.756358 14.632906
v 7.440367 0.873368 15.069592
v 7.441633 0.756359 15.506279
v 7.442560 0.436684 15.825956
v 7.442899 0.000001 15.942966
v 7.442560 -0.436683 15.825957
v 7.441633 -0.756358 15.506281
v 7.440367 -0.873368 15.069593
v 7.439100 -0.756359 14.632907
v 7.438173 -0.436684 14.313230
v 7.437834 -0.000001 14.196219
v 10.086222 0.436684 14.316216
v 10.087137 0.756358 14.635893
v 10.088387 0.873368 15.072579
v 10.089637 0.756359 15.509266
v 10.090551 0.436684 15.828943
v 10.090887 0.000001 15.945953
v 10.090552 -0.436683 15.828944
v 10.089637 -0.756358 15.509267
v 10.088387 -0.873368 15.072580
v 10.087137 -0.756359 14.635893
v 10.086222 -0.436684 14.316216
v 10.085887 -0.000001 14.199205
v 12.969090 0.436684 14.319830
v 12.969751 0.756359 14.639506
v 12.970656 0.873368 15.076193
v 12.971561 0.756359 15.512879
v 12.972223 0.436684 15.832556
v 12.972466 0.000001 15.949566
v 12.972223 -0.436683 15.832557
v 12.971561 -0.756358 15.512880
v 12.970656 -0.873368 15.076194
v 12.969751 -0.756359 14.639507
v 12.969090 -0.436684 14.319830
v 12.968847 -0.000001 14.202820
v 16.152271 0.436684 14.324770
v 16.152510 0.756358 14.644446
v 16.152836 0.873368 15.081132
v 16.153164 0.756359 15.517817
v 16.153404 0.436684 15.837493
v 16.153492 0.000001 15.954503
v 16.153404 -0.436683 15.837494
v 16.153164 -0.756358 15.517818
v 16.152836 -0.873368 15.081133
v 16.152510 -0.756359 14.644447
v 16.152271 -0.436684 14.324771
v 16.152184 -0.000001 14.207761
v 19.701269 0.436684 14.331736
v 19.700981 0.756358 14.651411
v 19.700592 0.873368 15.088095
v 19.700199 0.756359 15.524779
v 19.699913 0.436684 15.844454
v 19.699810 0.000001 15.961464
v 19.699913 -0.436683 15.844455
v 19.700199 -0.756358 15.524780
v 19.700592 -0.873368 15.088096
v 19.700981 -0.756359 14.651412
v 19.701269 -0.436684 14.331737
v 19.701374 -0.000001 14.214727
v 23.681602 0.436684 14.341426
v 23.680750 0.756358 14.661099
v 23.679581 0.873368 15.097781
v 23.678411 0.756359 15.534464
v 23.677557 0.436684 15.854137
v 23.677244 0.000001 15.971146
v 23.677557 -0.436683 15.854137
v 23.678411 -0.756358 15.534465
v 23.679581 -0.873368 15.097782
v 23.680750 -0.756359 14.661100
v 23.681602 -0.436684 14.341426
v 23.681915 -0.000001 14.224418
vt 0.000000 1.000000
vt 0.083333 1.000000
vt 0.083333 0.916667
vt 0.000000 0.916667
vt 0.000000 0.083333
vt 0.083333 0.083333
vt 0.083333 0.000000
vt 0.000000 0.000000
vt 0.000000 0.166667
vt 0.083333 0.166667
vt 0.000000 0.250000
vt 0.083333 0.250000
vt 0.000000 0.333333
vt 0.083333 0.333333
vt 0.000000 0.416667
vt 0.083333 0.416667
vt 0.000000 0.500000
vt 0.083333 0.500000
vt 0.000000 0.583333
vt 0.083333 0.583333
vt 0.000000 0.666667
vt 0.083333 0.666667
vt 0.000000 0.750000
vt 0.083333 0.750000
vt 0.000000 0.833333
vt 0.083333 0.833333
vt 0.166667 1.000000
vt 0.166667 0.916667
vt 0.166667 0.083333
vt 0.166667 0.000000
vt 0.166667 0.166667
vt 0.166667 0.250000
vt 0.166667 0.333333
vt 0.166667 0.416667
vt 0.166667 0.500000
vt 0.166667 0.583333
vt 0.166667 0.666667
vt 0.166667 0.750000
vt 0.166667 0.833333
vt 0.250000 1.000000
vt 0.250000 0.916667
vt 0.250000 0.083333
vt 0.250000 0.000000
vt 0.250000 0.166667
vt 0.250000 0.250000
vt 0.250000 0.333333
vt 0.250000 0.416667
vt 0.250000 0.500000
vt 0.250000 0.583333
vt 0.250000 0.666667
vt 0.250000 0.750000
vt 0.250000 0.833333
vt 0.333333 1.000000
vt 0.333333 0.916667
vt 0.333333 0.083333
vt 0.333333 0.000000
vt 0.333333 0.166667
vt 0.333333 0.250000
vt 0.333333 0.333333
vt 0.333333 0.416667
vt 0.333333 0.500000
vt 0.333333 0.583333
vt 0.333333 0.666667
vt 0.333333 0.750000
vt 0.333333 0.833333
vt 0.416667 1.000000
vt 0.416667 0.916667
vt 0.416667 0.083333
vt 0.416667 0.000000
vt 0.416667 0.166667
vt 0.416667 0.250000
vt 0.416667 0.333333
vt 0.416667 0.416667
vt 0.416667 0.500000
vt 0.416667 0.583333
vt 0.416667 0.666667
vt 0.416667 0.750000
vt 0.416667 0.833333
vt 0.500000 1.000000
vt 0.500000 0.916667
vt 0.500000 0.083333
vt 0.500000 0.000000
vt 0.500000 0.166667
vt 0.500000 0.250000
vt 0.500000 0.333333
vt 0.500000 0.416667
vt 0.500000 0.500000
vt 0.500000 0.583333
vt 0.500000 0.666667
vt 0.500000 0.750000
vt 0.500000 0.833333
vt 0.583333 1.000000
vt 0.583333 0.916667
vt 0.583333 0.083333
vt 0.583333 0.000000
vt 0.583333 0.166667
vt 0.583333 0.250000
vt 0.583333 0.333333
vt 0.583333 0.416667
vt 0.583333 0.500000
vt 0.583333 0.583333
vt 0.583333 0.666667
vt 0.583333 0.750000
vt 0.583333 0.833333
vt 0.666667 1.000000
vt 0.666667 0.916667
vt 0.666667 0.083333
vt 0.666667 0.000000
vt 0.666667 0.166667
vt 0.666667 0.250000
vt 0.666667 0.333333
vt 0.666667 0.416667
vt 0.666667 0.500000
vt 0.666667 0.583333
vt 0.666667 0.666667
vt 0.666667 0.750000
vt 0.666667 0.833333
vt 0.750000 1.000000
vt 0.750000 0.916667
vt 0.750000 0.083333
vt 0.750000 0.000000
vt 0.750000 0.166667
vt 0.750000 0.250000
vt 0.750000 0.333333
vt 0.750000 0.416667
vt 0.750000 0.500000
vt 0.750000 0.583333
vt 0.750000 0.666667
vt 0.750000 0.750000
vt 0.750000 0.833333
vt 0.833333 1.000000
vt 0.833333 0.916667
vt 0.833333 0.083333
vt 0.833333 0.000000
vt 0.833333 0.166667
vt 0.833333 0.250000
vt 0.833333 0.333333
vt 0.833333 0.416667
vt 0.833333 0.500000
vt 0.833333 0.583333
vt 0.833333 0.666667
vt 0.833333 0.750000
vt 0.833333 0.833333
vt 0.916667 1.000000
vt 0.916667 0.916667
vt 0.916667 0.083333
vt 0.916667 0.000000
vt 0.916667 0.166667
vt 0.916667 0.250000
vt 0.916667 0.333333
vt 0.916667 0.416667
vt 0.916667 0.500000
vt 0.916667 0.583333
vt 0.916667 0.666667
vt 0.916667 0.750000
vt 0.916667 0.833333
vt 1.000000 1.000000
vt 1.000000 0.916667
vt 1.000000 0.083333
vt 1.000000 0.000000
vt 1.000000 0.166667
vt 1.000000 0.250000
vt 1.000000 0.333333
vt 1.000000 0.416667
vt 1.000000 0.500000
vt 1.000000 0.583333
vt 1.000000 0.666667
vt 1.000000 0.750000
vt 1.000000 0.833333
vn 0.0055 0.5008 -0.8655
vn 0.0050 0.5000 -0.8660
vn 0.0058 0.0000 -1.0000
vn 0.0064 0.0000 -1.0000
vn 0.0032 0.8669 -0.4985
vn 0.0029 0.8661 -0.4999
vn 0.0000 1.0000 0.0020
vn 0.0000 1.0000 0.0001
vn -0.0032 0.8652 0.5014
vn -0.0029 0.8660 0.5000
vn -0.0055 0.4991 0.8665
vn -0.0050 0.5000 0.8660
vn -0.0064 0.0000 1.0000
vn -0.0058 0.0000 1.0000
vn -0.0055 -0.4991 0.8665
vn -0.0050 -0.5000 0.8660
vn -0.0032 -0.8652 0.5014
vn -0.0029 -0.8660 0.5000
vn 0.0000 -1.0000 0.0020
vn 0.0000 -1.0000 0.0001
vn 0.0032 -0.8669 -0.4985
vn 0.0029 -0.8661 -0.4999
vn 0.0055 -0.5008 -0.8655
vn 0.0050 -0.5000 -0.8660
vn 0.0041 0.5000 -0.8660
vn 0.0047 0.0000 -1.0000
vn 0.0023 0.8661 -0.4999
vn -0.0023 0.8660 0.5000
vn -0.0041 0.5000 0.8660
vn -0.0047 0.0000 1.0000
vn -0.0041 -0.5000 0.8660
vn -0.0023 -0.8660 0.5000
vn 0.0023 -0.8661 -0.4999
vn 0.0041 -0.5000 -0.8660
vn 0.0032 0.5000 -0.8660
vn 0.0037 0.0000 -1.0000
vn 0.0018 0.8661 -0.4999
vn -0.0018 0.8660 0.5000
vn -0.0032 0.5000 0.8660
vn -0.0037 0.0000 1.0000
vn -0.0032 -0.5000 0.8660
vn -0.0018 -0.8660 0.5000
vn 0.0018 -0.8661 -0.4999
vn 0.0032 -0.5000 -0.8660
vn 0.0023 0.5000 -0.8660
vn 0.0027 0.0000 -1.0000
vn 0.0013 0.8661 -0.4999
vn -0.0013 0.8660 0.5000
vn -0.0023 0.5000 0.8660
vn -0.0027 0.0000 1.0000
vn -0.0023 -0.5000 0.8660
vn -0.0013 -0.8660 0.5000
vn 0.0013 -0.8661 -0.4999
vn 0.0023 -0.5000 -0.8660
vn 0.0017 0.5000 -0.8660
vn 0.0019 0.0000 -1.0000
vn 0.0009 0.8660 -0.5000
vn 0.0000 1.0000 0.0000
vn -0.0009 0.8660 0.5000
vn -0.0017 0.5000 0.8660
vn -0.0019 0.0000 1.0000
vn -0.0017 -0.5000 0.8660
vn -0.0009 -0.8660 0.5000
vn 0.0000 -1.0000 0.0000
vn 0.0009 -0.8660 -0.5000
vn 0.0017 -0.5000 -0.8660
vn 0.0012 0.5000 -0.8660
vn 0.0014 0.0000 -1.0000
vn 0.0007 0.8660 -0.5000
vn -0.0007 0.8660 0.5000
vn -0.0012 0.5000 0.8660
vn -0.0014 0.0000 1.0000
vn -0.0012 -0.5000 0.8660
vn -0.0007 -0.8660 0.5000
vn 0.0007 -0.8660 -0.5000
vn 0.0012 -0.5000 -0.8660
vn 0.0010 0.5000 -0.8660
vn 0.0012 0.0000 -1.0000
vn 0.0006 0.8660 -0.5000
vn -0.0006 0.8660 0.5000
vn -0.0010 0.5000 0.8660
vn -0.0012 0.0000 1.0000
vn -0.0010 -0.5000 0.8660
vn -0.0006 -0.8660 0.5000
vn 0.0006 -0.8660 -0.5000
vn 0.0010 -0.5000 -0.8660
vn 0.0015 0.5000 -0.8660
vn 0.0017 0.0000 -1.0000
vn -0.0015 0.5000 0.8660
vn -0.0017 0.0000 1.0000
vn -0.0015 -0.5000 0.8660
vn 0.0015 -0.5000 -0.8660
vn 0.0019 0.5000 -0.8660
vn 0.0022 0.0000 -1.0000
vn 0.0011 0.8660 -0.5000
vn -0.0011 0.8660 0.5000
vn -0.0019 0.5000 0.8660
vn -0.0022 0.0000 1.0000
vn -0.0019 -0.5000 0.8660
vn -0.0011 -0.8660 0.5000
vn 0.0011 -0.8660 -0.5000
vn 0.0019 -0.5000 -0.8660
vn 0.0021 0.5000 -0.8660
vn 0.0024 0.0000 -1.0000
vn 0.0012 0.8660 -0.5000
vn -0.0012 0.8660 0.5000
vn -0.0021 0.5000 0.8660
vn -0.0024 0.0000 1.0000
vn -0.0021 -0.5000 0.8660
vn -0.0012 -0.8660 0.5000
vn 0.0012 -0.8660 -0.5000
vn 0.0021 -0.5000 -0.8660
s 1
f 1/1/1 13/2/2 24/3/3 12/4/4
f 2/5/5 14/6/6 13/7/2 1/8/1
f 3/9/7 15/10/8 14/6/6 2/5/5
f 4/11/9 16/12/10 15/10/8 3/9/7
f 5/13/11 17/14/12 16/12/10 4/11/9
f 6/15/13 18/16/14 17/14/12 5/13/11
f 7/17/15 19/18/16 18/16/14 6/15/13
f 8/19/17 20/20/18 19/18/16 7/17/15
f 9/21/19 21/22/20 20/20/18 8/19/17
f 10/23/21 22/24/22 21/22/20 9/21/19
f 11/25/23 23/26/24 22/24/22 10/23/21
f 12/4/4 24/3/3 23/26/24 11/25/23
f 13/2/2 25/27/25 36/28/26 24/3/3
f 14/6/6 26/29/27 25/30/25 13/7/2
f 15/10/8 27/31/8 26/29/27 14/6/6
f 16/12/10 28/32/28 27/31/8 15/10/8
f 17/14/12 29/33/29 28/32/28 16/12/10
f 18/16/14 30/34/30 29/33/29 17/14/12
f 19/18/16 31/35/31 30/34/30 18/16/14
f 20/20/18 32/36/32 31/35/31 19/18/16
f 21/22/20 33/37/20 32/36/32 20/20/18
f 22/24/22 34/38/33 33/37/20 21/22/20
f 23/26/24 35/39/34 34/38/33 22/24/22
f 24/3/3 36/28/26 35/39/34 23/26/24
f 25/27/25 37/40/35 48/41/36 36/28/26
f 26/29/27 38/42/37 37/43/35 25/30/25
f 27/31/8 39/44/8 38/42/37 26/29/27
f 28/32/28 40/45/38 39/44/8 27/31/8
f 29/33/29 41/46/39 40/45/38 28/32/28
f 30/34/30 42/47/40 41/46/39 29/33/29
f 31/35/31 43/48/41 42/47/40 30/34/30
f 32/36/32 44/49/42 43/48/41 31/35/31
f 33/37/20 45/50/20 44/49/42 32/36/32
f 34/38/33 46/51/43 45/50/20 33/37/20
f 35/39/34 47/52/44 46/51/43 34/38/33
f 36/28/26 48/41/36 47/52/44 35/39/34
f 37/40/35 49/53/45 60/54/46 48/41/36
f 38/42/37 50/55/47 49/56/45 37/43/35
f 39/44/8 51/57/8 50/55/47 38/42/37
f 40/45/38 52/58/48 51/57/8 39/44/8
f 41/46/39 53/59/49 52/58/48 40/45/38
f 42/47/40 54/60/50 53/59/49 41/46/39
f 43/48/41 55/61/51 54/60/50 42/47/40
f 44/49/42 56/62/52 55/61/51 43/48/41
f 45/50/20 57/63/20 56/62/52 44/49/42
f 46/51/43 58/64/53 57/63/20 45/50/20
f 47/52/44 59/65/54 58/64/53 46/51/43
f 48/41/36 60/54/46 59/65/54 47/52/44
f 49/53/45 61/66/55 72/67/56 60/54/46
f 50/55/47 62/68/57 61/69/55 49/56/45
f 51/57/8 63/70/58 62/68/57 50/55/47
f 52/58/48 64/71/59 63/70/58 51/57/8
f 53/59/49 65/72/60 64/71/59 52/58/48
f 54/60/50 66/73/61 65/72/60 53/59/49
f 55/61/51 67/74/62 66/73/61 54/60/50
f 56/62/52 68/75/63 67/74/62 55/61/51
f 57/63/20 69/76/64 68/75/63 56/62/52
f 58/64/53 70/77/65 69/76/64 57/63/20
f 59/65/54 71/78/66 70/77/65 58/64/53
f 60/54/46 72/67/56 71/78/66 59/65/54
f 61/66/55 73/79/67 84/80/68 72/67/56
f 62/68/57 74/81/69 73/82/67 61/69/55
f 63/70/58 75/83/58 74/81/69 62/68/57
f 64/71/59 76/84/70 75/83/58 63/70/58
f 65/72/60 77/85/71 76/84/70 64/71/59
f 66/73/61 78/86/72 77/85/71 65/72/60
f 67/74/62 79/87/73 78/86/72 66/73/61
f 68/75/63 80/88/74 79/87/73 67/74/62
f 69/76/64 81/89/64 80/88/74 68/75/63
f 70/77/65 82/90/75 81/89/64 69/76/64
f 71/78/66 83/91/76 82/90/75 70/77/65
f 72/67/56 84/80/68 83/91/76 71/78/66
f 73/79/67 85/92/77 96/93/78 84/80/68
f 74/81/69 86/94/79 85/95/77 73/82/67
f 75/83/58 87/96/58 86/94/79 74/81/69
f 76/84/70 88/97/80 87/96/58 75/83/58
f 77/85/71 89/98/81 88/97/80 76/84/70
f 78/86/72 90/99/82 89/98/81 77/85/71
f 79/87/73 91/100/83 90/99/82 78/86/72
f 80/88/74 92/101/84 91/100/83 79/87/73
f 81/89/64 93/102/64 92/101/84 80/88/74
f 82/90/75 94/103/85 93/102/64 81/89/64
f 83/91/76 95/104/86 94/103/85 82/90/75
f 84/80/68 96/93/78 95/104/86 83/91/76
f 85/92/77 97/105/77 108/106/78 96/93/78
f 86/94/79 98/107/79 97/108/77 85/95/77
f 87/96/58 99/109/58 98/107/79 86/94/79
f 88/97/80 100/110/80 99/109/58 87/96/58
f 89/98/81 101/111/81 100/110/80 88/97/80
f 90/99/82 102/112/82 101/111/81 89/98/81
f 91/100/83 103/113/83 102/112/82 90/99/82
f 92/101/84 104/114/84 103/113/83 91/100/83
f 93/102/64 105/115/64 104/114/84 92/101/84
f 94/103/85 106/116/85 105/115/64 93/102/64
f 95/104/86 107/117/86 106/116/85 94/103/85
f 96/93/78 108/106/78 107/117/86 95/104/86
f 97/105/77 109/118/67 120/119/68 108/106/78
f 98/107/79 110/120/69 109/121/67 97/108/77
f 99/109/58 111/122/58 110/120/69 98/107/79
f 100/110/80 112/123/70 111/122/58 99/109/58
f 101/111/81 113/124/71 112/123/70 100/110/80
f 102/112/82 114/125/72 113/124/71 101/111/81
f 103/113/83 115/126/73 114/125/72 102/112/82
f 104/114/84 116/127/74 115/126/73 103/113/83
f 105/115/64 117/128/64 116/127/74 104/114/84
f 106/116/85 118/129/75 117/128/64 105/115/64
f 107/117/86 119/130/76 118/129/75 106/116/85
f 108/106/78 120/119/68 119/130/76 107/117/86
f 109/118/67 121/131/87 132/132/88 120/119/68
f 110/120/69 122/133/57 121/134/87 109/121/67
f 111/122/58 123/135/58 122/133/57 110/120/69
f 112/123/70 124/136/59 123/135/58 111/122/58
f 113/124/71 125/137/89 124/136/59 112/123/70
f 114/125/72 126/138/90 125/137/89 113/124/71
f 115/126/73 127/139/91 126/138/90 114/125/72
f 116/127/74 128/140/63 127/139/91 115/126/73
f 117/128/64 129/141/64 128/140/63 116/127/74
f 118/129/75 130/142/65 129/141/64 117/128/64
f 119/130/76 131/143/92 130/142/65 118/129/75
f 120/119/68 132/132/88 131/143/92 119/130/76
f 121/131/87 133/144/93 144/145/94 132/132/88
f 122/133/57 134/146/95 133/147/93 121/134/87
f 123/135/58 135/148/58 134/146/95 122/133/57
f 124/136/59 136/149/96 135/148/58 123/135/58
f 125/137/89 137/150/97 136/149/96 124/136/59
f 126/138/90 138/151/98 137/150/97 125/137/89
f 127/139/91 139/152/99 138/151/98 126/138/90
f 128/140/63 140/153/100 139/152/99 127/139/91
f 129/141/64 141/154/64 140/153/100 128/140/63
f 130/142/65 142/155/101 141/154/64 129/141/64
f 131/143/92 143/156/102 142/155/101 130/142/65
f 132/132/88 144/145/94 143/156/102 131/143/92
f 133/144/93 145/157/103 156/158/104 144/145/94
f 134/146/95 146/159/105 145/160/103 133/147/93
f 135/148/58 147/161/58 146/159/105 134/146/95
f 136/149/96 148/162/106 147/161/58 135/148/58
f 137/150/97 149/163/107 148/162/106 136/149/96
f 138/151/98 150/164/108 149/163/107 137/150/97
f 139/152/99 151/165/109 150/164/108 138/151/98
f 140/153/100 152/166/110 151/165/109 139/152/99
f 141/154/64 153/167/64 152/166/110 140/153/100
f 142/155/101 154/168/111 153/167/64 141/154/64
f 143/156/102 155/169/112 154/168/111 142/155/101
f 144/145/94 156/158/104 155/169/112 143/156/102
