# Blender v2.93.3 OBJ File: 'untitled.blend'
# www.blender.org
o BezierCurve
v -6.713458 3.733920 29.854790
v -6.516390 4.013365 30.052916
v -6.247190 4.115649 30.323559
v -5.977992 4.013365 30.594202
v -5.780924 3.733921 30.792328
v -5.708792 3.352193 30.864847
v -5.780923 2.970464 30.792328
v -5.977991 2.691020 30.594204
v -6.247190 2.588735 30.323559
v -6.516390 2.691019 30.052916
v -6.713458 2.970463 29.854790
v -6.785589 3.352191 29.782270
v -5.829865 3.462242 29.411604
v -5.646947 3.764496 29.632484
v -5.533420 3.924630 30.000006
v -5.519701 3.899736 30.415693
v -5.609468 3.696485 30.768162
v -5.778666 3.369337 30.962971
v -5.981958 3.005951 30.947918
v -6.164875 2.703697 30.727039
v -6.278402 2.543563 30.359516
v -6.292121 2.568456 29.943830
v -6.202355 2.771708 29.591360
v -6.033157 3.098856 29.396553
v -5.094497 2.916322 29.578369
v -4.918178 3.245570 29.807407
v -4.898244 3.484863 30.173864
v -5.040036 3.570083 30.579554
v -5.305562 3.478395 30.915768
v -5.623673 3.234366 31.092419
v -5.909132 2.903385 31.062176
v -6.085451 2.574137 30.833139
v -6.105385 2.334844 30.466681
v -5.963593 2.249624 30.060993
v -5.698068 2.341312 29.724777
v -5.379957 2.585340 29.548126
v -4.512218 2.332490 29.972786
v -4.333735 2.684329 30.208523
v -4.344096 2.966554 30.571096
v -4.540524 3.103544 30.963358
v -4.870388 3.058593 31.280197
v -5.245300 2.843745 31.436722
v -5.564803 2.516569 31.390987
v -5.743287 2.164730 31.155251
v -5.732926 1.882505 30.792677
v -5.536499 1.745514 30.400417
v -5.206635 1.790465 30.083576
v -4.831722 2.005313 29.927053
v -3.936496 1.690320 30.490099
v -3.753521 2.062946 30.733158
v -3.775819 2.371329 31.101683
v -3.997416 2.532839 31.496925
v -4.358934 2.504199 31.812983
v -4.763505 2.293083 31.965166
v -5.102726 1.956060 31.912699
v -5.285701 1.583435 31.669640
v -5.263402 1.275051 31.301115
v -5.041806 1.113541 30.905872
v -4.680287 1.142181 30.589815
v -4.275717 1.353297 30.437632
v -3.334410 1.006092 31.077999
v -3.146622 1.399231 31.328390
v -3.173756 1.725829 31.709332
v -3.408541 1.898377 32.118748
v -3.788069 1.870639 32.446934
v -4.210644 1.650048 32.605957
v -4.563037 1.295712 32.553207
v -4.750827 0.902574 32.302814
v -4.723693 0.575975 31.921875
v -4.488907 0.403427 31.512459
v -4.109380 0.431165 31.184271
v -3.686804 0.651755 31.025248
v -2.703849 0.318346 31.676954
v -2.511856 0.732518 31.934151
v -2.538939 1.071721 32.332596
v -2.777841 1.245067 32.765526
v -3.164550 1.206107 33.116936
v -3.595446 0.965281 33.292667
v -3.955072 0.587117 33.245632
v -4.147066 0.172945 32.988434
v -4.119983 -0.166259 32.589989
v -3.881080 -0.339604 32.157063
v -3.494372 -0.300644 31.805651
v -3.063475 -0.059818 31.629919
v -2.054961 -0.325183 32.222126
v -1.860398 0.111276 32.485096
v -1.881542 0.457292 32.906200
v -2.112729 0.620153 33.372608
v -2.492011 0.556219 33.759338
v -2.917761 0.282622 33.962772
v -3.275899 -0.127329 33.928398
v -3.470463 -0.563787 33.665428
v -3.449318 -0.909804 33.244324
v -3.218132 -1.072665 32.777920
v -2.838849 -1.008731 32.391190
v -2.413100 -0.735134 32.187752
v -1.412467 -0.870116 32.646416
v -1.218833 -0.409186 32.913677
v -1.223858 -0.063959 33.363316
v -1.426198 0.073062 33.874844
v -1.771635 -0.034837 34.311203
v -2.167608 -0.358744 34.555473
v -2.508019 -0.811871 34.542198
v -2.701653 -1.272800 34.274937
v -2.696628 -1.618028 33.825302
v -2.494288 -1.755049 33.313774
v -2.148852 -1.647150 32.877411
v -1.752878 -1.323243 32.633144
v -0.827851 -1.259580 32.890999
v -0.642377 -0.771061 33.161411
v -0.611008 -0.436707 33.644524
v -0.742151 -0.346109 34.210892
v -1.000666 -0.523542 34.708748
v -1.317283 -0.921463 35.004700
v -1.607166 -1.433249 35.019444
v -1.792642 -1.921769 34.749031
v -1.824011 -2.256122 34.265919
v -1.692868 -2.346721 33.699554
v -1.434353 -2.169288 33.201694
v -1.117736 -1.771368 32.905743
v -0.374477 -1.462821 32.942207
v -0.209460 -0.944814 33.218491
v -0.106440 -0.628477 33.729576
v -0.093023 -0.598572 34.338524
v -0.172803 -0.863111 34.882168
v -0.324403 -1.351212 35.214836
v -0.507201 -1.932088 35.247391
v -0.672219 -2.450095 34.971107
v -0.775238 -2.766433 34.460022
v -0.788655 -2.796338 33.851074
v -0.708876 -2.531799 33.307430
v -0.557276 -2.043698 32.974762
v -0.030552 -1.521250 32.844162
v 0.104267 -0.978444 33.136932
v 0.309259 -0.668914 33.647522
v 0.529497 -0.675600 34.239117
v 0.705969 -0.996709 34.753197
v 0.791388 -1.546202 35.052017
v 0.762867 -2.176841 35.055508
v 0.628049 -2.719648 34.762733
v 0.423057 -3.029178 34.252144
v 0.202819 -3.022493 33.660553
v 0.026347 -2.701383 33.146469
v -0.059072 -2.151891 32.847652
v 0.509614 -1.436737 32.451267
v 0.600764 -0.878844 32.777672
v 0.852444 -0.556018 33.286133
v 1.197217 -0.554759 33.840408
v 1.542701 -0.875404 34.291985
v 1.796325 -1.432038 34.519855
v 1.890130 -2.075511 34.462971
v 1.798980 -2.633404 34.136566
v 1.547300 -2.956231 33.628105
v 1.202527 -2.957490 33.073830
v 0.857042 -2.636844 32.622253
v 0.603419 -2.080211 32.394382
v 1.476118 -1.164511 31.855322
v 1.479787 -0.639618 32.222015
v 1.640256 -0.345482 32.767658
v 1.914529 -0.360916 33.346039
v 2.229113 -0.681783 33.802189
v 2.499717 -1.222109 34.013878
v 2.653833 -1.837113 33.924381
v 2.650165 -2.362005 33.557690
v 2.489696 -2.656142 33.012047
v 2.215423 -2.640709 32.433666
v 1.900838 -2.319841 31.977516
v 1.630234 -1.779516 31.765827
v 2.546626 -0.812315 31.570585
v 2.413578 -0.343819 31.966827
v 2.383417 -0.118784 32.552189
v 2.464225 -0.197507 33.169823
v 2.634349 -0.558896 33.654232
v 2.848205 -1.106117 33.875626
v 3.048491 -1.692541 33.774673
v 3.181539 -2.161038 33.378433
v 3.211700 -2.386073 32.793072
v 3.130893 -2.307349 32.175438
v 2.960768 -1.945960 31.691025
v 2.746912 -1.398740 31.469635
v 3.551546 -0.450063 31.714506
v 3.271092 -0.046024 32.084393
v 3.028960 0.096395 32.631939
v 2.890029 -0.060968 33.210430
v 2.891526 -0.475947 33.664860
v 3.033048 -1.037349 33.873466
v 3.276676 -1.594747 33.780354
v 3.557130 -1.998787 33.410465
v 3.799262 -2.141206 32.862923
v 3.938193 -1.983843 32.284428
v 3.936697 -1.568864 31.829998
v 3.795174 -1.007462 31.621391
v 4.370796 -0.145831 32.215981
v 3.987413 0.208878 32.517220
v 3.588949 0.287317 32.962887
v 3.282170 0.068468 33.433567
v 3.149278 -0.389028 33.803139
v 3.225881 -0.962587 33.972576
v 3.491453 -1.498522 33.896481
v 3.874835 -1.853231 33.595238
v 4.273300 -1.931670 33.149570
v 4.580079 -1.712821 32.678894
v 4.712971 -1.255325 32.309322
v 4.636368 -0.681767 32.139885
v 4.976089 0.063765 32.908909
v 4.546446 0.391760 33.146629
v 4.068209 0.437086 33.490025
v 3.669521 0.187599 33.847080
v 3.457210 -0.289852 34.122124
v 3.488164 -0.867335 34.241459
v 3.754089 -1.390113 34.173107
v 4.183732 -1.718108 33.935387
v 4.661969 -1.763435 33.591991
v 5.060658 -1.513948 33.234936
v 5.272969 -1.036497 32.959892
v 5.242015 -0.459014 32.840557
v 5.428616 0.182337 33.678928
v 4.988148 0.497823 33.880398
v 4.479178 0.530716 34.152431
v 4.038085 0.272202 34.422138
v 3.783059 -0.208452 34.617249
v 3.782434 -0.782453 34.685482
v 4.036376 -1.295999 34.608559
v 4.476844 -1.611486 34.407089
v 4.985814 -1.644379 34.135056
v 5.426907 -1.385864 33.865349
v 5.681933 -0.905211 33.670238
v 5.682559 -0.331210 33.602005
v 5.788481 0.215747 34.467468
v 5.355890 0.524239 34.661354
v 4.841293 0.554380 34.894108
v 4.382575 0.298094 35.103363
v 4.102649 -0.175947 35.233051
v 4.076521 -0.740725 35.248425
v 4.311192 -1.244907 35.145359
v 4.743782 -1.553399 34.951473
v 5.258379 -1.583541 34.718719
v 5.717097 -1.327255 34.509464
v 5.997024 -0.853214 34.379772
v 6.023151 -0.288436 34.364403
v 6.095470 0.161179 35.228729
v 5.683681 0.461389 35.443821
v 5.178087 0.491174 35.666195
v 4.714163 0.242552 35.836266
v 4.416217 -0.217858 35.908463
v 4.364082 -0.766690 35.863438
v 4.571730 -1.256886 35.713261
v 4.983519 -1.557097 35.498169
v 5.489113 -1.586882 35.275795
v 5.953037 -1.338260 35.105724
v 6.250983 -0.877850 35.033527
v 6.303118 -0.329017 35.078552
v 6.377926 0.009463 35.914467
v 6.002954 0.289929 36.184792
v 5.520086 0.313697 36.426895
v 5.058705 0.074396 36.575909
v 4.742438 -0.363851 36.591896
v 4.656029 -0.883618 36.470581
v 4.822630 -1.345632 36.244469
v 5.197602 -1.626099 35.974144
v 5.680470 -1.649867 35.732037
v 6.141851 -1.410567 35.583027
v 6.458118 -0.972319 35.567036
v 6.544528 -0.452552 35.688351
v 6.658821 -0.252271 36.469601
v 6.350140 -0.026735 36.834129
v 5.911830 -0.031628 37.128902
v 5.461338 -0.265638 37.274940
v 5.119371 -0.666062 37.233109
v 4.977561 -1.125608 37.014618
v 5.073903 -1.521141 36.678013
v 5.382585 -1.746677 36.313488
v 5.820894 -1.741785 36.018711
v 6.271386 -1.507775 35.872677
v 6.613353 -1.107350 35.914505
v 6.755164 -0.647804 36.132996
v 6.954205 -0.633055 36.828247
v 6.756695 -0.533890 37.294277
v 6.396177 -0.617267 37.653591
v 5.969253 -0.860847 37.809906
v 5.590315 -1.199362 37.721340
v 5.360900 -1.542108 37.411621
v 5.342479 -1.797245 36.963745
v 5.539989 -1.896411 36.497711
v 5.900506 -1.813034 36.138397
v 6.327431 -1.569454 35.982082
v 6.706369 -1.230939 36.070648
v 6.935784 -0.888193 36.380363
v 7.268796 -1.124380 36.928062
v 7.197446 -1.197673 37.420891
v 6.929224 -1.396146 37.797726
v 6.536000 -1.666618 37.957596
v 6.123138 -1.936617 37.857670
v 5.801264 -2.133796 37.524719
v 5.656624 -2.205321 37.047955
v 5.727974 -2.132028 36.555130
v 5.996196 -1.933555 36.178291
v 6.389420 -1.663083 36.018417
v 6.802282 -1.393084 36.118347
v 7.124156 -1.195905 36.451298
v 7.742983 -1.948446 36.685341
v 7.775250 -2.175130 37.109459
v 7.591156 -2.478372 37.435741
v 7.240027 -2.776917 37.576752
v 6.815951 -2.990771 37.494717
v 6.432557 -3.062633 37.211609
v 6.192575 -2.973245 36.803291
v 6.160308 -2.746561 36.379169
v 6.344402 -2.443319 36.052891
v 6.695530 -2.144774 35.911877
v 7.119606 -1.930919 35.993916
v 7.503001 -1.859058 36.277023
v 8.059090 -2.559923 36.149414
v 8.160612 -2.894003 36.449856
v 8.037397 -3.271413 36.683441
v 7.722462 -3.591024 36.787579
v 7.300192 -3.767199 36.734367
v 6.883734 -3.752731 36.538067
v 6.584677 -3.551496 36.251274
v 6.483154 -3.217416 35.950832
v 6.606368 -2.840007 35.717247
v 6.921303 -2.520395 35.613110
v 7.343574 -2.344220 35.666321
v 7.760032 -2.358688 35.862621
v 8.253427 -2.989379 35.378731
v 8.385665 -3.369695 35.554348
v 8.295301 -3.776903 35.692135
v 8.006549 -4.101892 35.755169
v 7.596779 -4.257580 35.726562
v 7.175789 -4.202253 35.613979
v 6.856382 -3.950735 35.447586
v 6.724144 -3.570419 35.271969
v 6.814507 -3.163210 35.134182
v 7.103259 -2.838222 35.071148
v 7.513029 -2.682533 35.099754
v 7.934020 -2.737860 35.212337
v 8.357990 -3.261413 34.427639
v 8.497005 -3.646275 34.512634
v 8.421587 -4.052097 34.578117
v 8.151942 -4.370141 34.606544
v 7.760323 -4.515186 34.590302
v 7.351662 -4.448368 34.533733
v 7.035460 -4.187590 34.452003
v 6.896444 -3.802728 34.367008
v 6.971862 -3.396905 34.301525
v 7.241507 -3.078862 34.273094
v 7.633127 -2.933817 34.289341
v 8.041788 -3.000635 34.345909
v 8.402638 -3.397331 33.350903
v 8.539028 -3.768774 33.377495
v 8.471295 -4.159210 33.393345
v 8.217587 -4.464022 33.394199
v 7.845885 -4.601537 33.379833
v 7.455786 -4.534906 33.354095
v 7.151816 -4.281985 33.323883
v 7.015426 -3.910543 33.297291
v 7.083159 -3.520107 33.281441
v 7.336867 -3.215294 33.280586
v 7.708570 -3.077780 33.294952
v 8.098669 -3.144410 33.320690
v 8.416573 -3.417531 32.205528
v 8.547356 -3.769091 32.195362
v 8.484932 -4.138617 32.176506
v 8.246025 -4.427094 32.154015
v 7.894651 -4.557227 32.133915
v 7.524961 -4.494145 32.121590
v 7.236013 -4.254752 32.120346
v 7.105230 -3.903193 32.130512
v 7.167655 -3.533667 32.149368
v 7.406561 -3.245188 32.171860
v 7.757935 -3.115056 32.191963
v 8.127625 -3.178138 32.204285
v 8.428792 -3.342768 31.050140
v 8.553239 -3.672390 31.016996
v 8.495631 -4.018671 30.972204
v 8.271406 -4.288826 30.927763
v 7.940645 -4.410468 30.895582
v 7.591973 -4.351002 30.884285
v 7.318818 -4.126362 30.896896
v 7.194371 -3.796741 30.930040
v 7.251978 -3.450460 30.974834
v 7.476203 -3.180304 31.019276
v 7.806965 -3.058662 31.051455
v 8.155637 -3.118128 31.062754
v 8.467660 -3.194636 29.944946
v 8.585785 -3.501909 29.897924
v 8.533457 -3.823554 29.831684
v 8.324697 -4.073386 29.763973
v 8.015442 -4.184462 29.712936
v 7.688557 -4.127021 29.692247
v 7.431630 -3.916453 29.707451
v 7.313505 -3.609180 29.754473
v 7.365833 -3.287535 29.820713
v 7.574592 -3.037704 29.888424
v 7.883848 -2.926626 29.939461
v 8.210732 -2.984068 29.960150
v 8.559487 -2.996332 28.952581
v 8.671495 -3.281526 28.898201
v 8.626003 -3.576946 28.811623
v 8.435200 -3.803436 28.716045
v 8.150211 -3.900306 28.637079
v 7.847399 -3.841603 28.595882
v 7.607902 -3.643053 28.603493
v 7.495893 -3.357860 28.657873
v 7.541385 -3.062439 28.744452
v 7.732189 -2.835950 28.840029
v 8.017178 -2.739079 28.918997
v 8.319990 -2.797783 28.960194
v 8.724203 -2.774514 28.138885
v 8.830086 -3.038377 28.082561
v 8.795497 -3.304718 27.973595
v 8.629704 -3.502171 27.841187
v 8.377131 -3.577828 27.720812
v 8.105454 -3.511418 27.644728
v 7.887471 -3.320735 27.633318
v 7.781587 -3.056873 27.689642
v 7.816176 -2.790532 27.798607
v 7.981969 -2.593079 27.931017
v 8.234543 -2.517421 28.051392
v 8.506218 -2.583831 28.127476
v 8.964914 -2.561080 27.564869
v 9.063417 -2.805176 27.511938
v 9.050062 -3.037155 27.377422
v 8.928425 -3.194859 27.197363
v 8.731102 -3.236031 27.020006
v 8.510962 -3.149638 26.892876
v 8.326992 -2.958830 26.850035
v 8.228489 -2.714734 26.902964
v 8.241844 -2.482755 27.037479
v 8.363481 -2.325051 27.217541
v 8.560805 -2.283879 27.394897
v 8.780945 -2.370271 27.522028
v 9.305391 -2.365686 27.230534
v 9.395992 -2.590413 27.181871
v 9.416374 -2.784832 27.030659
v 9.361073 -2.896847 26.817413
v 9.244909 -2.896444 26.599274
v 9.099007 -2.783731 26.434690
v 8.962461 -2.588910 26.367764
v 8.871859 -2.364183 26.416428
v 8.851477 -2.169764 26.567640
v 8.906776 -2.057749 26.780886
v 9.022943 -2.058152 26.999023
v 9.168844 -2.170864 27.163609
v 10.189792 -1.951279 27.006510
v 10.289190 -2.185138 26.953979
v 10.347328 -2.371323 26.782850
v 10.348625 -2.459944 26.538977
v 10.292736 -2.427257 26.287704
v 10.194635 -2.282020 26.096363
v 10.080607 -2.063149 26.016220
v 9.981209 -1.829289 26.068750
v 9.923071 -1.643105 26.239880
v 9.921774 -1.554483 26.483753
v 9.977663 -1.587170 26.735023
v 10.075764 -1.732407 26.926367
v 11.189331 -1.496160 26.989515
v 11.299907 -1.738211 26.934118
v 11.389520 -1.920219 26.753212
v 11.434158 -1.993415 26.495268
v 11.421862 -1.938185 26.229404
v 11.355924 -1.769330 26.026859
v 11.254013 -1.532093 25.941904
v 11.143436 -1.290041 25.997301
v 11.053823 -1.108034 26.178207
v 11.009186 -1.034838 26.436150
v 11.021482 -1.090067 26.702015
v 11.087420 -1.258923 26.904560
v 12.268165 -1.021571 27.159992
v 12.387817 -1.272829 27.102577
v 12.502888 -1.453719 26.916079
v 12.582541 -1.515772 26.650469
v 12.605435 -1.442360 26.376917
v 12.565436 -1.253155 26.168720
v 12.473260 -0.998853 26.081667
v 12.353606 -0.747594 26.139082
v 12.238536 -0.566704 26.325581
v 12.158882 -0.504651 26.591190
v 12.135988 -0.578063 26.864742
v 12.175987 -0.767268 27.072939
v 13.402338 -0.540770 27.485117
v 13.529070 -0.802141 27.425690
v 13.664007 -0.984603 27.234880
v 13.770991 -1.039264 26.963820
v 13.821359 -0.951479 26.685135
v 13.801610 -0.744769 26.473501
v 13.717040 -0.474522 26.385624
v 13.590307 -0.213150 26.445053
v 13.455370 -0.030688 26.635860
v 13.348386 0.023973 26.906921
v 13.298018 -0.063812 27.185606
v 13.317767 -0.270522 27.397240
v 14.566295 -0.067597 27.928047
v 14.698245 -0.339868 27.866127
v 14.848343 -0.526056 27.670727
v 14.976370 -0.576274 27.394207
v 15.048021 -0.477064 27.110659
v 15.044099 -0.255011 26.896059
v 14.965653 0.030387 26.807909
v 14.833702 0.302658 26.869829
v 14.683604 0.488847 27.065228
v 14.555577 0.539064 27.341747
v 14.483926 0.439855 27.625298
v 14.487848 0.217801 27.839897
v 15.735238 0.384529 28.449703
v 15.870475 0.100617 28.384480
v 16.031559 -0.091089 28.183357
v 16.175325 -0.139221 27.900227
v 16.263254 -0.030883 27.610950
v 16.271786 0.204897 27.393044
v 16.198633 0.504942 27.304890
v 16.063396 0.788854 27.370113
v 15.902312 0.980560 27.571234
v 15.758546 1.028692 27.854366
v 15.670617 0.920354 28.143641
v 15.662085 0.684574 28.361549
v 16.885752 0.802765 29.010139
v 17.021946 0.506415 28.940470
v 17.189758 0.307540 28.731869
v 17.344221 0.259429 28.440231
v 17.443949 0.374973 28.143700
v 17.462219 0.623212 27.921734
v 17.394136 0.937631 27.833803
v 17.257942 1.233981 27.903473
v 17.090130 1.432857 28.112074
v 16.935667 1.480968 28.403711
v 16.835938 1.365424 28.700241
v 16.817669 1.117185 28.922209
v 17.996197 1.174824 29.569355
v 18.130087 0.865070 29.493635
v 18.299421 0.657281 29.275101
v 18.458828 0.607134 28.972309
v 18.565594 0.728066 28.666393
v 18.591110 0.987672 28.439323
v 18.528542 1.316393 28.351942
v 18.394650 1.626146 28.427662
v 18.225315 1.833936 28.646194
v 18.065907 1.884083 28.948986
v 17.959141 1.763151 29.254902
v 17.933626 1.503545 29.481972
v 19.047762 1.488976 30.087839
v 19.174122 1.164541 30.003763
v 19.337313 0.945744 29.771835
v 19.493607 0.891212 29.454201
v 19.601128 1.015557 29.135969
v 19.631065 1.285460 28.902411
v 19.575396 1.628602 28.816107
v 19.449036 1.953037 28.900183
v 19.285847 2.171834 29.132111
v 19.129551 2.226367 29.449745
v 19.022028 2.102022 29.767977
v 18.992092 1.832119 30.001535
v 20.027626 1.734044 30.526897
v 20.136875 1.393189 30.431158
v 20.280441 1.160686 30.180929
v 20.419855 1.098834 29.843256
v 20.517761 1.224206 29.508621
v 20.547922 1.503210 29.266689
v 20.502262 1.861086 29.182283
v 20.393011 2.201941 29.278023
v 20.249445 2.434444 29.528254
v 20.110031 2.496296 29.865925
v 20.012125 2.370924 30.200562
v 19.981962 2.091920 30.442493
v 20.938131 1.898394 30.847048
v 21.010216 1.539216 30.735806
v 21.106314 1.290044 30.461473
v 21.200670 1.217642 30.097561
v 21.268013 1.341410 29.741575
v 21.290289 1.628185 29.488903
v 21.261534 2.001125 29.407248
v 21.189451 2.360302 29.518490
v 21.093353 2.609475 29.792822
v 20.998995 2.681878 30.156734
v 20.931652 2.558110 30.512720
v 20.909376 2.271335 30.765392
v 21.791574 1.960570 30.990549
v 21.791904 1.585148 30.867113
v 21.792692 1.321742 30.572502
v 21.793728 1.240931 30.185659
v 21.794733 1.364369 29.810240
v 21.795437 1.658980 29.546835
v 21.795652 2.045824 29.466024
v 21.795322 2.421246 29.589460
v 21.794535 2.684652 29.884071
v 21.793499 2.765462 30.270914
v 21.792496 2.642025 30.646334
v 21.791790 2.347414 30.909739
vt 0.000000 1.000000
vt 0.020833 1.000000
vt 0.020833 0.916667
vt 0.000000 0.916667
vt 0.000000 0.083333
vt 0.020833 0.083333
vt 0.020833 0.000000
vt 0.000000 0.000000
vt 0.000000 0.166667
vt 0.020833 0.166667
vt 0.000000 0.250000
vt 0.020833 0.250000
vt 0.000000 0.333333
vt 0.020833 0.333333
vt 0.000000 0.416667
vt 0.020833 0.416667
vt 0.000000 0.500000
vt 0.020833 0.500000
vt 0.000000 0.583333
vt 0.020833 0.583333
vt 0.000000 0.666667
vt 0.020833 0.666667
vt 0.000000 0.750000
vt 0.020833 0.750000
vt 0.000000 0.833333
vt 0.020833 0.833333
vt 0.041667 1.000000
vt 0.041667 0.916667
vt 0.041667 0.083333
vt 0.041667 0.000000
vt 0.041667 0.166667
vt 0.041667 0.250000
vt 0.041667 0.333333
vt 0.041667 0.416667
vt 0.041667 0.500000
vt 0.041667 0.583333
vt 0.041667 0.666667
vt 0.041667 0.750000
vt 0.041667 0.833333
vt 0.062500 1.000000
vt 0.062500 0.916667
vt 0.062500 0.083333
vt 0.062500 0.000000
vt 0.062500 0.166667
vt 0.062500 0.250000
vt 0.062500 0.333333
vt 0.062500 0.416667
vt 0.062500 0.500000
vt 0.062500 0.583333
vt 0.062500 0.666667
vt 0.062500 0.750000
vt 0.062500 0.833333
vt 0.083333 1.000000
vt 0.083333 0.916667
vt 0.083333 0.083333
vt 0.083333 0.000000
vt 0.083333 0.166667
vt 0.083333 0.250000
vt 0.083333 0.333333
vt 0.083333 0.416667
vt 0.083333 0.500000
vt 0.083333 0.583333
vt 0.083333 0.666667
vt 0.083333 0.750000
vt 0.083333 0.833333
vt 0.104167 1.000000
vt 0.104167 0.916667
vt 0.104167 0.083333
vt 0.104167 0.000000
vt 0.104167 0.166667
vt 0.104167 0.250000
vt 0.104167 0.333333
vt 0.104167 0.416667
vt 0.104167 0.500000
vt 0.104167 0.583333
vt 0.104167 0.666667
vt 0.104167 0.750000
vt 0.104167 0.833333
vt 0.125000 1.000000
vt 0.125000 0.916667
vt 0.125000 0.083333
vt 0.125000 0.000000
vt 0.125000 0.166667
vt 0.125000 0.250000
vt 0.125000 0.333333
vt 0.125000 0.416667
vt 0.125000 0.500000
vt 0.125000 0.583333
vt 0.125000 0.666667
vt 0.125000 0.750000
vt 0.125000 0.833333
vt 0.145833 1.000000
vt 0.145833 0.916667
vt 0.145833 0.083333
vt 0.145833 0.000000
vt 0.145833 0.166667
vt 0.145833 0.250000
vt 0.145833 0.333333
vt 0.145833 0.416667
vt 0.145833 0.500000
vt 0.145833 0.583333
vt 0.145833 0.666667
vt 0.145833 0.750000
vt 0.145833 0.833333
vt 0.166667 1.000000
vt 0.166667 0.916667
vt 0.166667 0.083333
vt 0.166667 0.000000
vt 0.166667 0.166667
vt 0.166667 0.250000
vt 0.166667 0.333333
vt 0.166667 0.416667
vt 0.166667 0.500000
vt 0.166667 0.583333
vt 0.166667 0.666667
vt 0.166667 0.750000
vt 0.166667 0.833333
vt 0.187500 1.000000
vt 0.187500 0.916667
vt 0.187500 0.083333
vt 0.187500 0.000000
vt 0.187500 0.166667
vt 0.187500 0.250000
vt 0.187500 0.333333
vt 0.187500 0.416667
vt 0.187500 0.500000
vt 0.187500 0.583333
vt 0.187500 0.666667
vt 0.187500 0.750000
vt 0.187500 0.833333
vt 0.208333 1.000000
vt 0.208333 0.916667
vt 0.208333 0.083333
vt 0.208333 0.000000
vt 0.208333 0.166667
vt 0.208333 0.250000
vt 0.208333 0.333333
vt 0.208333 0.416667
vt 0.208333 0.500000
vt 0.208333 0.583333
vt 0.208333 0.666667
vt 0.208333 0.750000
vt 0.208333 0.833333
vt 0.229167 1.000000
vt 0.229167 0.916667
vt 0.229167 0.083333
vt 0.229167 0.000000
vt 0.229167 0.166667
vt 0.229167 0.250000
vt 0.229167 0.333333
vt 0.229167 0.416667
vt 0.229167 0.500000
vt 0.229167 0.583333
vt 0.229167 0.666667
vt 0.229167 0.750000
vt 0.229167 0.833333
vt 0.250000 1.000000
vt 0.250000 0.916667
vt 0.250000 0.083333
vt 0.250000 0.000000
vt 0.250000 0.166667
vt 0.250000 0.250000
vt 0.250000 0.333333
vt 0.250000 0.416667
vt 0.250000 0.500000
vt 0.250000 0.583333
vt 0.250000 0.666667
vt 0.250000 0.750000
vt 0.250000 0.833333
vt 0.270833 1.000000
vt 0.270833 0.916667
vt 0.270833 0.083333
vt 0.270833 0.000000
vt 0.270833 0.166667
vt 0.270833 0.250000
vt 0.270833 0.333333
vt 0.270833 0.416667
vt 0.270833 0.500000
vt 0.270833 0.583333
vt 0.270833 0.666667
vt 0.270833 0.750000
vt 0.270833 0.833333
vt 0.291667 1.000000
vt 0.291667 0.916667
vt 0.291667 0.083333
vt 0.291667 0.000000
vt 0.291667 0.166667
vt 0.291667 0.250000
vt 0.291667 0.333333
vt 0.291667 0.416667
vt 0.291667 0.500000
vt 0.291667 0.583333
vt 0.291667 0.666667
vt 0.291667 0.750000
vt 0.291667 0.833333
vt 0.312500 1.000000
vt 0.312500 0.916667
vt 0.312500 0.083333
vt 0.312500 0.000000
vt 0.312500 0.166667
vt 0.312500 0.250000
vt 0.312500 0.333333
vt 0.312500 0.416667
vt 0.312500 0.500000
vt 0.312500 0.583333
vt 0.312500 0.666667
vt 0.312500 0.750000
vt 0.312500 0.833333
vt 0.333333 1.000000
vt 0.333333 0.916667
vt 0.333333 0.083333
vt 0.333333 0.000000
vt 0.333333 0.166667
vt 0.333333 0.250000
vt 0.333333 0.333333
vt 0.333333 0.416667
vt 0.333333 0.500000
vt 0.333333 0.583333
vt 0.333333 0.666667
vt 0.333333 0.750000
vt 0.333333 0.833333
vt 0.354167 1.000000
vt 0.354167 0.916667
vt 0.354167 0.083333
vt 0.354167 0.000000
vt 0.354167 0.166667
vt 0.354167 0.250000
vt 0.354167 0.333333
vt 0.354167 0.416667
vt 0.354167 0.500000
vt 0.354167 0.583333
vt 0.354167 0.666667
vt 0.354167 0.750000
vt 0.354167 0.833333
vt 0.375000 1.000000
vt 0.375000 0.916667
vt 0.375000 0.083333
vt 0.375000 0.000000
vt 0.375000 0.166667
vt 0.375000 0.250000
vt 0.375000 0.333333
vt 0.375000 0.416667
vt 0.375000 0.500000
vt 0.375000 0.583333
vt 0.375000 0.666667
vt 0.375000 0.750000
vt 0.375000 0.833333
vt 0.395833 1.000000
vt 0.395833 0.916667
vt 0.395833 0.083333
vt 0.395833 0.000000
vt 0.395833 0.166667
vt 0.395833 0.250000
vt 0.395833 0.333333
vt 0.395833 0.416667
vt 0.395833 0.500000
vt 0.395833 0.583333
vt 0.395833 0.666667
vt 0.395833 0.750000
vt 0.395833 0.833333
vt 0.416667 1.000000
vt 0.416667 0.916667
vt 0.416667 0.083333
vt 0.416667 0.000000
vt 0.416667 0.166667
vt 0.416667 0.250000
vt 0.416667 0.333333
vt 0.416667 0.416667
vt 0.416667 0.500000
vt 0.416667 0.583333
vt 0.416667 0.666667
vt 0.416667 0.750000
vt 0.416667 0.833333
vt 0.437500 1.000000
vt 0.437500 0.916667
vt 0.437500 0.083333
vt 0.437500 0.000000
vt 0.437500 0.166667
vt 0.437500 0.250000
vt 0.437500 0.333333
vt 0.437500 0.416667
vt 0.437500 0.500000
vt 0.437500 0.583333
vt 0.437500 0.666667
vt 0.437500 0.750000
vt 0.437500 0.833333
vt 0.458333 1.000000
vt 0.458333 0.916667
vt 0.458333 0.083333
vt 0.458333 0.000000
vt 0.458333 0.166667
vt 0.458333 0.250000
vt 0.458333 0.333333
vt 0.458333 0.416667
vt 0.458333 0.500000
vt 0.458333 0.583333
vt 0.458333 0.666667
vt 0.458333 0.750000
vt 0.458333 0.833333
vt 0.479167 1.000000
vt 0.479167 0.916667
vt 0.479167 0.083333
vt 0.479167 0.000000
vt 0.479167 0.166667
vt 0.479167 0.250000
vt 0.479167 0.333333
vt 0.479167 0.416667
vt 0.479167 0.500000
vt 0.479167 0.583333
vt 0.479167 0.666667
vt 0.479167 0.750000
vt 0.479167 0.833333
vt 0.500000 1.000000
vt 0.500000 0.916667
vt 0.500000 0.083333
vt 0.500000 0.000000
vt 0.500000 0.166667
vt 0.500000 0.250000
vt 0.500000 0.333333
vt 0.500000 0.416667
vt 0.500000 0.500000
vt 0.500000 0.583333
vt 0.500000 0.666667
vt 0.500000 0.750000
vt 0.500000 0.833333
vt 0.520833 1.000000
vt 0.520833 0.916667
vt 0.520833 0.083333
vt 0.520833 0.000000
vt 0.520833 0.166667
vt 0.520833 0.250000
vt 0.520833 0.333333
vt 0.520833 0.416667
vt 0.520833 0.500000
vt 0.520833 0.583333
vt 0.520833 0.666667
vt 0.520833 0.750000
vt 0.520833 0.833333
vt 0.541667 1.000000
vt 0.541667 0.916667
vt 0.541667 0.083333
vt 0.541667 0.000000
vt 0.541667 0.166667
vt 0.541667 0.250000
vt 0.541667 0.333333
vt 0.541667 0.416667
vt 0.541667 0.500000
vt 0.541667 0.583333
vt 0.541667 0.666667
vt 0.541667 0.750000
vt 0.541667 0.833333
vt 0.562500 1.000000
vt 0.562500 0.916667
vt 0.562500 0.083333
vt 0.562500 0.000000
vt 0.562500 0.166667
vt 0.562500 0.250000
vt 0.562500 0.333333
vt 0.562500 0.416667
vt 0.562500 0.500000
vt 0.562500 0.583333
vt 0.562500 0.666667
vt 0.562500 0.750000
vt 0.562500 0.833333
vt 0.583333 1.000000
vt 0.583333 0.916667
vt 0.583333 0.083333
vt 0.583333 0.000000
vt 0.583333 0.166667
vt 0.583333 0.250000
vt 0.583333 0.333333
vt 0.583333 0.416667
vt 0.583333 0.500000
vt 0.583333 0.583333
vt 0.583333 0.666667
vt 0.583333 0.750000
vt 0.583333 0.833333
vt 0.604167 1.000000
vt 0.604167 0.916667
vt 0.604167 0.083333
vt 0.604167 0.000000
vt 0.604167 0.166667
vt 0.604167 0.250000
vt 0.604167 0.333333
vt 0.604167 0.416667
vt 0.604167 0.500000
vt 0.604167 0.583333
vt 0.604167 0.666667
vt 0.604167 0.750000
vt 0.604167 0.833333
vt 0.625000 1.000000
vt 0.625000 0.916667
vt 0.625000 0.083333
vt 0.625000 0.000000
vt 0.625000 0.166667
vt 0.625000 0.250000
vt 0.625000 0.333333
vt 0.625000 0.416667
vt 0.625000 0.500000
vt 0.625000 0.583333
vt 0.625000 0.666667
vt 0.625000 0.750000
vt 0.625000 0.833333
vt 0.645833 1.000000
vt 0.645833 0.916667
vt 0.645833 0.083333
vt 0.645833 0.000000
vt 0.645833 0.166667
vt 0.645833 0.250000
vt 0.645833 0.333333
vt 0.645833 0.416667
vt 0.645833 0.500000
vt 0.645833 0.583333
vt 0.645833 0.666667
vt 0.645833 0.750000
vt 0.645833 0.833333
vt 0.666667 1.000000
vt 0.666667 0.916667
vt 0.666667 0.083333
vt 0.666667 0.000000
vt 0.666667 0.166667
vt 0.666667 0.250000
vt 0.666667 0.333333
vt 0.666667 0.416667
vt 0.666667 0.500000
vt 0.666667 0.583333
vt 0.666667 0.666667
vt 0.666667 0.750000
vt 0.666667 0.833333
vt 0.687500 1.000000
vt 0.687500 0.916667
vt 0.687500 0.083333
vt 0.687500 0.000000
vt 0.687500 0.166667
vt 0.687500 0.250000
vt 0.687500 0.333333
vt 0.687500 0.416667
vt 0.687500 0.500000
vt 0.687500 0.583333
vt 0.687500 0.666667
vt 0.687500 0.750000
vt 0.687500 0.833333
vt 0.708333 1.000000
vt 0.708333 0.916667
vt 0.708333 0.083333
vt 0.708333 0.000000
vt 0.708333 0.166667
vt 0.708333 0.250000
vt 0.708333 0.333333
vt 0.708333 0.416667
vt 0.708333 0.500000
vt 0.708333 0.583333
vt 0.708333 0.666667
vt 0.708333 0.750000
vt 0.708333 0.833333
vt 0.729167 1.000000
vt 0.729167 0.916667
vt 0.729167 0.083333
vt 0.729167 0.000000
vt 0.729167 0.166667
vt 0.729167 0.250000
vt 0.729167 0.333333
vt 0.729167 0.416667
vt 0.729167 0.500000
vt 0.729167 0.583333
vt 0.729167 0.666667
vt 0.729167 0.750000
vt 0.729167 0.833333
vt 0.750000 1.000000
vt 0.750000 0.916667
vt 0.750000 0.083333
vt 0.750000 0.000000
vt 0.750000 0.166667
vt 0.750000 0.250000
vt 0.750000 0.333333
vt 0.750000 0.416667
vt 0.750000 0.500000
vt 0.750000 0.583333
vt 0.750000 0.666667
vt 0.750000 0.750000
vt 0.750000 0.833333
vt 0.770833 1.000000
vt 0.770833 0.916667
vt 0.770833 0.083333
vt 0.770833 0.000000
vt 0.770833 0.166667
vt 0.770833 0.250000
vt 0.770833 0.333333
vt 0.770833 0.416667
vt 0.770833 0.500000
vt 0.770833 0.583333
vt 0.770833 0.666667
vt 0.770833 0.750000
vt 0.770833 0.833333
vt 0.791667 1.000000
vt 0.791667 0.916667
vt 0.791667 0.083333
vt 0.791667 0.000000
vt 0.791667 0.166667
vt 0.791667 0.250000
vt 0.791667 0.333333
vt 0.791667 0.416667
vt 0.791667 0.500000
vt 0.791667 0.583333
vt 0.791667 0.666667
vt 0.791667 0.750000
vt 0.791667 0.833333
vt 0.812500 1.000000
vt 0.812500 0.916667
vt 0.812500 0.083333
vt 0.812500 0.000000
vt 0.812500 0.166667
vt 0.812500 0.250000
vt 0.812500 0.333333
vt 0.812500 0.416667
vt 0.812500 0.500000
vt 0.812500 0.583333
vt 0.812500 0.666667
vt 0.812500 0.750000
vt 0.812500 0.833333
vt 0.833333 1.000000
vt 0.833333 0.916667
vt 0.833333 0.083333
vt 0.833333 0.000000
vt 0.833333 0.166667
vt 0.833333 0.250000
vt 0.833333 0.333333
vt 0.833333 0.416667
vt 0.833333 0.500000
vt 0.833333 0.583333
vt 0.833333 0.666667
vt 0.833333 0.750000
vt 0.833333 0.833333
vt 0.854167 1.000000
vt 0.854167 0.916667
vt 0.854167 0.083333
vt 0.854167 0.000000
vt 0.854167 0.166667
vt 0.854167 0.250000
vt 0.854167 0.333333
vt 0.854167 0.416667
vt 0.854167 0.500000
vt 0.854167 0.583333
vt 0.854167 0.666667
vt 0.854167 0.750000
vt 0.854167 0.833333
vt 0.875000 1.000000
vt 0.875000 0.916667
vt 0.875000 0.083333
vt 0.875000 0.000000
vt 0.875000 0.166667
vt 0.875000 0.250000
vt 0.875000 0.333333
vt 0.875000 0.416667
vt 0.875000 0.500000
vt 0.875000 0.583333
vt 0.875000 0.666667
vt 0.875000 0.750000
vt 0.875000 0.833333
vt 0.895833 1.000000
vt 0.895833 0.916667
vt 0.895833 0.083333
vt 0.895833 0.000000
vt 0.895833 0.166667
vt 0.895833 0.250000
vt 0.895833 0.333333
vt 0.895833 0.416667
vt 0.895833 0.500000
vt 0.895833 0.583333
vt 0.895833 0.666667
vt 0.895833 0.750000
vt 0.895833 0.833333
vt 0.916667 1.000000
vt 0.916667 0.916667
vt 0.916667 0.083333
vt 0.916667 0.000000
vt 0.916667 0.166667
vt 0.916667 0.250000
vt 0.916667 0.333333
vt 0.916667 0.416667
vt 0.916667 0.500000
vt 0.916667 0.583333
vt 0.916667 0.666667
vt 0.916667 0.750000
vt 0.916667 0.833333
vt 0.937500 1.000000
vt 0.937500 0.916667
vt 0.937500 0.083333
vt 0.937500 0.000000
vt 0.937500 0.166667
vt 0.937500 0.250000
vt 0.937500 0.333333
vt 0.937500 0.416667
vt 0.937500 0.500000
vt 0.937500 0.583333
vt 0.937500 0.666667
vt 0.937500 0.750000
vt 0.937500 0.833333
vt 0.958333 1.000000
vt 0.958333 0.916667
vt 0.958333 0.083333
vt 0.958333 0.000000
vt 0.958333 0.166667
vt 0.958333 0.250000
vt 0.958333 0.333333
vt 0.958333 0.416667
vt 0.958333 0.500000
vt 0.958333 0.583333
vt 0.958333 0.666667
vt 0.958333 0.750000
vt 0.958333 0.833333
vt 0.979167 1.000000
vt 0.979167 0.916667
vt 0.979167 0.083333
vt 0.979167 0.000000
vt 0.979167 0.166667
vt 0.979167 0.250000
vt 0.979167 0.333333
vt 0.979167 0.416667
vt 0.979167 0.500000
vt 0.979167 0.583333
vt 0.979167 0.666667
vt 0.979167 0.750000
vt 0.979167 0.833333
vt 1.000000 1.000000
vt 1.000000 0.916667
vt 1.000000 0.083333
vt 1.000000 0.000000
vt 1.000000 0.166667
vt 1.000000 0.250000
vt 1.000000 0.333333
vt 1.000000 0.416667
vt 1.000000 0.500000
vt 1.000000 0.583333
vt 1.000000 0.666667
vt 1.000000 0.750000
vt 1.000000 0.833333
vn -0.2768 0.4697 -0.8383
vn 0.0290 0.3278 -0.9443
vn -0.2095 -0.1035 -0.9723
vn -0.4439 0.0485 -0.8947
vn -0.0701 0.7890 -0.6103
vn 0.2458 0.6858 -0.6850
vn 0.1491 0.9608 -0.2337
vn 0.3888 0.8853 -0.2551
vn 0.3185 0.9129 0.2553
vn 0.4107 0.8770 0.2492
vn 0.0602 0.6788 0.7318
vn 0.1088 0.7015 0.7043
vn -0.8572 0.5126 -0.0492
vn -0.5727 0.5976 0.5611
vn -0.5043 0.5226 -0.6874
vn -0.8620 0.4877 0.1381
vn -0.3492 0.8274 -0.4399
vn -0.9239 0.3686 0.1027
vn -0.9894 0.1173 -0.0849
vn -0.9540 -0.2971 0.0393
vn -0.6009 -0.7457 -0.2879
vn -0.5946 -0.7392 -0.3161
vn -0.5426 -0.4156 -0.7299
vn -0.4177 -0.5041 -0.7559
vn 0.4342 0.0546 -0.8991
vn 0.1096 -0.3307 -0.9373
vn 0.6381 0.4328 -0.6367
vn 0.6699 0.7111 -0.2136
vn 0.5087 0.8188 0.2658
vn 0.1704 0.7283 0.6637
vn -0.2705 0.4794 0.8348
vn -0.6446 0.1489 0.7499
vn -0.8303 -0.2310 0.5071
vn -0.8033 -0.5821 0.1257
vn -0.5918 -0.7295 -0.3428
vn -0.2609 -0.6237 -0.7368
vn 0.5655 -0.0733 -0.8215
vn 0.2092 -0.4393 -0.8736
vn 0.7652 0.3197 -0.5588
vn 0.7555 0.6368 -0.1539
vn 0.5361 0.7940 0.2865
vn 0.1626 0.7480 0.6435
vn -0.2642 0.5097 0.8188
vn -0.6272 0.1426 0.7656
vn -0.8276 -0.2550 0.5000
vn -0.8119 -0.5763 0.0929
vn -0.5856 -0.7326 -0.3469
vn -0.2114 -0.6815 -0.7006
vn 0.6050 -0.1179 -0.7874
vn 0.2411 -0.4796 -0.8437
vn 0.8017 0.2821 -0.5270
vn 0.7783 0.6139 -0.1316
vn 0.5404 0.7887 0.2932
vn 0.1511 0.7590 0.6333
vn -0.2850 0.5323 0.7971
vn -0.6504 0.1695 0.7404
vn -0.8468 -0.2318 0.4786
vn -0.8217 -0.5638 0.0823
vn -0.5824 -0.7374 -0.3421
vn -0.1933 -0.7064 -0.6809
vn 0.6113 -0.1267 -0.7812
vn 0.2481 -0.4915 -0.8348
vn 0.8051 0.2787 -0.5235
vn 0.7772 0.6155 -0.1309
vn 0.5349 0.7931 0.2912
vn 0.1436 0.7639 0.6291
vn -0.2912 0.5360 0.7924
vn -0.6531 0.1711 0.7376
vn -0.8456 -0.2331 0.4801
vn -0.8177 -0.5688 0.0886
vn -0.5767 -0.7463 -0.3323
vn -0.1867 -0.7182 -0.6703
vn 0.5950 -0.1115 -0.7960
vn 0.2384 -0.4857 -0.8410
vn 0.7856 0.2993 -0.5415
vn 0.7583 0.6352 -0.1463
vn 0.5209 0.8054 0.2826
vn 0.1384 0.7647 0.6293
vn -0.2859 0.5252 0.8015
vn -0.6386 0.1519 0.7544
vn -0.8267 -0.2553 0.5013
vn -0.8008 -0.5888 0.1097
vn -0.5672 -0.7601 -0.3170
vn -0.1872 -0.7228 -0.6652
vn 0.5520 -0.0731 -0.8306
vn 0.2096 -0.4639 -0.8607
vn 0.7383 0.3442 -0.5800
vn 0.7172 0.6740 -0.1770
vn 0.4953 0.8263 0.2680
vn 0.1347 0.7612 0.6343
vn -0.2665 0.4986 0.8248
vn -0.6018 0.1104 0.7909
vn -0.7840 -0.3003 0.5432
vn -0.7658 -0.6261 0.1470
vn -0.5509 -0.7810 -0.2941
vn -0.1945 -0.7225 -0.6634
vn 0.4648 -0.0066 -0.8854
vn 0.1500 -0.4238 -0.8932
vn 0.6443 0.4196 -0.6393
vn 0.6380 0.7370 -0.2229
vn 0.4496 0.8579 0.2486
vn 0.1339 0.7513 0.6462
vn -0.2222 0.4505 0.8646
vn -0.5253 0.0387 0.8500
vn -0.6982 -0.3762 0.6091
vn -0.6969 -0.6873 0.2045
vn -0.5202 -0.8134 -0.2600
vn -0.2112 -0.7185 -0.6626
vn 0.2935 0.0932 -0.9514
vn 0.0336 -0.3643 -0.9307
vn 0.4608 0.5323 -0.7101
vn 0.4865 0.8294 -0.2745
vn 0.3677 0.9005 0.2319
vn 0.1427 0.7305 0.6678
vn -0.1260 0.3734 0.9190
vn -0.3693 -0.0722 0.9265
vn -0.5267 -0.4920 0.6931
vn -0.5591 -0.7808 0.2786
vn -0.4567 -0.8636 -0.2137
vn -0.2415 -0.7136 -0.6575
vn -0.0234 0.2061 -0.9782
vn -0.1699 -0.3022 -0.9380
vn 0.1190 0.6651 -0.7372
vn 0.2156 0.9340 -0.2847
vn 0.2366 0.9413 0.2409
vn 0.1785 0.6983 0.6932
vn 0.0605 0.2798 0.9581
vn -0.0844 -0.2028 0.9756
vn -0.2187 -0.6287 0.7463
vn -0.3087 -0.8927 0.3282
vn -0.3322 -0.9266 -0.1763
vn -0.2823 -0.7145 -0.6401
vn -0.4166 0.2531 -0.8731
vn -0.4102 -0.2780 -0.8686
vn -0.3113 0.7181 -0.6225
vn -0.1174 0.9741 -0.1932
vn 0.0896 0.9531 0.2891
vn 0.2433 0.6765 0.6951
vn 0.3117 0.2271 0.9226
vn 0.2870 -0.2772 0.9169
vn 0.1798 -0.7093 0.6816
vn 0.0179 -0.9608 0.2766
vn -0.1601 -0.9674 -0.1962
vn -0.3144 -0.7220 -0.6163
vn -0.5745 0.2418 -0.7820
vn -0.4863 -0.2643 -0.8328
vn -0.5109 0.6823 -0.5228
vn -0.3045 0.9444 -0.1239
vn -0.0122 0.9493 0.3140
vn 0.2742 0.6898 0.6700
vn 0.4732 0.2444 0.8463
vn 0.5393 -0.2625 0.8001
vn 0.4630 -0.6991 0.5448
vn 0.2661 -0.9529 0.1450
vn -0.0025 -0.9556 -0.2947
vn -0.2766 -0.7035 -0.6546
vn -0.4508 0.2700 -0.8508
vn -0.3271 -0.2173 -0.9196
vn -0.4531 0.6908 -0.5633
vn -0.3278 0.9359 -0.1292
vn -0.0993 0.9357 0.3386
vn 0.1735 0.6818 0.7106
vn 0.4044 0.2395 0.8826
vn 0.5213 -0.2689 0.8099
vn 0.4996 -0.6996 0.5108
vn 0.3565 -0.9318 0.0683
vn 0.1330 -0.9095 -0.3938
vn -0.1149 -0.6473 -0.7535
vn -0.1794 0.3591 -0.9159
vn -0.0192 -0.1119 -0.9935
vn -0.2874 0.7432 -0.6042
vn -0.3116 0.9409 -0.1328
vn -0.2358 0.8947 0.3792
vn -0.0693 0.6081 0.7908
vn 0.1315 0.1519 0.9796
vn 0.2880 -0.3486 0.8919
vn 0.3694 -0.7460 0.5541
vn 0.3716 -0.9261 0.0659
vn 0.2939 -0.8510 -0.4352
vn 0.1525 -0.5523 -0.8195
vn 0.1389 0.4775 -0.8675
vn 0.3356 0.0204 -0.9418
vn -0.0863 0.8177 -0.5691
vn -0.2822 0.9521 -0.1172
vn -0.3933 0.8393 0.3754
vn -0.3805 0.5005 0.7776
vn -0.2447 0.0192 0.9694
vn -0.0366 -0.4686 0.8827
vn 0.1846 -0.8144 0.5501
vn 0.3683 -0.9265 0.0773
vn 0.4668 -0.7860 -0.4053
vn 0.4547 -0.4394 -0.7747
vn 0.3959 0.5784 -0.7132
vn 0.6161 0.1281 -0.7771
vn 0.0797 0.8842 -0.4602
vn -0.2534 0.9641 -0.0794
vn -0.5166 0.7894 0.3317
vn -0.6349 0.3989 0.6616
vn -0.5684 -0.1021 0.8164
vn -0.3323 -0.5722 0.7498
vn 0.0023 -0.8779 0.4788
vn 0.3381 -0.9374 0.0834
vn 0.5859 -0.7428 -0.3240
vn 0.6858 -0.3529 -0.6364
vn 0.5508 0.6379 -0.5382
vn 0.7794 0.1872 -0.5978
vn 0.1837 0.9254 -0.3315
vn -0.2289 0.9730 -0.0300
vn -0.5792 0.7627 0.2876
vn -0.7706 0.3455 0.5355
vn -0.7457 -0.1664 0.6452
vn -0.5079 -0.6312 0.5861
vn -0.1244 -0.9195 0.3728
vn 0.2952 -0.9533 0.0641
vn 0.6362 -0.7286 -0.2536
vn 0.8114 -0.3111 -0.4947
vn 0.6353 0.6641 -0.3942
vn 0.8613 0.2100 -0.4627
vn 0.2468 0.9450 -0.2146
vn -0.2039 0.9785 0.0292
vn -0.5987 0.7529 0.2732
vn -0.8307 0.3247 0.4522
vn -0.8339 -0.1925 0.5173
vn -0.6044 -0.6574 0.4500
vn -0.2050 -0.9414 0.2677
vn 0.2532 -0.9672 0.0200
vn 0.6444 -0.7307 -0.2253
vn 0.8655 -0.2994 -0.4015
vn 0.6850 0.6709 -0.2839
vn 0.9010 0.2141 -0.3773
vn 0.2925 0.9502 -0.1075
vn -0.1736 0.9792 0.1050
vn -0.5916 0.7492 0.2976
vn -0.8501 0.3187 0.4193
vn -0.8771 -0.1993 0.4370
vn -0.6622 -0.6650 0.3453
vn -0.2624 -0.9501 0.1683
vn 0.2121 -0.9761 -0.0465
vn 0.6311 -0.7373 -0.2409
vn 0.8823 -0.3009 -0.3619
vn 0.7199 0.6658 -0.1962
vn 0.9185 0.2106 -0.3346
vn 0.3359 0.9419 0.0033
vn -0.1319 0.9687 0.2100
vn -0.5619 0.7402 0.3692
vn -0.8415 0.3146 0.4392
vn -0.8943 -0.1982 0.4011
vn -0.7016 -0.6615 0.2649
vn -0.3124 -0.9475 0.0670
vn 0.1662 -0.9761 -0.1400
vn 0.6018 -0.7396 -0.3015
vn 0.8765 -0.3041 -0.3732
vn 0.7506 0.6495 -0.1213
vn 0.9198 0.2083 -0.3325
vn 0.3903 0.9109 0.1342
vn -0.0650 0.9296 0.3629
vn -0.4989 0.7047 0.5045
vn -0.8005 0.2936 0.5224
vn -0.8889 -0.2005 0.4117
vn -0.7331 -0.6493 0.2022
vn -0.3672 -0.9290 -0.0469
vn 0.1068 -0.9573 -0.2686
vn 0.5521 -0.7254 -0.4110
vn 0.8486 -0.2970 -0.4378
vn 0.7844 0.6176 -0.0566
vn 0.8995 0.2233 -0.3755
vn 0.4761 0.8291 0.2930
vn 0.0549 0.8172 0.5737
vn -0.3738 0.5925 0.7136
vn -0.7040 0.2122 0.6778
vn -0.8496 -0.2313 0.4740
vn -0.7619 -0.6288 0.1552
vn -0.4435 -0.8773 -0.1833
vn 0.0248 -0.9013 -0.4324
vn 0.4762 -0.6778 -0.5601
vn 0.7887 -0.2590 -0.5576
vn 0.8228 0.5680 -0.0175
vn 0.8356 0.3030 -0.4581
vn 0.6110 0.6619 0.4342
vn 0.2535 0.5754 0.7775
vn -0.1609 0.3371 0.9276
vn -0.5302 0.0074 0.8478
vn -0.7611 -0.3336 0.5562
vn -0.7877 -0.6034 0.1242
vn -0.5850 -0.7399 -0.3320
vn -0.1831 -0.7113 -0.6786
vn 0.2876 -0.4773 -0.8303
vn 0.6480 -0.0836 -0.7570
vn 0.8524 0.5220 -0.0279
vn 0.7266 0.4419 -0.5261
vn 0.7606 0.4483 0.4695
vn 0.4821 0.2494 0.8398
vn 0.0895 -0.0199 0.9958
vn -0.3206 -0.2922 0.9010
vn -0.6466 -0.5006 0.5755
vn -0.8012 -0.5909 0.0947
vn -0.7323 -0.5363 -0.4196
vn -0.4454 -0.3514 -0.8235
vn -0.0218 -0.0780 -0.9967
vn 0.4090 0.2193 -0.8857
vn 0.8617 0.5048 -0.0516
vn 0.6202 0.6029 -0.5019
vn 0.8780 0.2639 0.3994
vn 0.6739 -0.0519 0.7369
vn 0.3056 -0.3613 0.8809
vn -0.1349 -0.5874 0.7980
vn -0.5386 -0.6734 0.5064
vn -0.8010 -0.5940 0.0743
vn -0.8457 -0.3642 -0.3900
vn -0.6495 -0.0410 -0.7592
vn -0.2601 0.2869 -0.9219
vn 0.2091 0.5244 -0.8254
vn 0.8563 0.5117 -0.0704
vn 0.5317 0.7444 -0.4040
vn 0.9531 0.1396 0.2685
vn 0.8062 -0.2717 0.5254
vn 0.4586 -0.6182 0.6383
vn -0.0016 -0.8141 0.5806
vn -0.4598 -0.8092 0.3656
vn -0.7987 -0.6000 0.0445
vn -0.9243 -0.2339 -0.3015
vn -0.7924 0.1950 -0.5779
vn -0.4306 0.5654 -0.7034
vn 0.0588 0.7672 -0.6387
vn 0.8425 0.5341 -0.0707
vn 0.4713 0.8385 -0.2735
vn 0.9863 0.0865 0.1401
vn 0.8726 -0.3834 0.3025
vn 0.5363 -0.7557 0.3757
vn 0.0646 -0.9374 0.3421
vn -0.4236 -0.8812 0.2099
vn -0.8024 -0.5966 0.0118
vn -0.9677 -0.1526 -0.2004
vn -0.8676 0.3335 -0.3688
vn -0.5237 0.7255 -0.4465
vn -0.0308 0.9108 -0.4117
vn 0.8306 0.5546 -0.0507
vn 0.4413 0.8838 -0.1550
vn 0.9954 0.0769 0.0573
vn 0.8968 -0.4198 0.1397
vn 0.5650 -0.8063 0.1752
vn 0.0873 -0.9840 0.1550
vn -0.4133 -0.9067 0.0842
vn -0.8063 -0.5911 -0.0188
vn -0.9850 -0.1170 -0.1268
vn -0.8964 0.3899 -0.2106
vn -0.5608 0.7901 -0.2474
vn -0.0694 0.9714 -0.2271
vn 0.8231 0.5676 -0.0185
vn 0.4272 0.9022 -0.0593
vn 0.9965 0.0812 0.0177
vn 0.9043 -0.4251 0.0397
vn 0.5739 -0.8178 0.0416
vn 0.0935 -0.9953 0.0229
vn -0.4115 -0.9113 -0.0112
vn -0.8085 -0.5861 -0.0519
vn -0.9907 -0.1035 -0.0882
vn -0.9061 0.4085 -0.1102
vn -0.5746 0.8107 -0.1122
vn -0.0854 0.9919 -0.0935
vn 0.8187 0.5738 0.0228
vn 0.4198 0.9073 0.0206
vn 0.9962 0.0870 0.0096
vn 0.9069 -0.4211 -0.0153
vn 0.5770 -0.8155 -0.0453
vn 0.0953 -0.9928 -0.0726
vn -0.4111 -0.9071 -0.0899
vn -0.8090 -0.5804 -0.0925
vn -0.9920 -0.0978 -0.0796
vn -0.9091 0.4129 -0.0544
vn -0.5802 0.8141 -0.0239
vn -0.0930 0.9956 0.0035
vn 0.8153 0.5741 0.0755
vn 0.4145 0.9051 0.0940
vn 0.9956 0.0896 0.0274
vn 0.9083 -0.4166 -0.0372
vn 0.5791 -0.8090 -0.1010
vn 0.0971 -0.9843 -0.1472
vn -0.4096 -0.8975 -0.1635
vn -0.8074 -0.5716 -0.1457
vn -0.9908 -0.0923 -0.0982
vn -0.9096 0.4140 -0.0336
vn -0.5833 0.8116 0.0309
vn -0.0982 0.9921 0.0777
vn 0.8105 0.5672 0.1461
vn 0.4082 0.8969 0.1701
vn 0.9936 0.0858 0.0728
vn 0.9089 -0.4158 -0.0295
vn 0.5814 -0.8026 -0.1335
vn 0.1007 -0.9722 -0.2113
vn -0.4046 -0.8817 -0.2427
vn -0.8015 -0.5563 -0.2193
vn -0.9857 -0.0817 -0.1473
vn -0.9075 0.4175 -0.0454
vn -0.5854 0.8085 0.0592
vn -0.1037 0.9849 0.1383
vn 0.7988 0.5488 0.2464
vn 0.3961 0.8806 0.2601
vn 0.9854 0.0702 0.1553
vn 0.9056 -0.4239 0.0121
vn 0.5835 -0.7991 -0.1447
vn 0.1087 -0.9558 -0.2732
vn -0.3909 -0.8555 -0.3395
vn -0.7842 -0.5275 -0.3265
vn -0.9696 -0.0586 -0.2376
vn -0.8979 0.4296 -0.0959
vn -0.5852 0.8085 0.0616
vn -0.1117 0.9749 0.1923
vn 0.7643 0.5080 0.3971
vn 0.3670 0.8492 0.3797
vn 0.9550 0.0310 0.2950
vn 0.8871 -0.4502 0.1021
vn 0.5819 -0.8027 -0.1304
vn 0.1269 -0.9317 -0.3403
vn -0.3533 -0.8081 -0.4712
vn -0.7341 -0.4704 -0.4897
vn -0.9201 -0.0078 -0.3915
vn -0.8638 0.4617 -0.2015
vn -0.5755 0.8172 0.0317
vn -0.1254 0.9612 0.2455
vn 0.6507 0.4195 0.6329
vn 0.2795 0.7882 0.5483
vn 0.8467 -0.0656 0.5279
vn 0.8094 -0.5247 0.2636
vn 0.5575 -0.8260 -0.0826
vn 0.1699 -0.8939 -0.4147
vn -0.2483 -0.7212 -0.6467
vn -0.5919 -0.3590 -0.7216
vn -0.7766 0.0992 -0.6221
vn -0.7557 0.5382 -0.3731
vn -0.5312 0.8464 -0.0365
vn -0.1546 0.9409 0.3011
vn 0.3741 0.2538 0.8920
vn 0.0743 0.6706 0.7380
vn 0.5717 -0.2376 0.7853
vn 0.6076 -0.6540 0.4507
vn 0.4778 -0.8784 -0.0057
vn 0.2264 -0.8617 -0.4540
vn -0.0763 -0.6203 -0.7806
vn -0.3535 -0.2217 -0.9087
vn -0.5376 0.2338 -0.8101
vn -0.5827 0.6335 -0.5090
vn -0.4751 0.8765 -0.0774
vn -0.2370 0.8947 0.3787
vn 0.0851 0.1020 0.9911
vn -0.1439 0.5450 0.8260
vn 0.2860 -0.3707 0.8836
vn 0.4035 -0.7426 0.5344
vn 0.4051 -0.9133 0.0421
vn 0.2915 -0.8403 -0.4571
vn 0.0959 -0.5485 -0.8306
vn -0.1284 -0.1180 -0.9846
vn -0.3234 0.3400 -0.8830
vn -0.4396 0.7093 -0.5510
vn -0.4459 0.8923 -0.0702
vn -0.3383 0.8344 0.4351
vn -0.0822 0.0269 0.9962
vn -0.2775 0.4834 0.8302
vn 0.1311 -0.4394 0.8887
vn 0.3034 -0.7865 0.5378
vn 0.3874 -0.9209 0.0425
vn 0.3620 -0.8099 -0.4615
vn 0.2359 -0.4873 -0.8407
vn 0.0438 -0.0402 -0.9982
vn -0.1641 0.4151 -0.8949
vn -0.3340 0.7605 -0.5568
vn -0.4212 0.9042 -0.0700
vn -0.4012 0.8043 0.4382
vn -0.2054 -0.0269 0.9783
vn -0.3737 0.4397 0.8167
vn 0.0146 -0.4885 0.8724
vn 0.2259 -0.8184 0.5283
vn 0.3708 -0.9278 0.0415
vn 0.4108 -0.7898 -0.4553
vn 0.3370 -0.4445 -0.8299
vn 0.1700 0.0152 -0.9853
vn -0.0458 0.4688 -0.8821
vn -0.2543 0.7976 -0.5470
vn -0.4005 0.9138 -0.0664
vn -0.4447 0.7840 0.4331
vn -0.2918 -0.0632 0.9544
vn -0.4394 0.4110 0.7988
vn -0.0690 -0.5224 0.8499
vn 0.1680 -0.8413 0.5138
vn 0.3548 -0.9341 0.0384
vn 0.4416 -0.7778 -0.4471
vn 0.4061 -0.4164 -0.8134
vn 0.2588 0.0529 -0.9644
vn 0.0391 0.5062 -0.8615
vn -0.1953 0.8242 -0.5315
vn -0.3826 0.9219 -0.0608
vn -0.4723 0.7714 0.4263
vn -0.3508 -0.0869 0.9324
vn -0.4820 0.3930 0.7830
vn -0.1287 -0.5452 0.8283
vn 0.1240 -0.8578 0.4989
vn 0.3388 -0.9402 0.0338
vn 0.4581 -0.7718 -0.4410
vn 0.4507 -0.3990 -0.7985
vn 0.3193 0.0776 -0.9445
vn 0.0991 0.5318 -0.8410
vn -0.1514 0.8433 -0.5156
vn -0.3661 0.9290 -0.0540
vn -0.4874 0.7648 0.4214
vn -0.3893 -0.1012 0.9155
vn -0.5067 0.3832 0.7722
vn -0.1708 -0.5602 0.8105
vn 0.0896 -0.8698 0.4852
vn 0.3217 -0.9464 0.0277
vn 0.4630 -0.7703 -0.4385
vn 0.4761 -0.3896 -0.7884
vn 0.3580 0.0930 -0.9290
vn 0.1406 0.5491 -0.8238
vn -0.1181 0.8573 -0.5010
vn -0.3497 0.9357 -0.0461
vn -0.4920 0.7626 0.4199
vn -0.4107 -0.1082 0.9053
vn -0.5157 0.3799 0.7679
vn -0.1993 -0.5691 0.7977
vn 0.0616 -0.8786 0.4735
vn 0.3018 -0.9532 0.0199
vn 0.4566 -0.7728 -0.4407
vn 0.4845 -0.3867 -0.7847
vn 0.3785 0.1011 -0.9200
vn 0.1673 0.5600 -0.8114
vn -0.0925 0.8678 -0.4881
vn -0.3318 0.9426 -0.0366
vn -0.4867 0.7643 0.4230
vn -0.4155 -0.1087 0.9030
vn -0.5083 0.3825 0.7715
vn -0.2157 -0.5728 0.7908
vn 0.0378 -0.8850 0.4640
vn 0.2769 -0.9608 0.0100
vn 0.4371 -0.7794 -0.4489
vn 0.4751 -0.3896 -0.7889
vn 0.3809 0.1030 -0.9188
vn 0.1803 0.5661 -0.8043
vn -0.0727 0.8759 -0.4769
vn -0.3105 0.9502 -0.0246
vn -0.4698 0.7697 0.4321
vn -0.4002 -0.1024 0.9107
vn -0.4794 0.3914 0.7854
vn -0.2190 -0.5711 0.7911
vn 0.0162 -0.8892 0.4571
vn 0.2427 -0.9701 -0.0027
vn 0.3990 -0.7906 -0.4645
vn 0.4424 -0.3988 -0.8032
vn 0.3612 0.0989 -0.9272
vn 0.1779 0.5679 -0.8036
vn -0.0576 0.8824 -0.4670
vn -0.2822 0.9593 -0.0085
vn -0.4363 0.7795 0.4493
vn -0.3527 -0.0875 0.9316
vn -0.4146 0.4081 0.8133
vn -0.2032 -0.5627 0.8013
vn -0.0045 -0.8908 0.4544
vn 0.1908 -0.9814 -0.0184
vn 0.3293 -0.8074 -0.4895
vn 0.3721 -0.4149 -0.8303
vn 0.3072 0.0887 -0.9475
vn 0.1531 0.5660 -0.8100
vn -0.0472 0.8882 -0.4570
vn -0.2396 0.9708 0.0146
vn -0.3734 0.7946 0.4786
vn -0.2412 -0.0627 0.9684
vn -0.2773 0.4330 0.8577
vn -0.1497 -0.5452 0.8248
vn -0.0248 -0.8877 0.4598
vn 0.1021 -0.9942 -0.0337
vn 0.1956 -0.8300 -0.5223
vn 0.2273 -0.4375 -0.8700
vn 0.1868 0.0743 -0.9796
vn 0.0871 0.5630 -0.8218
vn -0.0416 0.8952 -0.4436
vn -0.1640 0.9853 0.0485
vn -0.2494 0.8151 0.5228
vn -0.1629 -0.0455 0.9856
vn -0.1825 0.4439 0.8773
vn -0.1100 -0.5296 0.8410
vn -0.0346 -0.8819 0.4702
vn 0.0452 -0.9984 -0.0343
vn 0.1065 -0.8393 -0.5332
vn 0.1288 -0.4466 -0.8854
vn 0.1037 0.0698 -0.9921
vn 0.0404 0.5654 -0.8238
vn -0.0400 0.9017 -0.4306
vn -0.1146 0.9908 0.0722
vn -0.1654 0.8205 0.5471
s 1
f 1/1/1 13/2/2 24/3/3 12/4/4
f 2/5/5 14/6/6 13/7/2 1/8/1
f 3/9/7 15/10/8 14/6/6 2/5/5
f 4/11/9 16/12/10 15/10/8 3/9/7
f 5/13/11 17/14/12 16/12/10 4/11/9
f 6/15/13 18/16/14 17/14/12 5/13/11
f 7/17/15 19/18/16 18/16/14 6/15/13
f 8/19/17 20/20/18 19/18/16 7/17/15
f 9/21/19 21/22/20 20/20/18 8/19/17
f 10/23/21 22/24/22 21/22/20 9/21/19
f 11/25/23 23/26/24 22/24/22 10/23/21
f 12/4/4 24/3/3 23/26/24 11/25/23
f 13/2/2 25/27/25 36/28/26 24/3/3
f 14/6/6 26/29/27 25/30/25 13/7/2
f 15/10/8 27/31/28 26/29/27 14/6/6
f 16/12/10 28/32/29 27/31/28 15/10/8
f 17/14/12 29/33/30 28/32/29 16/12/10
f 18/16/14 30/34/31 29/33/30 17/14/12
f 19/18/16 31/35/32 30/34/31 18/16/14
f 20/20/18 32/36/33 31/35/32 19/18/16
f 21/22/20 33/37/34 32/36/33 20/20/18
f 22/24/22 34/38/35 33/37/34 21/22/20
f 23/26/24 35/39/36 34/38/35 22/24/22
f 24/3/3 36/28/26 35/39/36 23/26/24
f 25/27/25 37/40/37 48/41/38 36/28/26
f 26/29/27 38/42/39 37/43/37 25/30/25
f 27/31/28 39/44/40 38/42/39 26/29/27
f 28/32/29 40/45/41 39/44/40 27/31/28
f 29/33/30 41/46/42 40/45/41 28/32/29
f 30/34/31 42/47/43 41/46/42 29/33/30
f 31/35/32 43/48/44 42/47/43 30/34/31
f 32/36/33 44/49/45 43/48/44 31/35/32
f 33/37/34 45/50/46 44/49/45 32/36/33
f 34/38/35 46/51/47 45/50/46 33/37/34
f 35/39/36 47/52/48 46/51/47 34/38/35
f 36/28/26 48/41/38 47/52/48 35/39/36
f 37/40/37 49/53/49 60/54/50 48/41/38
f 38/42/39 50/55/51 49/56/49 37/43/37
f 39/44/40 51/57/52 50/55/51 38/42/39
f 40/45/41 52/58/53 51/57/52 39/44/40
f 41/46/42 53/59/54 52/58/53 40/45/41
f 42/47/43 54/60/55 53/59/54 41/46/42
f 43/48/44 55/61/56 54/60/55 42/47/43
f 44/49/45 56/62/57 55/61/56 43/48/44
f 45/50/46 57/63/58 56/62/57 44/49/45
f 46/51/47 58/64/59 57/63/58 45/50/46
f 47/52/48 59/65/60 58/64/59 46/51/47
f 48/41/38 60/54/50 59/65/60 47/52/48
f 49/53/49 61/66/61 72/67/62 60/54/50
f 50/55/51 62/68/63 61/69/61 49/56/49
f 51/57/52 63/70/64 62/68/63 50/55/51
f 52/58/53 64/71/65 63/70/64 51/57/52
f 53/59/54 65/72/66 64/71/65 52/58/53
f 54/60/55 66/73/67 65/72/66 53/59/54
f 55/61/56 67/74/68 66/73/67 54/60/55
f 56/62/57 68/75/69 67/74/68 55/61/56
f 57/63/58 69/76/70 68/75/69 56/62/57
f 58/64/59 70/77/71 69/76/70 57/63/58
f 59/65/60 71/78/72 70/77/71 58/64/59
f 60/54/50 72/67/62 71/78/72 59/65/60
f 61/66/61 73/79/73 84/80/74 72/67/62
f 62/68/63 74/81/75 73/82/73 61/69/61
f 63/70/64 75/83/76 74/81/75 62/68/63
f 64/71/65 76/84/77 75/83/76 63/70/64
f 65/72/66 77/85/78 76/84/77 64/71/65
f 66/73/67 78/86/79 77/85/78 65/72/66
f 67/74/68 79/87/80 78/86/79 66/73/67
f 68/75/69 80/88/81 79/87/80 67/74/68
f 69/76/70 81/89/82 80/88/81 68/75/69
f 70/77/71 82/90/83 81/89/82 69/76/70
f 71/78/72 83/91/84 82/90/83 70/77/71
f 72/67/62 84/80/74 83/91/84 71/78/72
f 73/79/73 85/92/85 96/93/86 84/80/74
f 74/81/75 86/94/87 85/95/85 73/82/73
f 75/83/76 87/96/88 86/94/87 74/81/75
f 76/84/77 88/97/89 87/96/88 75/83/76
f 77/85/78 89/98/90 88/97/89 76/84/77
f 78/86/79 90/99/91 89/98/90 77/85/78
f 79/87/80 91/100/92 90/99/91 78/86/79
f 80/88/81 92/101/93 91/100/92 79/87/80
f 81/89/82 93/102/94 92/101/93 80/88/81
f 82/90/83 94/103/95 93/102/94 81/89/82
f 83/91/84 95/104/96 94/103/95 82/90/83
f 84/80/74 96/93/86 95/104/96 83/91/84
f 85/92/85 97/105/97 108/106/98 96/93/86
f 86/94/87 98/107/99 97/108/97 85/95/85
f 87/96/88 99/109/100 98/107/99 86/94/87
f 88/97/89 100/110/101 99/109/100 87/96/88
f 89/98/90 101/111/102 100/110/101 88/97/89
f 90/99/91 102/112/103 101/111/102 89/98/90
f 91/100/92 103/113/104 102/112/103 90/99/91
f 92/101/93 104/114/105 103/113/104 91/100/92
f 93/102/94 105/115/106 104/114/105 92/101/93
f 94/103/95 106/116/107 105/115/106 93/102/94
f 95/104/96 107/117/108 106/116/107 94/103/95
f 96/93/86 108/106/98 107/117/108 95/104/96
f 97/105/97 109/118/109 120/119/110 108/106/98
f 98/107/99 110/120/111 109/121/109 97/108/97
f 99/109/100 111/122/112 110/120/111 98/107/99
f 100/110/101 112/123/113 111/122/112 99/109/100
f 101/111/102 113/124/114 112/123/113 100/110/101
f 102/112/103 114/125/115 113/124/114 101/111/102
f 103/113/104 115/126/116 114/125/115 102/112/103
f 104/114/105 116/127/117 115/126/116 103/113/104
f 105/115/106 117/128/118 116/127/117 104/114/105
f 106/116/107 118/129/119 117/128/118 105/115/106
f 107/117/108 119/130/120 118/129/119 106/116/107
f 108/106/98 120/119/110 119/130/120 107/117/108
f 109/118/109 121/131/121 132/132/122 120/119/110
f 110/120/111 122/133/123 121/134/121 109/121/109
f 111/122/112 123/135/124 122/133/123 110/120/111
f 112/123/113 124/136/125 123/135/124 111/122/112
f 113/124/114 125/137/126 124/136/125 112/123/113
f 114/125/115 126/138/127 125/137/126 113/124/114
f 115/126/116 127/139/128 126/138/127 114/125/115
f 116/127/117 128/140/129 127/139/128 115/126/116
f 117/128/118 129/141/130 128/140/129 116/127/117
f 118/129/119 130/142/131 129/141/130 117/128/118
f 119/130/120 131/143/132 130/142/131 118/129/119
f 120/119/110 132/132/122 131/143/132 119/130/120
f 121/131/121 133/144/133 144/145/134 132/132/122
f 122/133/123 134/146/135 133/147/133 121/134/121
f 123/135/124 135/148/136 134/146/135 122/133/123
f 124/136/125 136/149/137 135/148/136 123/135/124
f 125/137/126 137/150/138 136/149/137 124/136/125
f 126/138/127 138/151/139 137/150/138 125/137/126
f 127/139/128 139/152/140 138/151/139 126/138/127
f 128/140/129 140/153/141 139/152/140 127/139/128
f 129/141/130 141/154/142 140/153/141 128/140/129
f 130/142/131 142/155/143 141/154/142 129/141/130
f 131/143/132 143/156/144 142/155/143 130/142/131
f 132/132/122 144/145/134 143/156/144 131/143/132
f 133/144/133 145/157/145 156/158/146 144/145/134
f 134/146/135 146/159/147 145/160/145 133/147/133
f 135/148/136 147/161/148 146/159/147 134/146/135
f 136/149/137 148/162/149 147/161/148 135/148/136
f 137/150/138 149/163/150 148/162/149 136/149/137
f 138/151/139 150/164/151 149/163/150 137/150/138
f 139/152/140 151/165/152 150/164/151 138/151/139
f 140/153/141 152/166/153 151/165/152 139/152/140
f 141/154/142 153/167/154 152/166/153 140/153/141
f 142/155/143 154/168/155 153/167/154 141/154/142
f 143/156/144 155/169/156 154/168/155 142/155/143
f 144/145/134 156/158/146 155/169/156 143/156/144
f 145/157/145 157/170/157 168/171/158 156/158/146
f 146/159/147 158/172/159 157/173/157 145/160/145
f 147/161/148 159/174/160 158/172/159 146/159/147
f 148/162/149 160/175/161 159/174/160 147/161/148
f 149/163/150 161/176/162 160/175/161 148/162/149
f 150/164/151 162/177/163 161/176/162 149/163/150
f 151/165/152 163/178/164 162/177/163 150/164/151
f 152/166/153 164/179/165 163/178/164 151/165/152
f 153/167/154 165/180/166 164/179/165 152/166/153
f 154/168/155 166/181/167 165/180/166 153/167/154
f 155/169/156 167/182/168 166/181/167 154/168/155
f 156/158/146 168/171/158 167/182/168 155/169/156
f 157/170/157 169/183/169 180/184/170 168/171/158
f 158/172/159 170/185/171 169/186/169 157/173/157
f 159/174/160 171/187/172 170/185/171 158/172/159
f 160/175/161 172/188/173 171/187/172 159/174/160
f 161/176/162 173/189/174 172/188/173 160/175/161
f 162/177/163 174/190/175 173/189/174 161/176/162
f 163/178/164 175/191/176 174/190/175 162/177/163
f 164/179/165 176/192/177 175/191/176 163/178/164
f 165/180/166 177/193/178 176/192/177 164/179/165
f 166/181/167 178/194/179 177/193/178 165/180/166
f 167/182/168 179/195/180 178/194/179 166/181/167
f 168/171/158 180/184/170 179/195/180 167/182/168
f 169/183/169 181/196/181 192/197/182 180/184/170
f 170/185/171 182/198/183 181/199/181 169/186/169
f 171/187/172 183/200/184 182/198/183 170/185/171
f 172/188/173 184/201/185 183/200/184 171/187/172
f 173/189/174 185/202/186 184/201/185 172/188/173
f 174/190/175 186/203/187 185/202/186 173/189/174
f 175/191/176 187/204/188 186/203/187 174/190/175
f 176/192/177 188/205/189 187/204/188 175/191/176
f 177/193/178 189/206/190 188/205/189 176/192/177
f 178/194/179 190/207/191 189/206/190 177/193/178
f 179/195/180 191/208/192 190/207/191 178/194/179
f 180/184/170 192/197/182 191/208/192 179/195/180
f 181/196/181 193/209/193 204/210/194 192/197/182
f 182/198/183 194/211/195 193/212/193 181/199/181
f 183/200/184 195/213/196 194/211/195 182/198/183
f 184/201/185 196/214/197 195/213/196 183/200/184
f 185/202/186 197/215/198 196/214/197 184/201/185
f 186/203/187 198/216/199 197/215/198 185/202/186
f 187/204/188 199/217/200 198/216/199 186/203/187
f 188/205/189 200/218/201 199/217/200 187/204/188
f 189/206/190 201/219/202 200/218/201 188/205/189
f 190/207/191 202/220/203 201/219/202 189/206/190
f 191/208/192 203/221/204 202/220/203 190/207/191
f 192/197/182 204/210/194 203/221/204 191/208/192
f 193/209/193 205/222/205 216/223/206 204/210/194
f 194/211/195 206/224/207 205/225/205 193/212/193
f 195/213/196 207/226/208 206/224/207 194/211/195
f 196/214/197 208/227/209 207/226/208 195/213/196
f 197/215/198 209/228/210 208/227/209 196/214/197
f 198/216/199 210/229/211 209/228/210 197/215/198
f 199/217/200 211/230/212 210/229/211 198/216/199
f 200/218/201 212/231/213 211/230/212 199/217/200
f 201/219/202 213/232/214 212/231/213 200/218/201
f 202/220/203 214/233/215 213/232/214 201/219/202
f 203/221/204 215/234/216 214/233/215 202/220/203
f 204/210/194 216/223/206 215/234/216 203/221/204
f 205/222/205 217/235/217 228/236/218 216/223/206
f 206/224/207 218/237/219 217/238/217 205/225/205
f 207/226/208 219/239/220 218/237/219 206/224/207
f 208/227/209 220/240/221 219/239/220 207/226/208
f 209/228/210 221/241/222 220/240/221 208/227/209
f 210/229/211 222/242/223 221/241/222 209/228/210
f 211/230/212 223/243/224 222/242/223 210/229/211
f 212/231/213 224/244/225 223/243/224 211/230/212
f 213/232/214 225/245/226 224/244/225 212/231/213
f 214/233/215 226/246/227 225/245/226 213/232/214
f 215/234/216 227/247/228 226/246/227 214/233/215
f 216/223/206 228/236/218 227/247/228 215/234/216
f 217/235/217 229/248/229 240/249/230 228/236/218
f 218/237/219 230/250/231 229/251/229 217/238/217
f 219/239/220 231/252/232 230/250/231 218/237/219
f 220/240/221 232/253/233 231/252/232 219/239/220
f 221/241/222 233/254/234 232/253/233 220/240/221
f 222/242/223 234/255/235 233/254/234 221/241/222
f 223/243/224 235/256/236 234/255/235 222/242/223
f 224/244/225 236/257/237 235/256/236 223/243/224
f 225/245/226 237/258/238 236/257/237 224/244/225
f 226/246/227 238/259/239 237/258/238 225/245/226
f 227/247/228 239/260/240 238/259/239 226/246/227
f 228/236/218 240/249/230 239/260/240 227/247/228
f 229/248/229 241/261/241 252/262/242 240/249/230
f 230/250/231 242/263/243 241/264/241 229/251/229
f 231/252/232 243/265/244 242/263/243 230/250/231
f 232/253/233 244/266/245 243/265/244 231/252/232
f 233/254/234 245/267/246 244/266/245 232/253/233
f 234/255/235 246/268/247 245/267/246 233/254/234
f 235/256/236 247/269/248 246/268/247 234/255/235
f 236/257/237 248/270/249 247/269/248 235/256/236
f 237/258/238 249/271/250 248/270/249 236/257/237
f 238/259/239 250/272/251 249/271/250 237/258/238
f 239/260/240 251/273/252 250/272/251 238/259/239
f 240/249/230 252/262/242 251/273/252 239/260/240
f 241/261/241 253/274/253 264/275/254 252/262/242
f 242/263/243 254/276/255 253/277/253 241/264/241
f 243/265/244 255/278/256 254/276/255 242/263/243
f 244/266/245 256/279/257 255/278/256 243/265/244
f 245/267/246 257/280/258 256/279/257 244/266/245
f 246/268/247 258/281/259 257/280/258 245/267/246
f 247/269/248 259/282/260 258/281/259 246/268/247
f 248/270/249 260/283/261 259/282/260 247/269/248
f 249/271/250 261/284/262 260/283/261 248/270/249
f 250/272/251 262/285/263 261/284/262 249/271/250
f 251/273/252 263/286/264 262/285/263 250/272/251
f 252/262/242 264/275/254 263/286/264 251/273/252
f 253/274/253 265/287/265 276/288/266 264/275/254
f 254/276/255 266/289/267 265/290/265 253/277/253
f 255/278/256 267/291/268 266/289/267 254/276/255
f 256/279/257 268/292/269 267/291/268 255/278/256
f 257/280/258 269/293/270 268/292/269 256/279/257
f 258/281/259 270/294/271 269/293/270 257/280/258
f 259/282/260 271/295/272 270/294/271 258/281/259
f 260/283/261 272/296/273 271/295/272 259/282/260
f 261/284/262 273/297/274 272/296/273 260/283/261
f 262/285/263 274/298/275 273/297/274 261/284/262
f 263/286/264 275/299/276 274/298/275 262/285/263
f 264/275/254 276/288/266 275/299/276 263/286/264
f 265/287/265 277/300/277 288/301/278 276/288/266
f 266/289/267 278/302/279 277/303/277 265/290/265
f 267/291/268 279/304/280 278/302/279 266/289/267
f 268/292/269 280/305/281 279/304/280 267/291/268
f 269/293/270 281/306/282 280/305/281 268/292/269
f 270/294/271 282/307/283 281/306/282 269/293/270
f 271/295/272 283/308/284 282/307/283 270/294/271
f 272/296/273 284/309/285 283/308/284 271/295/272
f 273/297/274 285/310/286 284/309/285 272/296/273
f 274/298/275 286/311/287 285/310/286 273/297/274
f 275/299/276 287/312/288 286/311/287 274/298/275
f 276/288/266 288/301/278 287/312/288 275/299/276
f 277/300/277 289/313/289 300/314/290 288/301/278
f 278/302/279 290/315/291 289/316/289 277/303/277
f 279/304/280 291/317/292 290/315/291 278/302/279
f 280/305/281 292/318/293 291/317/292 279/304/280
f 281/306/282 293/319/294 292/318/293 280/305/281
f 282/307/283 294/320/295 293/319/294 281/306/282
f 283/308/284 295/321/296 294/320/295 282/307/283
f 284/309/285 296/322/297 295/321/296 283/308/284
f 285/310/286 297/323/298 296/322/297 284/309/285
f 286/311/287 298/324/299 297/323/298 285/310/286
f 287/312/288 299/325/300 298/324/299 286/311/287
f 288/301/278 300/314/290 299/325/300 287/312/288
f 289/313/289 301/326/301 312/327/302 300/314/290
f 290/315/291 302/328/303 301/329/301 289/316/289
f 291/317/292 303/330/304 302/328/303 290/315/291
f 292/318/293 304/331/305 303/330/304 291/317/292
f 293/319/294 305/332/306 304/331/305 292/318/293
f 294/320/295 306/333/307 305/332/306 293/319/294
f 295/321/296 307/334/308 306/333/307 294/320/295
f 296/322/297 308/335/309 307/334/308 295/321/296
f 297/323/298 309/336/310 308/335/309 296/322/297
f 298/324/299 310/337/311 309/336/310 297/323/298
f 299/325/300 311/338/312 310/337/311 298/324/299
f 300/314/290 312/327/302 311/338/312 299/325/300
f 301/326/301 313/339/313 324/340/314 312/327/302
f 302/328/303 314/341/315 313/342/313 301/329/301
f 303/330/304 315/343/316 314/341/315 302/328/303
f 304/331/305 316/344/317 315/343/316 303/330/304
f 305/332/306 317/345/318 316/344/317 304/331/305
f 306/333/307 318/346/319 317/345/318 305/332/306
f 307/334/308 319/347/320 318/346/319 306/333/307
f 308/335/309 320/348/321 319/347/320 307/334/308
f 309/336/310 321/349/322 320/348/321 308/335/309
f 310/337/311 322/350/323 321/349/322 309/336/310
f 311/338/312 323/351/324 322/350/323 310/337/311
f 312/327/302 324/340/314 323/351/324 311/338/312
f 313/339/313 325/352/325 336/353/326 324/340/314
f 314/341/315 326/354/327 325/355/325 313/342/313
f 315/343/316 327/356/328 326/354/327 314/341/315
f 316/344/317 328/357/329 327/356/328 315/343/316
f 317/345/318 329/358/330 328/357/329 316/344/317
f 318/346/319 330/359/331 329/358/330 317/345/318
f 319/347/320 331/360/332 330/359/331 318/346/319
f 320/348/321 332/361/333 331/360/332 319/347/320
f 321/349/322 333/362/334 332/361/333 320/348/321
f 322/350/323 334/363/335 333/362/334 321/349/322
f 323/351/324 335/364/336 334/363/335 322/350/323
f 324/340/314 336/353/326 335/364/336 323/351/324
f 325/352/325 337/365/337 348/366/338 336/353/326
f 326/354/327 338/367/339 337/368/337 325/355/325
f 327/356/328 339/369/340 338/367/339 326/354/327
f 328/357/329 340/370/341 339/369/340 327/356/328
f 329/358/330 341/371/342 340/370/341 328/357/329
f 330/359/331 342/372/343 341/371/342 329/358/330
f 331/360/332 343/373/344 342/372/343 330/359/331
f 332/361/333 344/374/345 343/373/344 331/360/332
f 333/362/334 345/375/346 344/374/345 332/361/333
f 334/363/335 346/376/347 345/375/346 333/362/334
f 335/364/336 347/377/348 346/376/347 334/363/335
f 336/353/326 348/366/338 347/377/348 335/364/336
f 337/365/337 349/378/349 360/379/350 348/366/338
f 338/367/339 350/380/351 349/381/349 337/368/337
f 339/369/340 351/382/352 350/380/351 338/367/339
f 340/370/341 352/383/353 351/382/352 339/369/340
f 341/371/342 353/384/354 352/383/353 340/370/341
f 342/372/343 354/385/355 353/384/354 341/371/342
f 343/373/344 355/386/356 354/385/355 342/372/343
f 344/374/345 356/387/357 355/386/356 343/373/344
f 345/375/346 357/388/358 356/387/357 344/374/345
f 346/376/347 358/389/359 357/388/358 345/375/346
f 347/377/348 359/390/360 358/389/359 346/376/347
f 348/366/338 360/379/350 359/390/360 347/377/348
f 349/378/349 361/391/361 372/392/362 360/379/350
f 350/380/351 362/393/363 361/394/361 349/381/349
f 351/382/352 363/395/364 362/393/363 350/380/351
f 352/383/353 364/396/365 363/395/364 351/382/352
f 353/384/354 365/397/366 364/396/365 352/383/353
f 354/385/355 366/398/367 365/397/366 353/384/354
f 355/386/356 367/399/368 366/398/367 354/385/355
f 356/387/357 368/400/369 367/399/368 355/386/356
f 357/388/358 369/401/370 368/400/369 356/387/357
f 358/389/359 370/402/371 369/401/370 357/388/358
f 359/390/360 371/403/372 370/402/371 358/389/359
f 360/379/350 372/392/362 371/403/372 359/390/360
f 361/391/361 373/404/373 384/405/374 372/392/362
f 362/393/363 374/406/375 373/407/373 361/394/361
f 363/395/364 375/408/376 374/406/375 362/393/363
f 364/396/365 376/409/377 375/408/376 363/395/364
f 365/397/366 377/410/378 376/409/377 364/396/365
f 366/398/367 378/411/379 377/410/378 365/397/366
f 367/399/368 379/412/380 378/411/379 366/398/367
f 368/400/369 380/413/381 379/412/380 367/399/368
f 369/401/370 381/414/382 380/413/381 368/400/369
f 370/402/371 382/415/383 381/414/382 369/401/370
f 371/403/372 383/416/384 382/415/383 370/402/371
f 372/392/362 384/405/374 383/416/384 371/403/372
f 373/404/373 385/417/385 396/418/386 384/405/374
f 374/406/375 386/419/387 385/420/385 373/407/373
f 375/408/376 387/421/388 386/419/387 374/406/375
f 376/409/377 388/422/389 387/421/388 375/408/376
f 377/410/378 389/423/390 388/422/389 376/409/377
f 378/411/379 390/424/391 389/423/390 377/410/378
f 379/412/380 391/425/392 390/424/391 378/411/379
f 380/413/381 392/426/393 391/425/392 379/412/380
f 381/414/382 393/427/394 392/426/393 380/413/381
f 382/415/383 394/428/395 393/427/394 381/414/382
f 383/416/384 395/429/396 394/428/395 382/415/383
f 384/405/374 396/418/386 395/429/396 383/416/384
f 385/417/385 397/430/397 408/431/398 396/418/386
f 386/419/387 398/432/399 397/433/397 385/420/385
f 387/421/388 399/434/400 398/432/399 386/419/387
f 388/422/389 400/435/401 399/434/400 387/421/388
f 389/423/390 401/436/402 400/435/401 388/422/389
f 390/424/391 402/437/403 401/436/402 389/423/390
f 391/425/392 403/438/404 402/437/403 390/424/391
f 392/426/393 404/439/405 403/438/404 391/425/392
f 393/427/394 405/440/406 404/439/405 392/426/393
f 394/428/395 406/441/407 405/440/406 393/427/394
f 395/429/396 407/442/408 406/441/407 394/428/395
f 396/418/386 408/431/398 407/442/408 395/429/396
f 397/430/397 409/443/409 420/444/410 408/431/398
f 398/432/399 410/445/411 409/446/409 397/433/397
f 399/434/400 411/447/412 410/445/411 398/432/399
f 400/435/401 412/448/413 411/447/412 399/434/400
f 401/436/402 413/449/414 412/448/413 400/435/401
f 402/437/403 414/450/415 413/449/414 401/436/402
f 403/438/404 415/451/416 414/450/415 402/437/403
f 404/439/405 416/452/417 415/451/416 403/438/404
f 405/440/406 417/453/418 416/452/417 404/439/405
f 406/441/407 418/454/419 417/453/418 405/440/406
f 407/442/408 419/455/420 418/454/419 406/441/407
f 408/431/398 420/444/410 419/455/420 407/442/408
f 409/443/409 421/456/421 432/457/422 420/444/410
f 410/445/411 422/458/423 421/459/421 409/446/409
f 411/447/412 423/460/424 422/458/423 410/445/411
f 412/448/413 424/461/425 423/460/424 411/447/412
f 413/449/414 425/462/426 424/461/425 412/448/413
f 414/450/415 426/463/427 425/462/426 413/449/414
f 415/451/416 427/464/428 426/463/427 414/450/415
f 416/452/417 428/465/429 427/464/428 415/451/416
f 417/453/418 429/466/430 428/465/429 416/452/417
f 418/454/419 430/467/431 429/466/430 417/453/418
f 419/455/420 431/468/432 430/467/431 418/454/419
f 420/444/410 432/457/422 431/468/432 419/455/420
f 421/456/421 433/469/433 444/470/434 432/457/422
f 422/458/423 434/471/435 433/472/433 421/459/421
f 423/460/424 435/473/436 434/471/435 422/458/423
f 424/461/425 436/474/437 435/473/436 423/460/424
f 425/462/426 437/475/438 436/474/437 424/461/425
f 426/463/427 438/476/439 437/475/438 425/462/426
f 427/464/428 439/477/440 438/476/439 426/463/427
f 428/465/429 440/478/441 439/477/440 427/464/428
f 429/466/430 441/479/442 440/478/441 428/465/429
f 430/467/431 442/480/443 441/479/442 429/466/430
f 431/468/432 443/481/444 442/480/443 430/467/431
f 432/457/422 444/470/434 443/481/444 431/468/432
f 433/469/433 445/482/445 456/483/446 444/470/434
f 434/471/435 446/484/447 445/485/445 433/472/433
f 435/473/436 447/486/448 446/484/447 434/471/435
f 436/474/437 448/487/449 447/486/448 435/473/436
f 437/475/438 449/488/450 448/487/449 436/474/437
f 438/476/439 450/489/451 449/488/450 437/475/438
f 439/477/440 451/490/452 450/489/451 438/476/439
f 440/478/441 452/491/453 451/490/452 439/477/440
f 441/479/442 453/492/454 452/491/453 440/478/441
f 442/480/443 454/493/455 453/492/454 441/479/442
f 443/481/444 455/494/456 454/493/455 442/480/443
f 444/470/434 456/483/446 455/494/456 443/481/444
f 445/482/445 457/495/457 468/496/458 456/483/446
f 446/484/447 458/497/459 457/498/457 445/485/445
f 447/486/448 459/499/460 458/497/459 446/484/447
f 448/487/449 460/500/461 459/499/460 447/486/448
f 449/488/450 461/501/462 460/500/461 448/487/449
f 450/489/451 462/502/463 461/501/462 449/488/450
f 451/490/452 463/503/464 462/502/463 450/489/451
f 452/491/453 464/504/465 463/503/464 451/490/452
f 453/492/454 465/505/466 464/504/465 452/491/453
f 454/493/455 466/506/467 465/505/466 453/492/454
f 455/494/456 467/507/468 466/506/467 454/493/455
f 456/483/446 468/496/458 467/507/468 455/494/456
f 457/495/457 469/508/469 480/509/470 468/496/458
f 458/497/459 470/510/471 469/511/469 457/498/457
f 459/499/460 471/512/472 470/510/471 458/497/459
f 460/500/461 472/513/473 471/512/472 459/499/460
f 461/501/462 473/514/474 472/513/473 460/500/461
f 462/502/463 474/515/475 473/514/474 461/501/462
f 463/503/464 475/516/476 474/515/475 462/502/463
f 464/504/465 476/517/477 475/516/476 463/503/464
f 465/505/466 477/518/478 476/517/477 464/504/465
f 466/506/467 478/519/479 477/518/478 465/505/466
f 467/507/468 479/520/480 478/519/479 466/506/467
f 468/496/458 480/509/470 479/520/480 467/507/468
f 469/508/469 481/521/481 492/522/482 480/509/470
f 470/510/471 482/523/483 481/524/481 469/511/469
f 471/512/472 483/525/484 482/523/483 470/510/471
f 472/513/473 484/526/485 483/525/484 471/512/472
f 473/514/474 485/527/486 484/526/485 472/513/473
f 474/515/475 486/528/487 485/527/486 473/514/474
f 475/516/476 487/529/488 486/528/487 474/515/475
f 476/517/477 488/530/489 487/529/488 475/516/476
f 477/518/478 489/531/490 488/530/489 476/517/477
f 478/519/479 490/532/491 489/531/490 477/518/478
f 479/520/480 491/533/492 490/532/491 478/519/479
f 480/509/470 492/522/482 491/533/492 479/520/480
f 481/521/481 493/534/493 504/535/494 492/522/482
f 482/523/483 494/536/495 493/537/493 481/524/481
f 483/525/484 495/538/496 494/536/495 482/523/483
f 484/526/485 496/539/497 495/538/496 483/525/484
f 485/527/486 497/540/498 496/539/497 484/526/485
f 486/528/487 498/541/499 497/540/498 485/527/486
f 487/529/488 499/542/500 498/541/499 486/528/487
f 488/530/489 500/543/501 499/542/500 487/529/488
f 489/531/490 501/544/502 500/543/501 488/530/489
f 490/532/491 502/545/503 501/544/502 489/531/490
f 491/533/492 503/546/504 502/545/503 490/532/491
f 492/522/482 504/535/494 503/546/504 491/533/492
f 493/534/493 505/547/505 516/548/506 504/535/494
f 494/536/495 506/549/507 505/550/505 493/537/493
f 495/538/496 507/551/508 506/549/507 494/536/495
f 496/539/497 508/552/509 507/551/508 495/538/496
f 497/540/498 509/553/510 508/552/509 496/539/497
f 498/541/499 510/554/511 509/553/510 497/540/498
f 499/542/500 511/555/512 510/554/511 498/541/499
f 500/543/501 512/556/513 511/555/512 499/542/500
f 501/544/502 513/557/514 512/556/513 500/543/501
f 502/545/503 514/558/515 513/557/514 501/544/502
f 503/546/504 515/559/516 514/558/515 502/545/503
f 504/535/494 516/548/506 515/559/516 503/546/504
f 505/547/505 517/560/517 528/561/518 516/548/506
f 506/549/507 518/562/519 517/563/517 505/550/505
f 507/551/508 519/564/520 518/562/519 506/549/507
f 508/552/509 520/565/521 519/564/520 507/551/508
f 509/553/510 521/566/522 520/565/521 508/552/509
f 510/554/511 522/567/523 521/566/522 509/553/510
f 511/555/512 523/568/524 522/567/523 510/554/511
f 512/556/513 524/569/525 523/568/524 511/555/512
f 513/557/514 525/570/526 524/569/525 512/556/513
f 514/558/515 526/571/527 525/570/526 513/557/514
f 515/559/516 527/572/528 526/571/527 514/558/515
f 516/548/506 528/561/518 527/572/528 515/559/516
f 517/560/517 529/573/529 540/574/530 528/561/518
f 518/562/519 530/575/531 529/576/529 517/563/517
f 519/564/520 531/577/532 530/575/531 518/562/519
f 520/565/521 532/578/533 531/577/532 519/564/520
f 521/566/522 533/579/534 532/578/533 520/565/521
f 522/567/523 534/580/535 533/579/534 521/566/522
f 523/568/524 535/581/536 534/580/535 522/567/523
f 524/569/525 536/582/537 535/581/536 523/568/524
f 525/570/526 537/583/538 536/582/537 524/569/525
f 526/571/527 538/584/539 537/583/538 525/570/526
f 527/572/528 539/585/540 538/584/539 526/571/527
f 528/561/518 540/574/530 539/585/540 527/572/528
f 529/573/529 541/586/541 552/587/542 540/574/530
f 530/575/531 542/588/543 541/589/541 529/576/529
f 531/577/532 543/590/544 542/588/543 530/575/531
f 532/578/533 544/591/545 543/590/544 531/577/532
f 533/579/534 545/592/546 544/591/545 532/578/533
f 534/580/535 546/593/547 545/592/546 533/579/534
f 535/581/536 547/594/548 546/593/547 534/580/535
f 536/582/537 548/595/549 547/594/548 535/581/536
f 537/583/538 549/596/550 548/595/549 536/582/537
f 538/584/539 550/597/551 549/596/550 537/583/538
f 539/585/540 551/598/552 550/597/551 538/584/539
f 540/574/530 552/587/542 551/598/552 539/585/540
f 541/586/541 553/599/553 564/600/554 552/587/542
f 542/588/543 554/601/555 553/602/553 541/589/541
f 543/590/544 555/603/556 554/601/555 542/588/543
f 544/591/545 556/604/557 555/603/556 543/590/544
f 545/592/546 557/605/558 556/604/557 544/591/545
f 546/593/547 558/606/559 557/605/558 545/592/546
f 547/594/548 559/607/560 558/606/559 546/593/547
f 548/595/549 560/608/561 559/607/560 547/594/548
f 549/596/550 561/609/562 560/608/561 548/595/549
f 550/597/551 562/610/563 561/609/562 549/596/550
f 551/598/552 563/611/564 562/610/563 550/597/551
f 552/587/542 564/600/554 563/611/564 551/598/552
f 553/599/553 565/612/565 576/613/566 564/600/554
f 554/601/555 566/614/567 565/615/565 553/602/553
f 555/603/556 567/616/568 566/614/567 554/601/555
f 556/604/557 568/617/569 567/616/568 555/603/556
f 557/605/558 569/618/570 568/617/569 556/604/557
f 558/606/559 570/619/571 569/618/570 557/605/558
f 559/607/560 571/620/572 570/619/571 558/606/559
f 560/608/561 572/621/573 571/620/572 559/607/560
f 561/609/562 573/622/574 572/621/573 560/608/561
f 562/610/563 574/623/575 573/622/574 561/609/562
f 563/611/564 575/624/576 574/623/575 562/610/563
f 564/600/554 576/613/566 575/624/576 563/611/564
f 565/612/565 577/625/577 588/626/578 576/613/566
f 566/614/567 578/627/579 577/628/577 565/615/565
f 567/616/568 579/629/580 578/627/579 566/614/567
f 568/617/569 580/630/581 579/629/580 567/616/568
f 569/618/570 581/631/582 580/630/581 568/617/569
f 570/619/571 582/632/583 581/631/582 569/618/570
f 571/620/572 583/633/584 582/632/583 570/619/571
f 572/621/573 584/634/585 583/633/584 571/620/572
f 573/622/574 585/635/586 584/634/585 572/621/573
f 574/623/575 586/636/587 585/635/586 573/622/574
f 575/624/576 587/637/588 586/636/587 574/623/575
f 576/613/566 588/626/578 587/637/588 575/624/576
