# Blender v2.93.3 OBJ File: 'untitled.blend'
# www.blender.org
o BezierCircle.013_BezierCircle.010
v -46.072872 0.666359 44.777828
v -46.072872 1.154168 44.290020
v -46.072872 1.332719 43.623657
v -46.072872 1.154169 42.957298
v -46.072872 0.666360 42.469490
v -46.072872 0.000001 42.290939
v -46.072872 -0.666358 42.469490
v -46.072872 -1.154168 42.957298
v -46.072872 -1.332719 43.623657
v -46.072872 -1.154169 44.290016
v -46.072872 -0.666361 44.777828
v -46.072872 -0.000001 44.956379
v -47.871170 0.666359 44.656776
v -47.805794 1.154168 44.173370
v -47.716484 1.332719 43.513023
v -47.627178 1.154169 42.852676
v -47.561798 0.666360 42.369267
v -47.537868 0.000001 42.192326
v -47.561798 -0.666358 42.369263
v -47.627178 -1.154168 42.852673
v -47.716484 -1.332719 43.513020
v -47.805794 -1.154169 44.173370
v -47.871170 -0.666361 44.656776
v -47.895100 -0.000001 44.833717
v -49.598679 0.666359 44.303703
v -49.469490 1.154168 43.833309
v -49.293015 1.332719 43.190742
v -49.116539 1.154169 42.548176
v -48.987354 0.666360 42.077785
v -48.940067 0.000001 41.905609
v -48.987350 -0.666358 42.077785
v -49.116539 -1.154168 42.548176
v -49.293015 -1.332719 43.190742
v -49.469490 -1.154169 43.833309
v -49.598675 -0.666361 44.303699
v -49.645962 -0.000001 44.475876
v -51.237247 0.666359 43.734432
v -51.047379 1.154168 43.285091
v -50.788006 1.332719 42.671280
v -50.528633 1.154169 42.057472
v -50.338760 0.666360 41.608131
v -50.269264 0.000001 41.443665
v -50.338760 -0.666359 41.608131
v -50.528633 -1.154168 42.057472
v -50.788006 -1.332719 42.671280
v -51.047375 -1.154169 43.285088
v -51.237247 -0.666361 43.734428
v -51.306747 -0.000001 43.898899
v -52.770126 0.666359 42.965118
v -52.523670 1.154168 42.544147
v -52.187000 1.332719 41.969093
v -51.850334 1.154169 41.394035
v -51.603878 0.666360 40.973064
v -51.513668 0.000001 40.818977
v -51.603878 -0.666359 40.973064
v -51.850334 -1.154168 41.394035
v -52.187000 -1.332719 41.969090
v -52.523666 -1.154169 42.544147
v -52.770126 -0.666361 42.965118
v -52.860336 -0.000001 43.119205
v -54.181320 0.666359 42.011860
v -53.883026 1.154168 41.625885
v -53.475548 1.332719 41.098629
v -53.068069 1.154169 40.571377
v -52.769775 0.666360 40.185402
v -52.660591 0.000001 40.044121
v -52.769775 -0.666358 40.185398
v -53.068069 -1.154168 40.571373
v -53.475548 -1.332719 41.098629
v -53.883026 -1.154169 41.625881
v -54.181320 -0.666361 42.011860
v -54.290504 -0.000001 42.153137
v -55.455307 0.666359 40.890472
v -55.110374 1.154168 40.545536
v -54.639191 1.332719 40.074348
v -54.167999 1.154169 39.603165
v -53.823067 0.666360 39.258228
v -53.696815 0.000001 39.131973
v -53.823067 -0.666358 39.258228
v -54.167999 -1.154168 39.603161
v -54.639187 -1.332719 40.074348
v -55.110374 -1.154169 40.545536
v -55.455307 -0.666361 40.890469
v -55.581562 -0.000001 41.016724
v -56.576698 0.666359 39.616482
v -56.190723 1.154168 39.318188
v -55.663467 1.332719 38.910709
v -55.136215 1.154169 38.503231
v -54.750237 0.666360 38.204937
v -54.608963 0.000001 38.095753
v -54.750237 -0.666358 38.204937
v -55.136215 -1.154168 38.503231
v -55.663467 -1.332719 38.910709
v -56.190720 -1.154169 39.318188
v -56.576698 -0.666361 39.616482
v -56.717976 -0.000001 39.725666
v -57.529961 0.666359 38.205288
v -57.108986 1.154168 37.958828
v -56.533932 1.332719 37.622162
v -55.958874 1.154169 37.285496
v -55.537903 0.666360 37.039040
v -55.383820 0.000001 36.948830
v -55.537903 -0.666358 37.039040
v -55.958874 -1.154168 37.285496
v -56.533928 -1.332719 37.622162
v -57.108986 -1.154169 37.958828
v -57.529957 -0.666361 38.205288
v -57.684044 -0.000001 38.295498
v -58.299271 0.666359 36.672409
v -57.849930 1.154168 36.482536
v -57.236122 1.332719 36.223167
v -56.622311 1.154169 35.963795
v -56.172974 0.666360 35.773922
v -56.008503 0.000001 35.704426
v -56.172970 -0.666358 35.773922
v -56.622311 -1.154168 35.963795
v -57.236118 -1.332719 36.223167
v -57.849930 -1.154169 36.482536
v -58.299267 -0.666361 36.672409
v -58.463737 -0.000001 36.741905
v -58.868538 0.666359 35.033836
v -58.398148 1.154168 34.904648
v -57.755585 1.332719 34.728176
v -57.113014 1.154169 34.551701
v -56.642624 0.666360 34.422512
v -56.470448 0.000001 34.375225
v -56.642624 -0.666358 34.422512
v -57.113014 -1.154168 34.551701
v -57.755581 -1.332719 34.728172
v -58.398148 -1.154169 34.904648
v -58.868538 -0.666361 35.033836
v -59.040714 -0.000001 35.081123
v -59.221615 0.666359 33.306332
v -58.738209 1.154168 33.240952
v -58.077862 1.332719 33.151646
v -57.417511 1.154169 33.062336
v -56.934105 0.666360 32.996960
v -56.757164 0.000001 32.973026
v -56.934105 -0.666358 32.996960
v -57.417511 -1.154168 33.062336
v -58.077858 -1.332719 33.151646
v -58.738205 -1.154169 33.240952
v -59.221615 -0.666361 33.306332
v -59.398556 -0.000001 33.330261
v -59.342667 0.666359 31.508032
v -58.854858 1.154168 31.508032
v -58.188499 1.332719 31.508032
v -57.522141 1.154169 31.508032
v -57.034332 0.666360 31.508032
v -56.855782 0.000001 31.508032
v -57.034332 -0.666358 31.508032
v -57.522141 -1.154168 31.508032
v -58.188499 -1.332719 31.508032
v -58.854858 -1.154169 31.508032
v -59.342667 -0.666361 31.508032
v -59.521217 -0.000001 31.508032
v -59.221619 0.666359 29.709732
v -58.738209 1.154168 29.775110
v -58.077862 1.332719 29.864420
v -57.417515 1.154169 29.953728
v -56.934105 0.666360 30.019106
v -56.757164 0.000001 30.043036
v -56.934105 -0.666358 30.019106
v -57.417511 -1.154168 29.953728
v -58.077858 -1.332719 29.864420
v -58.738209 -1.154169 29.775110
v -59.221619 -0.666361 29.709732
v -59.398556 -0.000001 29.685802
v -58.868542 0.666359 27.982227
v -58.398151 1.154168 28.111416
v -57.755585 1.332719 28.287889
v -57.113018 1.154169 28.464363
v -56.642624 0.666360 28.593552
v -56.470451 0.000001 28.640839
v -56.642624 -0.666358 28.593552
v -57.113014 -1.154168 28.464363
v -57.755581 -1.332719 28.287889
v -58.398148 -1.154169 28.111416
v -58.868542 -0.666361 27.982227
v -59.040718 -0.000001 27.934940
v -58.299271 0.666359 26.343655
v -57.849930 1.154168 26.533527
v -57.236122 1.332719 26.792898
v -56.622314 1.154169 27.052269
v -56.172974 0.666360 27.242142
v -56.008503 0.000001 27.311640
v -56.172974 -0.666358 27.242142
v -56.622311 -1.154168 27.052269
v -57.236122 -1.332719 26.792900
v -57.849930 -1.154169 26.533527
v -58.299271 -0.666361 26.343655
v -58.463741 -0.000001 26.274157
v -57.529961 0.666359 24.810778
v -57.108990 1.154168 25.057236
v -56.533932 1.332719 25.393902
v -55.958878 1.154169 25.730568
v -55.537903 0.666360 25.977028
v -55.383820 0.000001 26.067238
v -55.537903 -0.666358 25.977028
v -55.958874 -1.154168 25.730570
v -56.533932 -1.332719 25.393902
v -57.108986 -1.154169 25.057236
v -57.529961 -0.666361 24.810778
v -57.684044 -0.000001 24.720568
v -56.576698 0.666359 23.399582
v -56.190723 1.154168 23.697876
v -55.663471 1.332719 24.105354
v -55.136215 1.154169 24.512835
v -54.750240 0.666360 24.811129
v -54.608963 0.000001 24.920313
v -54.750237 -0.666358 24.811131
v -55.136215 -1.154168 24.512835
v -55.663467 -1.332719 24.105356
v -56.190723 -1.154169 23.697878
v -56.576698 -0.666361 23.399582
v -56.717979 -0.000001 23.290400
v -55.455311 0.666359 22.125595
v -55.110378 1.154168 22.470528
v -54.639191 1.332719 22.941715
v -54.168003 1.154169 23.412903
v -53.823071 0.666360 23.757835
v -53.696815 0.000001 23.884090
v -53.823071 -0.666358 23.757835
v -54.167999 -1.154168 23.412903
v -54.639191 -1.332719 22.941715
v -55.110374 -1.154169 22.470528
v -55.455311 -0.666361 22.125595
v -55.581566 -0.000001 21.999340
v -54.181320 0.666359 21.004204
v -53.883026 1.154168 21.390182
v -53.475552 1.332719 21.917435
v -53.068073 1.154169 22.444689
v -52.769775 0.666360 22.830666
v -52.660595 0.000001 22.971943
v -52.769775 -0.666358 22.830666
v -53.068069 -1.154168 22.444691
v -53.475548 -1.332719 21.917439
v -53.883026 -1.154169 21.390182
v -54.181320 -0.666361 21.004208
v -54.290504 -0.000001 20.862928
v -52.770126 0.666359 20.050945
v -52.523670 1.154168 20.471916
v -52.187004 1.332719 21.046972
v -51.850334 1.154169 21.622028
v -51.603878 0.666360 22.042999
v -51.513668 0.000001 22.197086
v -51.603878 -0.666358 22.043001
v -51.850334 -1.154168 21.622032
v -52.187000 -1.332719 21.046974
v -52.523666 -1.154169 20.471918
v -52.770126 -0.666361 20.050945
v -52.860336 -0.000001 19.896860
v -51.237251 0.666359 19.281635
v -51.047379 1.154168 19.730974
v -50.788006 1.332719 20.344784
v -50.528637 1.154169 20.958591
v -50.338764 0.666360 21.407932
v -50.269264 0.000001 21.572403
v -50.338764 -0.666358 21.407932
v -50.528633 -1.154168 20.958595
v -50.788006 -1.332719 20.344784
v -51.047375 -1.154169 19.730976
v -51.237247 -0.666361 19.281635
v -51.306747 -0.000001 19.117165
v -49.598679 0.666359 18.712364
v -49.469490 1.154168 19.182755
v -49.293015 1.332719 19.825321
v -49.116543 1.154169 20.467888
v -48.987354 0.666360 20.938280
v -48.940067 0.000001 21.110455
v -48.987354 -0.666359 20.938282
v -49.116539 -1.154168 20.467890
v -49.293015 -1.332719 19.825323
v -49.469490 -1.154169 19.182756
v -49.598675 -0.666361 18.712364
v -49.645962 -0.000001 18.540188
v -47.871170 0.666359 18.359287
v -47.805794 1.154168 18.842695
v -47.716484 1.332719 19.503044
v -47.627178 1.154169 20.163391
v -47.561798 0.666360 20.646801
v -47.537868 0.000001 20.823738
v -47.561798 -0.666358 20.646801
v -47.627178 -1.154168 20.163393
v -47.716484 -1.332719 19.503044
v -47.805794 -1.154169 18.842697
v -47.871170 -0.666361 18.359287
v -47.895100 -0.000001 18.182350
v -46.072872 0.666359 18.238235
v -46.072872 1.154168 18.726044
v -46.072872 1.332719 19.392405
v -46.072872 1.154169 20.058764
v -46.072872 0.666360 20.546574
v -46.072872 0.000001 20.725124
v -46.072872 -0.666358 20.546574
v -46.072872 -1.154168 20.058765
v -46.072872 -1.332719 19.392406
v -46.072872 -1.154169 18.726046
v -46.072872 -0.666360 18.238235
v -46.072872 -0.000001 18.059685
v -44.274574 0.666359 18.359287
v -44.339951 1.154168 18.842693
v -44.429260 1.332719 19.503042
v -44.518566 1.154169 20.163389
v -44.583946 0.666360 20.646797
v -44.607876 0.000001 20.823738
v -44.583946 -0.666358 20.646799
v -44.518566 -1.154168 20.163391
v -44.429260 -1.332719 19.503044
v -44.339951 -1.154169 18.842695
v -44.274574 -0.666361 18.359287
v -44.250645 -0.000001 18.182348
v -42.547070 0.666359 18.712362
v -42.676254 1.154168 19.182755
v -42.852730 1.332719 19.825321
v -43.029205 1.154169 20.467886
v -43.158390 0.666360 20.938278
v -43.205677 0.000001 21.110455
v -43.158394 -0.666358 20.938278
v -43.029205 -1.154168 20.467888
v -42.852730 -1.332719 19.825321
v -42.676254 -1.154169 19.182755
v -42.547070 -0.666361 18.712364
v -42.499783 -0.000001 18.540188
v -40.908497 0.666359 19.281631
v -41.098366 1.154168 19.730972
v -41.357738 1.332719 20.344782
v -41.617111 1.154169 20.958591
v -41.806984 0.666360 21.407930
v -41.876480 0.000001 21.572401
v -41.806984 -0.666359 21.407932
v -41.617111 -1.154168 20.958591
v -41.357738 -1.332719 20.344784
v -41.098370 -1.154169 19.730974
v -40.908497 -0.666361 19.281635
v -40.838997 -0.000001 19.117165
v -39.375618 0.666359 20.050945
v -39.622074 1.154168 20.471916
v -39.958744 1.332719 21.046970
v -40.295410 1.154169 21.622028
v -40.541866 0.666360 22.042999
v -40.632076 0.000001 22.197086
v -40.541866 -0.666358 22.042999
v -40.295410 -1.154168 21.622028
v -39.958744 -1.332719 21.046974
v -39.622078 -1.154169 20.471916
v -39.375618 -0.666360 20.050945
v -39.285408 -0.000001 19.896858
v -37.964424 0.666359 21.004204
v -38.262718 1.154168 21.390181
v -38.670197 1.332719 21.917435
v -39.077675 1.154169 22.444687
v -39.375969 0.666360 22.830664
v -39.485153 0.000001 22.971943
v -39.375969 -0.666358 22.830666
v -39.077675 -1.154168 22.444689
v -38.670197 -1.332719 21.917435
v -38.262718 -1.154169 21.390182
v -37.964424 -0.666361 21.004204
v -37.855240 -0.000001 20.862926
v -36.690437 0.666359 22.125595
v -37.035370 1.154168 22.470528
v -37.506554 1.332719 22.941713
v -37.977745 1.154169 23.412901
v -38.322678 0.666360 23.757833
v -38.448929 0.000001 23.884089
v -38.322678 -0.666358 23.757835
v -37.977745 -1.154168 23.412903
v -37.506557 -1.332719 22.941715
v -37.035370 -1.154169 22.470528
v -36.690437 -0.666361 22.125595
v -36.564182 -0.000001 21.999340
v -35.569046 0.666359 23.399582
v -35.955021 1.154168 23.697876
v -36.482277 1.332719 24.105354
v -37.009529 1.154169 24.512833
v -37.395508 0.666360 24.811127
v -37.536781 0.000001 24.920311
v -37.395508 -0.666358 24.811127
v -37.009529 -1.154168 24.512833
v -36.482277 -1.332719 24.105354
v -35.955025 -1.154169 23.697876
v -35.569046 -0.666361 23.399582
v -35.427769 -0.000001 23.290398
v -34.615784 0.666359 24.810778
v -35.036758 1.154168 25.057234
v -35.611813 1.332719 25.393902
v -36.186871 1.154169 25.730568
v -36.607841 0.666360 25.977026
v -36.761925 0.000001 26.067236
v -36.607841 -0.666358 25.977026
v -36.186871 -1.154168 25.730568
v -35.611816 -1.332719 25.393902
v -35.036758 -1.154169 25.057236
v -34.615788 -0.666361 24.810778
v -34.461700 -0.000001 24.720568
v -33.846474 0.666359 26.343655
v -34.295815 1.154168 26.533527
v -34.909622 1.332719 26.792898
v -35.523434 1.154169 27.052269
v -35.972771 0.666360 27.242142
v -36.137241 0.000001 27.311640
v -35.972775 -0.666358 27.242142
v -35.523434 -1.154168 27.052269
v -34.909626 -1.332719 26.792898
v -34.295815 -1.154169 26.533527
v -33.846478 -0.666361 26.343655
v -33.682007 -0.000001 26.274157
v -33.277206 0.666359 27.982227
v -33.747597 1.154168 28.111416
v -34.390160 1.332719 28.287889
v -35.032730 1.154169 28.464363
v -35.503120 0.666360 28.593552
v -35.675297 0.000001 28.640837
v -35.503120 -0.666358 28.593552
v -35.032730 -1.154168 28.464363
v -34.390163 -1.332719 28.287889
v -33.747597 -1.154169 28.111416
v -33.277206 -0.666361 27.982227
v -33.105030 -0.000001 27.934940
v -32.924129 0.666359 29.709732
v -33.407536 1.154168 29.775110
v -34.067883 1.332719 29.864420
v -34.728233 1.154169 29.953728
v -35.211639 0.666360 30.019106
v -35.388580 0.000001 30.043036
v -35.211639 -0.666358 30.019106
v -34.728233 -1.154168 29.953728
v -34.067886 -1.332719 29.864420
v -33.407539 -1.154169 29.775110
v -32.924129 -0.666361 29.709732
v -32.747189 -0.000001 29.685802
v -32.803078 0.666359 31.508032
v -33.290886 1.154168 31.508032
v -33.957245 1.332719 31.508032
v -34.623604 1.154169 31.508032
v -35.111412 0.666360 31.508032
v -35.289963 0.000001 31.508032
v -35.111412 -0.666358 31.508032
v -34.623604 -1.154168 31.508032
v -33.957245 -1.332719 31.508032
v -33.290886 -1.154169 31.508032
v -32.803078 -0.666361 31.508032
v -32.624527 -0.000001 31.508032
v -32.924126 0.666359 33.306332
v -33.407536 1.154168 33.240952
v -34.067883 1.332719 33.151646
v -34.728230 1.154169 33.062336
v -35.211639 0.666360 32.996960
v -35.388580 0.000001 32.973030
v -35.211639 -0.666358 32.996960
v -34.728233 -1.154168 33.062336
v -34.067886 -1.332719 33.151646
v -33.407536 -1.154169 33.240952
v -32.924126 -0.666361 33.306332
v -32.747189 -0.000001 33.330261
v -33.277203 0.666359 35.033836
v -33.747593 1.154168 34.904648
v -34.390160 1.332719 34.728176
v -35.032726 1.154169 34.551701
v -35.503120 0.666360 34.422512
v -35.675293 0.000001 34.375225
v -35.503120 -0.666358 34.422512
v -35.032730 -1.154168 34.551701
v -34.390163 -1.332719 34.728172
v -33.747597 -1.154169 34.904648
v -33.277203 -0.666361 35.033836
v -33.105026 -0.000001 35.081123
v -33.846474 0.666359 36.672409
v -34.295815 1.154168 36.482536
v -34.909622 1.332719 36.223167
v -35.523430 1.154169 35.963795
v -35.972771 0.666360 35.773922
v -36.137241 0.000001 35.704422
v -35.972771 -0.666358 35.773922
v -35.523434 -1.154168 35.963795
v -34.909622 -1.332719 36.223164
v -34.295815 -1.154169 36.482536
v -33.846474 -0.666361 36.672409
v -33.682003 -0.000001 36.741905
v -34.615784 0.666359 38.205288
v -35.036755 1.154168 37.958828
v -35.611813 1.332719 37.622162
v -36.186867 1.154169 37.285496
v -36.607841 0.666360 37.039036
v -36.761925 0.000001 36.948826
v -36.607841 -0.666358 37.039036
v -36.186871 -1.154168 37.285492
v -35.611813 -1.332719 37.622162
v -35.036758 -1.154169 37.958828
v -34.615784 -0.666361 38.205284
v -34.461700 -0.000001 38.295494
v -35.569046 0.666359 39.616482
v -35.955021 1.154168 39.318184
v -36.482273 1.332719 38.910709
v -37.009529 1.154169 38.503231
v -37.395504 0.666360 38.204933
v -37.536781 0.000001 38.095749
v -37.395504 -0.666358 38.204933
v -37.009529 -1.154168 38.503227
v -36.482277 -1.332719 38.910706
v -35.955021 -1.154169 39.318184
v -35.569046 -0.666361 39.616482
v -35.427769 -0.000001 39.725662
v -36.690434 0.666359 40.890469
v -37.035366 1.154168 40.545536
v -37.506554 1.332719 40.074348
v -37.977741 1.154169 39.603161
v -38.322674 0.666360 39.258228
v -38.448929 0.000001 39.131973
v -38.322674 -0.666358 39.258228
v -37.977745 -1.154168 39.603161
v -37.506554 -1.332719 40.074348
v -37.035370 -1.154169 40.545536
v -36.690434 -0.666361 40.890469
v -36.564178 -0.000001 41.016724
v -37.964424 0.666359 42.011860
v -38.262718 1.154168 41.625881
v -38.670193 1.332719 41.098629
v -39.077671 1.154169 40.571373
v -39.375969 0.666360 40.185398
v -39.485149 0.000001 40.044121
v -39.375969 -0.666358 40.185398
v -39.077675 -1.154168 40.571373
v -38.670197 -1.332719 41.098625
v -38.262718 -1.154169 41.625881
v -37.964424 -0.666361 42.011856
v -37.855240 -0.000001 42.153137
v -39.375618 0.666359 42.965118
v -39.622074 1.154168 42.544147
v -39.958740 1.332719 41.969093
v -40.295410 1.154169 41.394035
v -40.541866 0.666360 40.973064
v -40.632076 0.000001 40.818977
v -40.541866 -0.666358 40.973061
v -40.295410 -1.154168 41.394032
v -39.958744 -1.332719 41.969090
v -39.622078 -1.154169 42.544144
v -39.375618 -0.666361 42.965118
v -39.285408 -0.000001 43.119202
v -40.908497 0.666359 43.734428
v -41.098366 1.154168 43.285088
v -41.357738 1.332719 42.671280
v -41.617107 1.154169 42.057472
v -41.806980 0.666360 41.608131
v -41.876480 0.000001 41.443661
v -41.806980 -0.666358 41.608131
v -41.617111 -1.154168 42.057468
v -41.357738 -1.332719 42.671280
v -41.098370 -1.154169 43.285088
v -40.908497 -0.666361 43.734428
v -40.838997 -0.000001 43.898899
v -42.547066 0.666359 44.303699
v -42.676254 1.154168 43.833309
v -42.852730 1.332719 43.190742
v -43.029202 1.154169 42.548176
v -43.158390 0.666360 42.077782
v -43.205677 0.000001 41.905609
v -43.158390 -0.666358 42.077782
v -43.029205 -1.154168 42.548172
v -42.852730 -1.332719 43.190742
v -42.676254 -1.154169 43.833305
v -42.547070 -0.666361 44.303699
v -42.499783 -0.000001 44.475876
v -44.274574 0.666359 44.656776
v -44.339951 1.154168 44.173370
v -44.429260 1.332719 43.513020
v -44.518566 1.154169 42.852673
v -44.583946 0.666360 42.369263
v -44.607876 0.000001 42.192326
v -44.583946 -0.666358 42.369263
v -44.518566 -1.154168 42.852669
v -44.429260 -1.332719 43.513020
v -44.339951 -1.154169 44.173367
v -44.274574 -0.666361 44.656776
v -44.250645 -0.000001 44.833714
vt 0.000000 1.000000
vt 0.020833 1.000000
vt 0.020833 0.916667
vt 0.000000 0.916667
vt 0.000000 0.083333
vt 0.020833 0.083333
vt 0.020833 0.000000
vt 0.000000 0.000000
vt 0.000000 0.166667
vt 0.020833 0.166667
vt 0.000000 0.250000
vt 0.020833 0.250000
vt 0.000000 0.333333
vt 0.020833 0.333333
vt 0.000000 0.416667
vt 0.020833 0.416667
vt 0.000000 0.500000
vt 0.020833 0.500000
vt 0.000000 0.583333
vt 0.020833 0.583333
vt 0.000000 0.666667
vt 0.020833 0.666667
vt 0.000000 0.750000
vt 0.020833 0.750000
vt 0.000000 0.833333
vt 0.020833 0.833333
vt 0.041667 1.000000
vt 0.041667 0.916667
vt 0.041667 0.083333
vt 0.041667 0.000000
vt 0.041667 0.166667
vt 0.041667 0.250000
vt 0.041667 0.333333
vt 0.041667 0.416667
vt 0.041667 0.500000
vt 0.041667 0.583333
vt 0.041667 0.666667
vt 0.041667 0.750000
vt 0.041667 0.833333
vt 0.062500 1.000000
vt 0.062500 0.916667
vt 0.062500 0.083333
vt 0.062500 0.000000
vt 0.062500 0.166667
vt 0.062500 0.250000
vt 0.062500 0.333333
vt 0.062500 0.416667
vt 0.062500 0.500000
vt 0.062500 0.583333
vt 0.062500 0.666667
vt 0.062500 0.750000
vt 0.062500 0.833333
vt 0.083333 1.000000
vt 0.083333 0.916667
vt 0.083333 0.083333
vt 0.083333 0.000000
vt 0.083333 0.166667
vt 0.083333 0.250000
vt 0.083333 0.333333
vt 0.083333 0.416667
vt 0.083333 0.500000
vt 0.083333 0.583333
vt 0.083333 0.666667
vt 0.083333 0.750000
vt 0.083333 0.833333
vt 0.104167 1.000000
vt 0.104167 0.916667
vt 0.104167 0.083333
vt 0.104167 0.000000
vt 0.104167 0.166667
vt 0.104167 0.250000
vt 0.104167 0.333333
vt 0.104167 0.416667
vt 0.104167 0.500000
vt 0.104167 0.583333
vt 0.104167 0.666667
vt 0.104167 0.750000
vt 0.104167 0.833333
vt 0.125000 1.000000
vt 0.125000 0.916667
vt 0.125000 0.083333
vt 0.125000 0.000000
vt 0.125000 0.166667
vt 0.125000 0.250000
vt 0.125000 0.333333
vt 0.125000 0.416667
vt 0.125000 0.500000
vt 0.125000 0.583333
vt 0.125000 0.666667
vt 0.125000 0.750000
vt 0.125000 0.833333
vt 0.145833 1.000000
vt 0.145833 0.916667
vt 0.145833 0.083333
vt 0.145833 0.000000
vt 0.145833 0.166667
vt 0.145833 0.250000
vt 0.145833 0.333333
vt 0.145833 0.416667
vt 0.145833 0.500000
vt 0.145833 0.583333
vt 0.145833 0.666667
vt 0.145833 0.750000
vt 0.145833 0.833333
vt 0.166667 1.000000
vt 0.166667 0.916667
vt 0.166667 0.083333
vt 0.166667 0.000000
vt 0.166667 0.166667
vt 0.166667 0.250000
vt 0.166667 0.333333
vt 0.166667 0.416667
vt 0.166667 0.500000
vt 0.166667 0.583333
vt 0.166667 0.666667
vt 0.166667 0.750000
vt 0.166667 0.833333
vt 0.187500 1.000000
vt 0.187500 0.916667
vt 0.187500 0.083333
vt 0.187500 0.000000
vt 0.187500 0.166667
vt 0.187500 0.250000
vt 0.187500 0.333333
vt 0.187500 0.416667
vt 0.187500 0.500000
vt 0.187500 0.583333
vt 0.187500 0.666667
vt 0.187500 0.750000
vt 0.187500 0.833333
vt 0.208333 1.000000
vt 0.208333 0.916667
vt 0.208333 0.083333
vt 0.208333 0.000000
vt 0.208333 0.166667
vt 0.208333 0.250000
vt 0.208333 0.333333
vt 0.208333 0.416667
vt 0.208333 0.500000
vt 0.208333 0.583333
vt 0.208333 0.666667
vt 0.208333 0.750000
vt 0.208333 0.833333
vt 0.229167 1.000000
vt 0.229167 0.916667
vt 0.229167 0.083333
vt 0.229167 0.000000
vt 0.229167 0.166667
vt 0.229167 0.250000
vt 0.229167 0.333333
vt 0.229167 0.416667
vt 0.229167 0.500000
vt 0.229167 0.583333
vt 0.229167 0.666667
vt 0.229167 0.750000
vt 0.229167 0.833333
vt 0.250000 1.000000
vt 0.250000 0.916667
vt 0.250000 0.083333
vt 0.250000 0.000000
vt 0.250000 0.166667
vt 0.250000 0.250000
vt 0.250000 0.333333
vt 0.250000 0.416667
vt 0.250000 0.500000
vt 0.250000 0.583333
vt 0.250000 0.666667
vt 0.250000 0.750000
vt 0.250000 0.833333
vt 0.270833 1.000000
vt 0.270833 0.916667
vt 0.270833 0.083333
vt 0.270833 0.000000
vt 0.270833 0.166667
vt 0.270833 0.250000
vt 0.270833 0.333333
vt 0.270833 0.416667
vt 0.270833 0.500000
vt 0.270833 0.583333
vt 0.270833 0.666667
vt 0.270833 0.750000
vt 0.270833 0.833333
vt 0.291667 1.000000
vt 0.291667 0.916667
vt 0.291667 0.083333
vt 0.291667 0.000000
vt 0.291667 0.166667
vt 0.291667 0.250000
vt 0.291667 0.333333
vt 0.291667 0.416667
vt 0.291667 0.500000
vt 0.291667 0.583333
vt 0.291667 0.666667
vt 0.291667 0.750000
vt 0.291667 0.833333
vt 0.312500 1.000000
vt 0.312500 0.916667
vt 0.312500 0.083333
vt 0.312500 0.000000
vt 0.312500 0.166667
vt 0.312500 0.250000
vt 0.312500 0.333333
vt 0.312500 0.416667
vt 0.312500 0.500000
vt 0.312500 0.583333
vt 0.312500 0.666667
vt 0.312500 0.750000
vt 0.312500 0.833333
vt 0.333333 1.000000
vt 0.333333 0.916667
vt 0.333333 0.083333
vt 0.333333 0.000000
vt 0.333333 0.166667
vt 0.333333 0.250000
vt 0.333333 0.333333
vt 0.333333 0.416667
vt 0.333333 0.500000
vt 0.333333 0.583333
vt 0.333333 0.666667
vt 0.333333 0.750000
vt 0.333333 0.833333
vt 0.354167 1.000000
vt 0.354167 0.916667
vt 0.354167 0.083333
vt 0.354167 0.000000
vt 0.354167 0.166667
vt 0.354167 0.250000
vt 0.354167 0.333333
vt 0.354167 0.416667
vt 0.354167 0.500000
vt 0.354167 0.583333
vt 0.354167 0.666667
vt 0.354167 0.750000
vt 0.354167 0.833333
vt 0.375000 1.000000
vt 0.375000 0.916667
vt 0.375000 0.083333
vt 0.375000 0.000000
vt 0.375000 0.166667
vt 0.375000 0.250000
vt 0.375000 0.333333
vt 0.375000 0.416667
vt 0.375000 0.500000
vt 0.375000 0.583333
vt 0.375000 0.666667
vt 0.375000 0.750000
vt 0.375000 0.833333
vt 0.395833 1.000000
vt 0.395833 0.916667
vt 0.395833 0.083333
vt 0.395833 0.000000
vt 0.395833 0.166667
vt 0.395833 0.250000
vt 0.395833 0.333333
vt 0.395833 0.416667
vt 0.395833 0.500000
vt 0.395833 0.583333
vt 0.395833 0.666667
vt 0.395833 0.750000
vt 0.395833 0.833333
vt 0.416667 1.000000
vt 0.416667 0.916667
vt 0.416667 0.083333
vt 0.416667 0.000000
vt 0.416667 0.166667
vt 0.416667 0.250000
vt 0.416667 0.333333
vt 0.416667 0.416667
vt 0.416667 0.500000
vt 0.416667 0.583333
vt 0.416667 0.666667
vt 0.416667 0.750000
vt 0.416667 0.833333
vt 0.437500 1.000000
vt 0.437500 0.916667
vt 0.437500 0.083333
vt 0.437500 0.000000
vt 0.437500 0.166667
vt 0.437500 0.250000
vt 0.437500 0.333333
vt 0.437500 0.416667
vt 0.437500 0.500000
vt 0.437500 0.583333
vt 0.437500 0.666667
vt 0.437500 0.750000
vt 0.437500 0.833333
vt 0.458333 1.000000
vt 0.458333 0.916667
vt 0.458333 0.083333
vt 0.458333 0.000000
vt 0.458333 0.166667
vt 0.458333 0.250000
vt 0.458333 0.333333
vt 0.458333 0.416667
vt 0.458333 0.500000
vt 0.458333 0.583333
vt 0.458333 0.666667
vt 0.458333 0.750000
vt 0.458333 0.833333
vt 0.479167 1.000000
vt 0.479167 0.916667
vt 0.479167 0.083333
vt 0.479167 0.000000
vt 0.479167 0.166667
vt 0.479167 0.250000
vt 0.479167 0.333333
vt 0.479167 0.416667
vt 0.479167 0.500000
vt 0.479167 0.583333
vt 0.479167 0.666667
vt 0.479167 0.750000
vt 0.479167 0.833333
vt 0.500000 1.000000
vt 0.500000 0.916667
vt 0.500000 0.083333
vt 0.500000 0.000000
vt 0.500000 0.166667
vt 0.500000 0.250000
vt 0.500000 0.333333
vt 0.500000 0.416667
vt 0.500000 0.500000
vt 0.500000 0.583333
vt 0.500000 0.666667
vt 0.500000 0.750000
vt 0.500000 0.833333
vt 0.520833 1.000000
vt 0.520833 0.916667
vt 0.520833 0.083333
vt 0.520833 0.000000
vt 0.520833 0.166667
vt 0.520833 0.250000
vt 0.520833 0.333333
vt 0.520833 0.416667
vt 0.520833 0.500000
vt 0.520833 0.583333
vt 0.520833 0.666667
vt 0.520833 0.750000
vt 0.520833 0.833333
vt 0.541667 1.000000
vt 0.541667 0.916667
vt 0.541667 0.083333
vt 0.541667 0.000000
vt 0.541667 0.166667
vt 0.541667 0.250000
vt 0.541667 0.333333
vt 0.541667 0.416667
vt 0.541667 0.500000
vt 0.541667 0.583333
vt 0.541667 0.666667
vt 0.541667 0.750000
vt 0.541667 0.833333
vt 0.562500 1.000000
vt 0.562500 0.916667
vt 0.562500 0.083333
vt 0.562500 0.000000
vt 0.562500 0.166667
vt 0.562500 0.250000
vt 0.562500 0.333333
vt 0.562500 0.416667
vt 0.562500 0.500000
vt 0.562500 0.583333
vt 0.562500 0.666667
vt 0.562500 0.750000
vt 0.562500 0.833333
vt 0.583333 1.000000
vt 0.583333 0.916667
vt 0.583333 0.083333
vt 0.583333 0.000000
vt 0.583333 0.166667
vt 0.583333 0.250000
vt 0.583333 0.333333
vt 0.583333 0.416667
vt 0.583333 0.500000
vt 0.583333 0.583333
vt 0.583333 0.666667
vt 0.583333 0.750000
vt 0.583333 0.833333
vt 0.604167 1.000000
vt 0.604167 0.916667
vt 0.604167 0.083333
vt 0.604167 0.000000
vt 0.604167 0.166667
vt 0.604167 0.250000
vt 0.604167 0.333333
vt 0.604167 0.416667
vt 0.604167 0.500000
vt 0.604167 0.583333
vt 0.604167 0.666667
vt 0.604167 0.750000
vt 0.604167 0.833333
vt 0.625000 1.000000
vt 0.625000 0.916667
vt 0.625000 0.083333
vt 0.625000 0.000000
vt 0.625000 0.166667
vt 0.625000 0.250000
vt 0.625000 0.333333
vt 0.625000 0.416667
vt 0.625000 0.500000
vt 0.625000 0.583333
vt 0.625000 0.666667
vt 0.625000 0.750000
vt 0.625000 0.833333
vt 0.645833 1.000000
vt 0.645833 0.916667
vt 0.645833 0.083333
vt 0.645833 0.000000
vt 0.645833 0.166667
vt 0.645833 0.250000
vt 0.645833 0.333333
vt 0.645833 0.416667
vt 0.645833 0.500000
vt 0.645833 0.583333
vt 0.645833 0.666667
vt 0.645833 0.750000
vt 0.645833 0.833333
vt 0.666667 1.000000
vt 0.666667 0.916667
vt 0.666667 0.083333
vt 0.666667 0.000000
vt 0.666667 0.166667
vt 0.666667 0.250000
vt 0.666667 0.333333
vt 0.666667 0.416667
vt 0.666667 0.500000
vt 0.666667 0.583333
vt 0.666667 0.666667
vt 0.666667 0.750000
vt 0.666667 0.833333
vt 0.687500 1.000000
vt 0.687500 0.916667
vt 0.687500 0.083333
vt 0.687500 0.000000
vt 0.687500 0.166667
vt 0.687500 0.250000
vt 0.687500 0.333333
vt 0.687500 0.416667
vt 0.687500 0.500000
vt 0.687500 0.583333
vt 0.687500 0.666667
vt 0.687500 0.750000
vt 0.687500 0.833333
vt 0.708333 1.000000
vt 0.708333 0.916667
vt 0.708333 0.083333
vt 0.708333 0.000000
vt 0.708333 0.166667
vt 0.708333 0.250000
vt 0.708333 0.333333
vt 0.708333 0.416667
vt 0.708333 0.500000
vt 0.708333 0.583333
vt 0.708333 0.666667
vt 0.708333 0.750000
vt 0.708333 0.833333
vt 0.729167 1.000000
vt 0.729167 0.916667
vt 0.729167 0.083333
vt 0.729167 0.000000
vt 0.729167 0.166667
vt 0.729167 0.250000
vt 0.729167 0.333333
vt 0.729167 0.416667
vt 0.729167 0.500000
vt 0.729167 0.583333
vt 0.729167 0.666667
vt 0.729167 0.750000
vt 0.729167 0.833333
vt 0.750000 1.000000
vt 0.750000 0.916667
vt 0.750000 0.083333
vt 0.750000 0.000000
vt 0.750000 0.166667
vt 0.750000 0.250000
vt 0.750000 0.333333
vt 0.750000 0.416667
vt 0.750000 0.500000
vt 0.750000 0.583333
vt 0.750000 0.666667
vt 0.750000 0.750000
vt 0.750000 0.833333
vt 0.770833 1.000000
vt 0.770833 0.916667
vt 0.770833 0.083333
vt 0.770833 0.000000
vt 0.770833 0.166667
vt 0.770833 0.250000
vt 0.770833 0.333333
vt 0.770833 0.416667
vt 0.770833 0.500000
vt 0.770833 0.583333
vt 0.770833 0.666667
vt 0.770833 0.750000
vt 0.770833 0.833333
vt 0.791667 1.000000
vt 0.791667 0.916667
vt 0.791667 0.083333
vt 0.791667 0.000000
vt 0.791667 0.166667
vt 0.791667 0.250000
vt 0.791667 0.333333
vt 0.791667 0.416667
vt 0.791667 0.500000
vt 0.791667 0.583333
vt 0.791667 0.666667
vt 0.791667 0.750000
vt 0.791667 0.833333
vt 0.812500 1.000000
vt 0.812500 0.916667
vt 0.812500 0.083333
vt 0.812500 0.000000
vt 0.812500 0.166667
vt 0.812500 0.250000
vt 0.812500 0.333333
vt 0.812500 0.416667
vt 0.812500 0.500000
vt 0.812500 0.583333
vt 0.812500 0.666667
vt 0.812500 0.750000
vt 0.812500 0.833333
vt 0.833333 1.000000
vt 0.833333 0.916667
vt 0.833333 0.083333
vt 0.833333 0.000000
vt 0.833333 0.166667
vt 0.833333 0.250000
vt 0.833333 0.333333
vt 0.833333 0.416667
vt 0.833333 0.500000
vt 0.833333 0.583333
vt 0.833333 0.666667
vt 0.833333 0.750000
vt 0.833333 0.833333
vt 0.854167 1.000000
vt 0.854167 0.916667
vt 0.854167 0.083333
vt 0.854167 0.000000
vt 0.854167 0.166667
vt 0.854167 0.250000
vt 0.854167 0.333333
vt 0.854167 0.416667
vt 0.854167 0.500000
vt 0.854167 0.583333
vt 0.854167 0.666667
vt 0.854167 0.750000
vt 0.854167 0.833333
vt 0.875000 1.000000
vt 0.875000 0.916667
vt 0.875000 0.083333
vt 0.875000 0.000000
vt 0.875000 0.166667
vt 0.875000 0.250000
vt 0.875000 0.333333
vt 0.875000 0.416667
vt 0.875000 0.500000
vt 0.875000 0.583333
vt 0.875000 0.666667
vt 0.875000 0.750000
vt 0.875000 0.833333
vt 0.895833 1.000000
vt 0.895833 0.916667
vt 0.895833 0.083333
vt 0.895833 0.000000
vt 0.895833 0.166667
vt 0.895833 0.250000
vt 0.895833 0.333333
vt 0.895833 0.416667
vt 0.895833 0.500000
vt 0.895833 0.583333
vt 0.895833 0.666667
vt 0.895833 0.750000
vt 0.895833 0.833333
vt 0.916667 1.000000
vt 0.916667 0.916667
vt 0.916667 0.083333
vt 0.916667 0.000000
vt 0.916667 0.166667
vt 0.916667 0.250000
vt 0.916667 0.333333
vt 0.916667 0.416667
vt 0.916667 0.500000
vt 0.916667 0.583333
vt 0.916667 0.666667
vt 0.916667 0.750000
vt 0.916667 0.833333
vt 0.937500 1.000000
vt 0.937500 0.916667
vt 0.937500 0.083333
vt 0.937500 0.000000
vt 0.937500 0.166667
vt 0.937500 0.250000
vt 0.937500 0.333333
vt 0.937500 0.416667
vt 0.937500 0.500000
vt 0.937500 0.583333
vt 0.937500 0.666667
vt 0.937500 0.750000
vt 0.937500 0.833333
vt 0.958333 1.000000
vt 0.958333 0.916667
vt 0.958333 0.083333
vt 0.958333 0.000000
vt 0.958333 0.166667
vt 0.958333 0.250000
vt 0.958333 0.333333
vt 0.958333 0.416667
vt 0.958333 0.500000
vt 0.958333 0.583333
vt 0.958333 0.666667
vt 0.958333 0.750000
vt 0.958333 0.833333
vt 0.979167 1.000000
vt 0.979167 0.916667
vt 0.979167 0.083333
vt 0.979167 0.000000
vt 0.979167 0.166667
vt 0.979167 0.250000
vt 0.979167 0.333333
vt 0.979167 0.416667
vt 0.979167 0.500000
vt 0.979167 0.583333
vt 0.979167 0.666667
vt 0.979167 0.750000
vt 0.979167 0.833333
vt 1.000000 1.000000
vt 1.000000 0.916667
vt 1.000000 0.083333
vt 1.000000 0.000000
vt 1.000000 0.166667
vt 1.000000 0.250000
vt 1.000000 0.333333
vt 1.000000 0.416667
vt 1.000000 0.500000
vt 1.000000 0.583333
vt 1.000000 0.666667
vt 1.000000 0.750000
vt 1.000000 0.833333
vn 0.0000 0.4953 0.8687
vn -0.1164 0.4953 0.8609
vn -0.1340 0.0000 0.9910
vn 0.0000 0.0000 1.0000
vn 0.0000 0.8612 0.5082
vn -0.0681 0.8612 0.5036
vn 0.0000 0.9999 0.0110
vn -0.0015 0.9999 0.0110
vn 0.0000 0.8708 -0.4916
vn 0.0659 0.8708 -0.4871
vn 0.0000 0.5048 -0.8632
vn 0.1157 0.5048 -0.8554
vn 0.0000 0.0000 -1.0000
vn 0.1340 0.0000 -0.9910
vn 0.0000 -0.5048 -0.8632
vn 0.1157 -0.5048 -0.8554
vn 0.0000 -0.8708 -0.4916
vn 0.0659 -0.8708 -0.4871
vn 0.0000 -0.9999 0.0110
vn -0.0015 -0.9999 0.0110
vn 0.0000 -0.8612 0.5082
vn -0.0681 -0.8612 0.5036
vn 0.0000 -0.4953 0.8687
vn -0.1164 -0.4953 0.8609
vn -0.2300 0.4953 0.8377
vn -0.2648 0.0000 0.9643
vn -0.1345 0.8613 0.4899
vn -0.0029 0.9999 0.0105
vn 0.1302 0.8708 -0.4741
vn 0.2286 0.5048 -0.8324
vn 0.2649 0.0000 -0.9643
vn 0.2286 -0.5048 -0.8324
vn 0.1302 -0.8708 -0.4741
vn -0.0029 -0.9999 0.0105
vn -0.1345 -0.8613 0.4899
vn -0.2300 -0.4953 0.8377
vn -0.3381 0.4954 0.8002
vn -0.3892 0.0000 0.9211
vn -0.1977 0.8614 0.4679
vn -0.0042 0.9999 0.0099
vn 0.1914 0.8707 -0.4530
vn 0.3360 0.5047 -0.7952
vn 0.3893 0.0000 -0.9211
vn 0.3360 -0.5047 -0.7952
vn 0.1914 -0.8707 -0.4530
vn -0.0042 -0.9999 0.0099
vn -0.1977 -0.8614 0.4679
vn -0.3381 -0.4954 0.8002
vn -0.4388 0.4954 0.7496
vn -0.5052 0.0000 0.8630
vn -0.2566 0.8614 0.4383
vn -0.0053 0.9999 0.0092
vn 0.2485 0.8706 -0.4245
vn 0.4362 0.5046 -0.7450
vn 0.5053 0.0000 -0.8629
vn 0.4362 -0.5046 -0.7450
vn 0.2485 -0.8706 -0.4245
vn -0.0053 -0.9999 0.0092
vn -0.2566 -0.8614 0.4383
vn -0.4388 -0.4954 0.7496
vn -0.5311 0.4955 0.6873
vn -0.6115 0.0000 0.7913
vn -0.3105 0.8614 0.4018
vn -0.0064 0.9999 0.0083
vn 0.3009 0.8706 -0.3893
vn 0.5279 0.5046 -0.6831
vn 0.6115 0.0000 -0.7912
vn 0.5279 -0.5046 -0.6831
vn 0.3009 -0.8706 -0.3893
vn -0.0064 -0.9999 0.0083
vn -0.3105 -0.8614 0.4018
vn -0.5311 -0.4955 0.6873
vn -0.6142 0.4955 0.6142
vn -0.7071 0.0000 0.7071
vn -0.3591 0.8615 0.3591
vn -0.0074 0.9999 0.0074
vn 0.3479 0.8705 -0.3479
vn 0.6105 0.5046 -0.6105
vn 0.7071 0.0000 -0.7071
vn 0.6105 -0.5046 -0.6105
vn 0.3479 -0.8705 -0.3479
vn -0.0074 -0.9999 0.0074
vn -0.3591 -0.8615 0.3591
vn -0.6142 -0.4955 0.6142
vn -0.6873 0.4955 0.5311
vn -0.7913 0.0000 0.6115
vn -0.4018 0.8614 0.3105
vn -0.0083 0.9999 0.0064
vn 0.3893 0.8706 -0.3009
vn 0.6831 0.5046 -0.5279
vn 0.7912 0.0000 -0.6115
vn 0.6831 -0.5046 -0.5279
vn 0.3893 -0.8706 -0.3009
vn -0.0083 -0.9999 0.0064
vn -0.4018 -0.8614 0.3105
vn -0.6873 -0.4955 0.5311
vn -0.7496 0.4954 0.4388
vn -0.8630 0.0000 0.5052
vn -0.4383 0.8614 0.2566
vn -0.0092 0.9999 0.0053
vn 0.4245 0.8706 -0.2485
vn 0.7450 0.5046 -0.4362
vn 0.8629 0.0000 -0.5053
vn 0.7450 -0.5046 -0.4362
vn 0.4245 -0.8706 -0.2485
vn -0.0092 -0.9999 0.0053
vn -0.4383 -0.8614 0.2566
vn -0.7496 -0.4954 0.4388
vn -0.8002 0.4954 0.3381
vn -0.9211 0.0000 0.3892
vn -0.4679 0.8614 0.1977
vn -0.0099 0.9999 0.0042
vn 0.4530 0.8707 -0.1914
vn 0.7952 0.5047 -0.3360
vn 0.9211 0.0000 -0.3893
vn 0.7952 -0.5047 -0.3360
vn 0.4530 -0.8707 -0.1914
vn -0.0099 -0.9999 0.0042
vn -0.4679 -0.8614 0.1977
vn -0.8002 -0.4954 0.3381
vn -0.8377 0.4953 0.2300
vn -0.9643 0.0000 0.2648
vn -0.4900 0.8613 0.1345
vn -0.0105 0.9999 0.0029
vn 0.4741 0.8708 -0.1302
vn 0.8324 0.5048 -0.2286
vn 0.9643 0.0000 -0.2649
vn 0.8324 -0.5048 -0.2286
vn 0.4741 -0.8708 -0.1302
vn -0.0105 -0.9999 0.0029
vn -0.4900 -0.8613 0.1345
vn -0.8377 -0.4953 0.2300
vn -0.8609 0.4953 0.1164
vn -0.9910 0.0000 0.1340
vn -0.5036 0.8612 0.0681
vn -0.0110 0.9999 0.0015
vn 0.4871 0.8708 -0.0659
vn 0.8554 0.5048 -0.1157
vn 0.9910 0.0000 -0.1340
vn 0.8554 -0.5048 -0.1157
vn 0.4871 -0.8708 -0.0659
vn -0.0110 -0.9999 0.0015
vn -0.5036 -0.8612 0.0681
vn -0.8609 -0.4953 0.1164
vn -0.8687 0.4953 0.0000
vn -1.0000 0.0000 0.0000
vn -0.5082 0.8612 0.0000
vn -0.0110 0.9999 0.0000
vn 0.4916 0.8708 0.0000
vn 0.8632 0.5048 0.0000
vn 1.0000 0.0000 0.0000
vn 0.8632 -0.5048 0.0000
vn 0.4916 -0.8708 0.0000
vn -0.0110 -0.9999 0.0000
vn -0.5082 -0.8612 0.0000
vn -0.8687 -0.4953 0.0000
vn -0.8609 0.4953 -0.1164
vn -0.9910 0.0000 -0.1340
vn -0.5036 0.8612 -0.0681
vn -0.0110 0.9999 -0.0015
vn 0.4871 0.8708 0.0659
vn 0.8554 0.5048 0.1157
vn 0.9910 0.0000 0.1340
vn 0.8554 -0.5048 0.1157
vn 0.4871 -0.8708 0.0659
vn -0.0110 -0.9999 -0.0015
vn -0.5036 -0.8612 -0.0681
vn -0.8609 -0.4953 -0.1164
vn -0.8377 0.4953 -0.2300
vn -0.9643 0.0000 -0.2648
vn -0.4899 0.8613 -0.1345
vn -0.0105 0.9999 -0.0029
vn 0.4741 0.8708 0.1302
vn 0.8324 0.5048 0.2286
vn 0.9643 0.0000 0.2649
vn 0.8324 -0.5048 0.2286
vn 0.4741 -0.8708 0.1302
vn -0.0105 -0.9999 -0.0029
vn -0.4899 -0.8613 -0.1345
vn -0.8377 -0.4953 -0.2300
vn -0.8002 0.4954 -0.3381
vn -0.9211 0.0000 -0.3892
vn -0.4679 0.8614 -0.1977
vn -0.0099 0.9999 -0.0042
vn 0.4530 0.8707 0.1914
vn 0.7952 0.5047 0.3360
vn 0.9211 0.0000 0.3893
vn 0.7952 -0.5047 0.3360
vn 0.4530 -0.8707 0.1914
vn -0.0099 -0.9999 -0.0042
vn -0.4679 -0.8614 -0.1977
vn -0.8002 -0.4954 -0.3381
vn -0.7496 0.4954 -0.4388
vn -0.8630 0.0000 -0.5052
vn -0.4383 0.8614 -0.2566
vn -0.0092 0.9999 -0.0053
vn 0.4245 0.8706 0.2485
vn 0.7450 0.5046 0.4362
vn 0.8629 0.0000 0.5053
vn 0.7450 -0.5046 0.4362
vn 0.4245 -0.8706 0.2485
vn -0.0092 -0.9999 -0.0053
vn -0.4383 -0.8614 -0.2566
vn -0.7496 -0.4954 -0.4388
vn -0.6873 0.4955 -0.5311
vn -0.7913 0.0000 -0.6115
vn -0.4018 0.8614 -0.3105
vn -0.0083 0.9999 -0.0064
vn 0.3893 0.8706 0.3009
vn 0.6831 0.5046 0.5279
vn 0.7912 0.0000 0.6115
vn 0.6831 -0.5046 0.5279
vn 0.3893 -0.8706 0.3009
vn -0.0083 -0.9999 -0.0064
vn -0.4018 -0.8614 -0.3105
vn -0.6873 -0.4955 -0.5311
vn -0.6142 0.4955 -0.6142
vn -0.7071 0.0000 -0.7071
vn -0.3591 0.8615 -0.3591
vn -0.0074 0.9999 -0.0074
vn 0.3479 0.8705 0.3479
vn 0.6105 0.5046 0.6105
vn 0.7071 0.0000 0.7071
vn 0.6105 -0.5046 0.6105
vn 0.3479 -0.8705 0.3479
vn -0.0074 -0.9999 -0.0074
vn -0.3591 -0.8615 -0.3591
vn -0.6142 -0.4955 -0.6142
vn -0.5311 0.4955 -0.6873
vn -0.6115 0.0000 -0.7913
vn -0.3105 0.8614 -0.4018
vn -0.0064 0.9999 -0.0083
vn 0.3009 0.8706 0.3893
vn 0.5279 0.5046 0.6831
vn 0.6115 0.0000 0.7912
vn 0.5279 -0.5046 0.6831
vn 0.3009 -0.8706 0.3893
vn -0.0064 -0.9999 -0.0083
vn -0.3105 -0.8614 -0.4018
vn -0.5311 -0.4955 -0.6873
vn -0.4388 0.4954 -0.7496
vn -0.5052 0.0000 -0.8630
vn -0.2566 0.8614 -0.4383
vn -0.0053 0.9999 -0.0092
vn 0.2485 0.8706 0.4245
vn 0.4362 0.5046 0.7450
vn 0.5053 0.0000 0.8629
vn 0.4362 -0.5046 0.7450
vn 0.2485 -0.8706 0.4245
vn -0.0053 -0.9999 -0.0092
vn -0.2566 -0.8614 -0.4383
vn -0.4388 -0.4954 -0.7496
vn -0.3381 0.4954 -0.8002
vn -0.3892 0.0000 -0.9211
vn -0.1977 0.8614 -0.4679
vn -0.0042 0.9999 -0.0099
vn 0.1914 0.8707 0.4530
vn 0.3360 0.5047 0.7952
vn 0.3893 0.0000 0.9211
vn 0.3360 -0.5047 0.7952
vn 0.1914 -0.8707 0.4530
vn -0.0042 -0.9999 -0.0099
vn -0.1977 -0.8614 -0.4679
vn -0.3381 -0.4954 -0.8002
vn -0.2300 0.4953 -0.8377
vn -0.2648 0.0000 -0.9643
vn -0.1345 0.8613 -0.4899
vn -0.0029 0.9999 -0.0105
vn 0.1302 0.8708 0.4741
vn 0.2286 0.5048 0.8324
vn 0.2649 0.0000 0.9643
vn 0.2286 -0.5048 0.8324
vn 0.1302 -0.8708 0.4741
vn -0.0029 -0.9999 -0.0105
vn -0.1345 -0.8613 -0.4899
vn -0.2300 -0.4953 -0.8377
vn -0.1164 0.4953 -0.8609
vn -0.1340 0.0000 -0.9910
vn -0.0681 0.8612 -0.5036
vn -0.0015 0.9999 -0.0110
vn 0.0659 0.8708 0.4871
vn 0.1157 0.5048 0.8554
vn 0.1340 0.0000 0.9910
vn 0.1157 -0.5048 0.8554
vn 0.0659 -0.8708 0.4871
vn -0.0015 -0.9999 -0.0110
vn -0.0681 -0.8612 -0.5036
vn -0.1164 -0.4953 -0.8609
vn 0.0000 0.4953 -0.8687
vn 0.0000 0.8612 -0.5082
vn 0.0000 0.9999 -0.0110
vn 0.0000 0.8708 0.4916
vn 0.0000 0.5048 0.8632
vn 0.0000 -0.5048 0.8632
vn 0.0000 -0.8708 0.4916
vn 0.0000 -0.9999 -0.0110
vn 0.0000 -0.8612 -0.5082
vn 0.0000 -0.4953 -0.8687
vn 0.1164 0.4953 -0.8609
vn 0.0681 0.8612 -0.5036
vn 0.0015 0.9999 -0.0110
vn -0.0659 0.8708 0.4871
vn -0.1157 0.5048 0.8554
vn -0.1157 -0.5048 0.8554
vn -0.0659 -0.8708 0.4871
vn 0.0015 -0.9999 -0.0110
vn 0.0681 -0.8612 -0.5036
vn 0.1164 -0.4953 -0.8609
vn 0.2300 0.4953 -0.8377
vn 0.2648 0.0000 -0.9643
vn 0.1345 0.8613 -0.4900
vn 0.0029 0.9999 -0.0105
vn -0.1302 0.8708 0.4741
vn -0.2286 0.5048 0.8324
vn -0.2649 0.0000 0.9643
vn -0.2286 -0.5048 0.8324
vn -0.1302 -0.8708 0.4741
vn 0.0029 -0.9999 -0.0105
vn 0.1345 -0.8613 -0.4899
vn 0.2300 -0.4953 -0.8377
vn 0.3381 0.4954 -0.8002
vn 0.3892 0.0000 -0.9211
vn 0.1977 0.8614 -0.4679
vn 0.0042 0.9999 -0.0099
vn -0.1914 0.8707 0.4530
vn -0.3360 0.5047 0.7952
vn -0.3893 0.0000 0.9211
vn -0.3360 -0.5047 0.7952
vn -0.1914 -0.8707 0.4530
vn 0.0042 -0.9999 -0.0099
vn 0.1977 -0.8614 -0.4679
vn 0.3381 -0.4954 -0.8002
vn 0.4388 0.4954 -0.7496
vn 0.5052 0.0000 -0.8630
vn 0.2566 0.8614 -0.4383
vn 0.0053 0.9999 -0.0092
vn -0.2485 0.8706 0.4245
vn -0.4362 0.5046 0.7450
vn -0.5053 0.0000 0.8629
vn -0.4362 -0.5046 0.7450
vn -0.2485 -0.8706 0.4245
vn 0.0053 -0.9999 -0.0092
vn 0.2566 -0.8614 -0.4383
vn 0.4388 -0.4954 -0.7496
vn 0.5311 0.4955 -0.6873
vn 0.6115 0.0000 -0.7913
vn 0.3105 0.8614 -0.4018
vn 0.0064 0.9999 -0.0083
vn -0.3009 0.8706 0.3893
vn -0.5279 0.5046 0.6831
vn -0.6115 0.0000 0.7912
vn -0.5279 -0.5046 0.6831
vn -0.3009 -0.8706 0.3893
vn 0.0064 -0.9999 -0.0083
vn 0.3105 -0.8614 -0.4018
vn 0.5311 -0.4955 -0.6873
vn 0.6142 0.4955 -0.6142
vn 0.3591 0.8615 -0.3591
vn 0.0074 0.9999 -0.0074
vn -0.3479 0.8705 0.3479
vn -0.6105 0.5046 0.6105
vn -0.6105 -0.5046 0.6105
vn -0.3479 -0.8705 0.3479
vn 0.0074 -0.9999 -0.0074
vn 0.3591 -0.8615 -0.3591
vn 0.6142 -0.4955 -0.6142
vn 0.6873 0.4955 -0.5311
vn 0.7913 0.0000 -0.6115
vn 0.4018 0.8614 -0.3105
vn 0.0083 0.9999 -0.0064
vn -0.3893 0.8706 0.3009
vn -0.6831 0.5046 0.5279
vn -0.7912 0.0000 0.6115
vn -0.6831 -0.5046 0.5279
vn -0.3893 -0.8706 0.3009
vn 0.0083 -0.9999 -0.0064
vn 0.4018 -0.8614 -0.3105
vn 0.6873 -0.4955 -0.5311
vn 0.7496 0.4954 -0.4388
vn 0.8630 0.0000 -0.5052
vn 0.4383 0.8614 -0.2566
vn 0.0092 0.9999 -0.0053
vn -0.4245 0.8706 0.2485
vn -0.7450 0.5046 0.4362
vn -0.8629 0.0000 0.5053
vn -0.7450 -0.5046 0.4362
vn -0.4245 -0.8706 0.2485
vn 0.0092 -0.9999 -0.0053
vn 0.4383 -0.8614 -0.2566
vn 0.7496 -0.4954 -0.4388
vn 0.8002 0.4954 -0.3381
vn 0.9211 0.0000 -0.3892
vn 0.4679 0.8614 -0.1977
vn 0.0099 0.9999 -0.0042
vn -0.4530 0.8707 0.1914
vn -0.7952 0.5047 0.3360
vn -0.9211 0.0000 0.3893
vn -0.7952 -0.5047 0.3360
vn -0.4530 -0.8707 0.1914
vn 0.0099 -0.9999 -0.0042
vn 0.4679 -0.8614 -0.1977
vn 0.8002 -0.4954 -0.3381
vn 0.8377 0.4953 -0.2300
vn 0.9643 0.0000 -0.2648
vn 0.4900 0.8613 -0.1345
vn 0.0105 0.9999 -0.0029
vn -0.4741 0.8708 0.1302
vn -0.8324 0.5048 0.2286
vn -0.9643 0.0000 0.2649
vn -0.8324 -0.5048 0.2286
vn -0.4741 -0.8708 0.1302
vn 0.0105 -0.9999 -0.0029
vn 0.4900 -0.8613 -0.1345
vn 0.8377 -0.4953 -0.2300
vn 0.8609 0.4953 -0.1164
vn 0.5036 0.8612 -0.0681
vn 0.0110 0.9999 -0.0015
vn -0.4871 0.8708 0.0659
vn -0.8554 0.5048 0.1157
vn -0.8554 -0.5048 0.1157
vn -0.4871 -0.8708 0.0659
vn 0.0110 -0.9999 -0.0015
vn 0.5036 -0.8612 -0.0681
vn 0.8609 -0.4953 -0.1164
vn 0.8687 0.4953 0.0000
vn 0.5082 0.8612 0.0000
vn 0.0110 0.9999 0.0000
vn -0.4916 0.8708 0.0000
vn -0.8632 0.5048 0.0000
vn -0.8632 -0.5048 0.0000
vn -0.4916 -0.8708 0.0000
vn 0.0110 -0.9999 0.0000
vn 0.5082 -0.8612 0.0000
vn 0.8687 -0.4953 0.0000
vn 0.8609 0.4953 0.1164
vn 0.5036 0.8612 0.0681
vn 0.0110 0.9999 0.0015
vn -0.4871 0.8708 -0.0659
vn -0.8554 0.5048 -0.1157
vn -0.8554 -0.5048 -0.1157
vn -0.4871 -0.8708 -0.0659
vn 0.0110 -0.9999 0.0015
vn 0.5036 -0.8612 0.0681
vn 0.8609 -0.4953 0.1164
vn 0.8377 0.4953 0.2300
vn 0.9643 0.0000 0.2648
vn 0.4899 0.8613 0.1345
vn 0.0105 0.9999 0.0029
vn -0.4741 0.8708 -0.1302
vn -0.8324 0.5048 -0.2286
vn -0.9643 0.0000 -0.2649
vn -0.8324 -0.5048 -0.2286
vn -0.4741 -0.8708 -0.1302
vn 0.0105 -0.9999 0.0029
vn 0.4899 -0.8613 0.1345
vn 0.8377 -0.4953 0.2300
vn 0.8002 0.4954 0.3381
vn 0.9211 0.0000 0.3892
vn 0.4679 0.8614 0.1977
vn 0.0099 0.9999 0.0042
vn -0.4530 0.8707 -0.1914
vn -0.7952 0.5047 -0.3360
vn -0.9211 0.0000 -0.3893
vn -0.7952 -0.5047 -0.3360
vn -0.4530 -0.8707 -0.1914
vn 0.0099 -0.9999 0.0042
vn 0.4679 -0.8614 0.1977
vn 0.8002 -0.4954 0.3381
vn 0.7496 0.4954 0.4388
vn 0.8630 0.0000 0.5052
vn 0.4383 0.8614 0.2566
vn 0.0092 0.9999 0.0053
vn -0.4245 0.8706 -0.2485
vn -0.7450 0.5046 -0.4362
vn -0.8629 0.0000 -0.5053
vn -0.7450 -0.5046 -0.4362
vn -0.4245 -0.8706 -0.2485
vn 0.0092 -0.9999 0.0053
vn 0.4383 -0.8614 0.2566
vn 0.7496 -0.4954 0.4388
vn 0.6873 0.4955 0.5311
vn 0.7913 0.0000 0.6115
vn 0.4018 0.8614 0.3105
vn 0.0083 0.9999 0.0064
vn -0.3893 0.8706 -0.3009
vn -0.6831 0.5046 -0.5279
vn -0.7912 0.0000 -0.6115
vn -0.6831 -0.5046 -0.5279
vn -0.3893 -0.8706 -0.3009
vn 0.0083 -0.9999 0.0064
vn 0.4018 -0.8614 0.3105
vn 0.6873 -0.4955 0.5311
vn 0.6142 0.4955 0.6142
vn 0.3591 0.8615 0.3591
vn 0.0074 0.9999 0.0074
vn -0.3479 0.8705 -0.3479
vn -0.6105 0.5046 -0.6105
vn -0.6105 -0.5046 -0.6105
vn -0.3479 -0.8705 -0.3479
vn 0.0074 -0.9999 0.0074
vn 0.3591 -0.8615 0.3591
vn 0.6142 -0.4955 0.6142
vn 0.5311 0.4955 0.6873
vn 0.6115 0.0000 0.7913
vn 0.3105 0.8614 0.4018
vn 0.0064 0.9999 0.0083
vn -0.3009 0.8706 -0.3893
vn -0.5279 0.5046 -0.6831
vn -0.6115 0.0000 -0.7912
vn -0.5279 -0.5046 -0.6831
vn -0.3009 -0.8706 -0.3893
vn 0.0064 -0.9999 0.0083
vn 0.3105 -0.8614 0.4018
vn 0.5311 -0.4955 0.6873
vn 0.4388 0.4954 0.7496
vn 0.5052 0.0000 0.8630
vn 0.2566 0.8614 0.4383
vn 0.0053 0.9999 0.0092
vn -0.2485 0.8706 -0.4245
vn -0.4362 0.5046 -0.7450
vn -0.5053 0.0000 -0.8629
vn -0.4362 -0.5046 -0.7450
vn -0.2485 -0.8706 -0.4245
vn 0.0053 -0.9999 0.0092
vn 0.2566 -0.8614 0.4383
vn 0.4388 -0.4954 0.7496
vn 0.3381 0.4954 0.8002
vn 0.3892 0.0000 0.9211
vn 0.1977 0.8614 0.4679
vn 0.0042 0.9999 0.0099
vn -0.1914 0.8707 -0.4530
vn -0.3360 0.5047 -0.7952
vn -0.3893 0.0000 -0.9211
vn -0.3360 -0.5047 -0.7952
vn -0.1914 -0.8707 -0.4530
vn 0.0042 -0.9999 0.0099
vn 0.1977 -0.8614 0.4679
vn 0.3381 -0.4954 0.8002
vn 0.2300 0.4953 0.8377
vn 0.2648 0.0000 0.9643
vn 0.1345 0.8613 0.4900
vn 0.0029 0.9999 0.0105
vn -0.1302 0.8708 -0.4741
vn -0.2286 0.5048 -0.8324
vn -0.2649 0.0000 -0.9643
vn -0.2286 -0.5048 -0.8324
vn -0.1302 -0.8708 -0.4741
vn 0.0029 -0.9999 0.0105
vn 0.1345 -0.8613 0.4899
vn 0.2300 -0.4953 0.8377
vn 0.1164 0.4953 0.8609
vn 0.0681 0.8612 0.5036
vn 0.0015 0.9999 0.0110
vn -0.0659 0.8708 -0.4871
vn -0.1157 0.5048 -0.8554
vn -0.1157 -0.5048 -0.8554
vn -0.0659 -0.8708 -0.4871
vn 0.0015 -0.9999 0.0110
vn 0.0681 -0.8612 0.5036
vn 0.1164 -0.4953 0.8609
s 1
f 1/1/1 13/2/2 24/3/3 12/4/4
f 2/5/5 14/6/6 13/7/2 1/8/1
f 3/9/7 15/10/8 14/6/6 2/5/5
f 4/11/9 16/12/10 15/10/8 3/9/7
f 5/13/11 17/14/12 16/12/10 4/11/9
f 6/15/13 18/16/14 17/14/12 5/13/11
f 7/17/15 19/18/16 18/16/14 6/15/13
f 8/19/17 20/20/18 19/18/16 7/17/15
f 9/21/19 21/22/20 20/20/18 8/19/17
f 10/23/21 22/24/22 21/22/20 9/21/19
f 11/25/23 23/26/24 22/24/22 10/23/21
f 12/4/4 24/3/3 23/26/24 11/25/23
f 13/2/2 25/27/25 36/28/26 24/3/3
f 14/6/6 26/29/27 25/30/25 13/7/2
f 15/10/8 27/31/28 26/29/27 14/6/6
f 16/12/10 28/32/29 27/31/28 15/10/8
f 17/14/12 29/33/30 28/32/29 16/12/10
f 18/16/14 30/34/31 29/33/30 17/14/12
f 19/18/16 31/35/32 30/34/31 18/16/14
f 20/20/18 32/36/33 31/35/32 19/18/16
f 21/22/20 33/37/34 32/36/33 20/20/18
f 22/24/22 34/38/35 33/37/34 21/22/20
f 23/26/24 35/39/36 34/38/35 22/24/22
f 24/3/3 36/28/26 35/39/36 23/26/24
f 25/27/25 37/40/37 48/41/38 36/28/26
f 26/29/27 38/42/39 37/43/37 25/30/25
f 27/31/28 39/44/40 38/42/39 26/29/27
f 28/32/29 40/45/41 39/44/40 27/31/28
f 29/33/30 41/46/42 40/45/41 28/32/29
f 30/34/31 42/47/43 41/46/42 29/33/30
f 31/35/32 43/48/44 42/47/43 30/34/31
f 32/36/33 44/49/45 43/48/44 31/35/32
f 33/37/34 45/50/46 44/49/45 32/36/33
f 34/38/35 46/51/47 45/50/46 33/37/34
f 35/39/36 47/52/48 46/51/47 34/38/35
f 36/28/26 48/41/38 47/52/48 35/39/36
f 37/40/37 49/53/49 60/54/50 48/41/38
f 38/42/39 50/55/51 49/56/49 37/43/37
f 39/44/40 51/57/52 50/55/51 38/42/39
f 40/45/41 52/58/53 51/57/52 39/44/40
f 41/46/42 53/59/54 52/58/53 40/45/41
f 42/47/43 54/60/55 53/59/54 41/46/42
f 43/48/44 55/61/56 54/60/55 42/47/43
f 44/49/45 56/62/57 55/61/56 43/48/44
f 45/50/46 57/63/58 56/62/57 44/49/45
f 46/51/47 58/64/59 57/63/58 45/50/46
f 47/52/48 59/65/60 58/64/59 46/51/47
f 48/41/38 60/54/50 59/65/60 47/52/48
f 49/53/49 61/66/61 72/67/62 60/54/50
f 50/55/51 62/68/63 61/69/61 49/56/49
f 51/57/52 63/70/64 62/68/63 50/55/51
f 52/58/53 64/71/65 63/70/64 51/57/52
f 53/59/54 65/72/66 64/71/65 52/58/53
f 54/60/55 66/73/67 65/72/66 53/59/54
f 55/61/56 67/74/68 66/73/67 54/60/55
f 56/62/57 68/75/69 67/74/68 55/61/56
f 57/63/58 69/76/70 68/75/69 56/62/57
f 58/64/59 70/77/71 69/76/70 57/63/58
f 59/65/60 71/78/72 70/77/71 58/64/59
f 60/54/50 72/67/62 71/78/72 59/65/60
f 61/66/61 73/79/73 84/80/74 72/67/62
f 62/68/63 74/81/75 73/82/73 61/69/61
f 63/70/64 75/83/76 74/81/75 62/68/63
f 64/71/65 76/84/77 75/83/76 63/70/64
f 65/72/66 77/85/78 76/84/77 64/71/65
f 66/73/67 78/86/79 77/85/78 65/72/66
f 67/74/68 79/87/80 78/86/79 66/73/67
f 68/75/69 80/88/81 79/87/80 67/74/68
f 69/76/70 81/89/82 80/88/81 68/75/69
f 70/77/71 82/90/83 81/89/82 69/76/70
f 71/78/72 83/91/84 82/90/83 70/77/71
f 72/67/62 84/80/74 83/91/84 71/78/72
f 73/79/73 85/92/85 96/93/86 84/80/74
f 74/81/75 86/94/87 85/95/85 73/82/73
f 75/83/76 87/96/88 86/94/87 74/81/75
f 76/84/77 88/97/89 87/96/88 75/83/76
f 77/85/78 89/98/90 88/97/89 76/84/77
f 78/86/79 90/99/91 89/98/90 77/85/78
f 79/87/80 91/100/92 90/99/91 78/86/79
f 80/88/81 92/101/93 91/100/92 79/87/80
f 81/89/82 93/102/94 92/101/93 80/88/81
f 82/90/83 94/103/95 93/102/94 81/89/82
f 83/91/84 95/104/96 94/103/95 82/90/83
f 84/80/74 96/93/86 95/104/96 83/91/84
f 85/92/85 97/105/97 108/106/98 96/93/86
f 86/94/87 98/107/99 97/108/97 85/95/85
f 87/96/88 99/109/100 98/107/99 86/94/87
f 88/97/89 100/110/101 99/109/100 87/96/88
f 89/98/90 101/111/102 100/110/101 88/97/89
f 90/99/91 102/112/103 101/111/102 89/98/90
f 91/100/92 103/113/104 102/112/103 90/99/91
f 92/101/93 104/114/105 103/113/104 91/100/92
f 93/102/94 105/115/106 104/114/105 92/101/93
f 94/103/95 106/116/107 105/115/106 93/102/94
f 95/104/96 107/117/108 106/116/107 94/103/95
f 96/93/86 108/106/98 107/117/108 95/104/96
f 97/105/97 109/118/109 120/119/110 108/106/98
f 98/107/99 110/120/111 109/121/109 97/108/97
f 99/109/100 111/122/112 110/120/111 98/107/99
f 100/110/101 112/123/113 111/122/112 99/109/100
f 101/111/102 113/124/114 112/123/113 100/110/101
f 102/112/103 114/125/115 113/124/114 101/111/102
f 103/113/104 115/126/116 114/125/115 102/112/103
f 104/114/105 116/127/117 115/126/116 103/113/104
f 105/115/106 117/128/118 116/127/117 104/114/105
f 106/116/107 118/129/119 117/128/118 105/115/106
f 107/117/108 119/130/120 118/129/119 106/116/107
f 108/106/98 120/119/110 119/130/120 107/117/108
f 109/118/109 121/131/121 132/132/122 120/119/110
f 110/120/111 122/133/123 121/134/121 109/121/109
f 111/122/112 123/135/124 122/133/123 110/120/111
f 112/123/113 124/136/125 123/135/124 111/122/112
f 113/124/114 125/137/126 124/136/125 112/123/113
f 114/125/115 126/138/127 125/137/126 113/124/114
f 115/126/116 127/139/128 126/138/127 114/125/115
f 116/127/117 128/140/129 127/139/128 115/126/116
f 117/128/118 129/141/130 128/140/129 116/127/117
f 118/129/119 130/142/131 129/141/130 117/128/118
f 119/130/120 131/143/132 130/142/131 118/129/119
f 120/119/110 132/132/122 131/143/132 119/130/120
f 121/131/121 133/144/133 144/145/134 132/132/122
f 122/133/123 134/146/135 133/147/133 121/134/121
f 123/135/124 135/148/136 134/146/135 122/133/123
f 124/136/125 136/149/137 135/148/136 123/135/124
f 125/137/126 137/150/138 136/149/137 124/136/125
f 126/138/127 138/151/139 137/150/138 125/137/126
f 127/139/128 139/152/140 138/151/139 126/138/127
f 128/140/129 140/153/141 139/152/140 127/139/128
f 129/141/130 141/154/142 140/153/141 128/140/129
f 130/142/131 142/155/143 141/154/142 129/141/130
f 131/143/132 143/156/144 142/155/143 130/142/131
f 132/132/122 144/145/134 143/156/144 131/143/132
f 133/144/133 145/157/145 156/158/146 144/145/134
f 134/146/135 146/159/147 145/160/145 133/147/133
f 135/148/136 147/161/148 146/159/147 134/146/135
f 136/149/137 148/162/149 147/161/148 135/148/136
f 137/150/138 149/163/150 148/162/149 136/149/137
f 138/151/139 150/164/151 149/163/150 137/150/138
f 139/152/140 151/165/152 150/164/151 138/151/139
f 140/153/141 152/166/153 151/165/152 139/152/140
f 141/154/142 153/167/154 152/166/153 140/153/141
f 142/155/143 154/168/155 153/167/154 141/154/142
f 143/156/144 155/169/156 154/168/155 142/155/143
f 144/145/134 156/158/146 155/169/156 143/156/144
f 145/157/145 157/170/157 168/171/158 156/158/146
f 146/159/147 158/172/159 157/173/157 145/160/145
f 147/161/148 159/174/160 158/172/159 146/159/147
f 148/162/149 160/175/161 159/174/160 147/161/148
f 149/163/150 161/176/162 160/175/161 148/162/149
f 150/164/151 162/177/163 161/176/162 149/163/150
f 151/165/152 163/178/164 162/177/163 150/164/151
f 152/166/153 164/179/165 163/178/164 151/165/152
f 153/167/154 165/180/166 164/179/165 152/166/153
f 154/168/155 166/181/167 165/180/166 153/167/154
f 155/169/156 167/182/168 166/181/167 154/168/155
f 156/158/146 168/171/158 167/182/168 155/169/156
f 157/170/157 169/183/169 180/184/170 168/171/158
f 158/172/159 170/185/171 169/186/169 157/173/157
f 159/174/160 171/187/172 170/185/171 158/172/159
f 160/175/161 172/188/173 171/187/172 159/174/160
f 161/176/162 173/189/174 172/188/173 160/175/161
f 162/177/163 174/190/175 173/189/174 161/176/162
f 163/178/164 175/191/176 174/190/175 162/177/163
f 164/179/165 176/192/177 175/191/176 163/178/164
f 165/180/166 177/193/178 176/192/177 164/179/165
f 166/181/167 178/194/179 177/193/178 165/180/166
f 167/182/168 179/195/180 178/194/179 166/181/167
f 168/171/158 180/184/170 179/195/180 167/182/168
f 169/183/169 181/196/181 192/197/182 180/184/170
f 170/185/171 182/198/183 181/199/181 169/186/169
f 171/187/172 183/200/184 182/198/183 170/185/171
f 172/188/173 184/201/185 183/200/184 171/187/172
f 173/189/174 185/202/186 184/201/185 172/188/173
f 174/190/175 186/203/187 185/202/186 173/189/174
f 175/191/176 187/204/188 186/203/187 174/190/175
f 176/192/177 188/205/189 187/204/188 175/191/176
f 177/193/178 189/206/190 188/205/189 176/192/177
f 178/194/179 190/207/191 189/206/190 177/193/178
f 179/195/180 191/208/192 190/207/191 178/194/179
f 180/184/170 192/197/182 191/208/192 179/195/180
f 181/196/181 193/209/193 204/210/194 192/197/182
f 182/198/183 194/211/195 193/212/193 181/199/181
f 183/200/184 195/213/196 194/211/195 182/198/183
f 184/201/185 196/214/197 195/213/196 183/200/184
f 185/202/186 197/215/198 196/214/197 184/201/185
f 186/203/187 198/216/199 197/215/198 185/202/186
f 187/204/188 199/217/200 198/216/199 186/203/187
f 188/205/189 200/218/201 199/217/200 187/204/188
f 189/206/190 201/219/202 200/218/201 188/205/189
f 190/207/191 202/220/203 201/219/202 189/206/190
f 191/208/192 203/221/204 202/220/203 190/207/191
f 192/197/182 204/210/194 203/221/204 191/208/192
f 193/209/193 205/222/205 216/223/206 204/210/194
f 194/211/195 206/224/207 205/225/205 193/212/193
f 195/213/196 207/226/208 206/224/207 194/211/195
f 196/214/197 208/227/209 207/226/208 195/213/196
f 197/215/198 209/228/210 208/227/209 196/214/197
f 198/216/199 210/229/211 209/228/210 197/215/198
f 199/217/200 211/230/212 210/229/211 198/216/199
f 200/218/201 212/231/213 211/230/212 199/217/200
f 201/219/202 213/232/214 212/231/213 200/218/201
f 202/220/203 214/233/215 213/232/214 201/219/202
f 203/221/204 215/234/216 214/233/215 202/220/203
f 204/210/194 216/223/206 215/234/216 203/221/204
f 205/222/205 217/235/217 228/236/218 216/223/206
f 206/224/207 218/237/219 217/238/217 205/225/205
f 207/226/208 219/239/220 218/237/219 206/224/207
f 208/227/209 220/240/221 219/239/220 207/226/208
f 209/228/210 221/241/222 220/240/221 208/227/209
f 210/229/211 222/242/223 221/241/222 209/228/210
f 211/230/212 223/243/224 222/242/223 210/229/211
f 212/231/213 224/244/225 223/243/224 211/230/212
f 213/232/214 225/245/226 224/244/225 212/231/213
f 214/233/215 226/246/227 225/245/226 213/232/214
f 215/234/216 227/247/228 226/246/227 214/233/215
f 216/223/206 228/236/218 227/247/228 215/234/216
f 217/235/217 229/248/229 240/249/230 228/236/218
f 218/237/219 230/250/231 229/251/229 217/238/217
f 219/239/220 231/252/232 230/250/231 218/237/219
f 220/240/221 232/253/233 231/252/232 219/239/220
f 221/241/222 233/254/234 232/253/233 220/240/221
f 222/242/223 234/255/235 233/254/234 221/241/222
f 223/243/224 235/256/236 234/255/235 222/242/223
f 224/244/225 236/257/237 235/256/236 223/243/224
f 225/245/226 237/258/238 236/257/237 224/244/225
f 226/246/227 238/259/239 237/258/238 225/245/226
f 227/247/228 239/260/240 238/259/239 226/246/227
f 228/236/218 240/249/230 239/260/240 227/247/228
f 229/248/229 241/261/241 252/262/242 240/249/230
f 230/250/231 242/263/243 241/264/241 229/251/229
f 231/252/232 243/265/244 242/263/243 230/250/231
f 232/253/233 244/266/245 243/265/244 231/252/232
f 233/254/234 245/267/246 244/266/245 232/253/233
f 234/255/235 246/268/247 245/267/246 233/254/234
f 235/256/236 247/269/248 246/268/247 234/255/235
f 236/257/237 248/270/249 247/269/248 235/256/236
f 237/258/238 249/271/250 248/270/249 236/257/237
f 238/259/239 250/272/251 249/271/250 237/258/238
f 239/260/240 251/273/252 250/272/251 238/259/239
f 240/249/230 252/262/242 251/273/252 239/260/240
f 241/261/241 253/274/253 264/275/254 252/262/242
f 242/263/243 254/276/255 253/277/253 241/264/241
f 243/265/244 255/278/256 254/276/255 242/263/243
f 244/266/245 256/279/257 255/278/256 243/265/244
f 245/267/246 257/280/258 256/279/257 244/266/245
f 246/268/247 258/281/259 257/280/258 245/267/246
f 247/269/248 259/282/260 258/281/259 246/268/247
f 248/270/249 260/283/261 259/282/260 247/269/248
f 249/271/250 261/284/262 260/283/261 248/270/249
f 250/272/251 262/285/263 261/284/262 249/271/250
f 251/273/252 263/286/264 262/285/263 250/272/251
f 252/262/242 264/275/254 263/286/264 251/273/252
f 253/274/253 265/287/265 276/288/266 264/275/254
f 254/276/255 266/289/267 265/290/265 253/277/253
f 255/278/256 267/291/268 266/289/267 254/276/255
f 256/279/257 268/292/269 267/291/268 255/278/256
f 257/280/258 269/293/270 268/292/269 256/279/257
f 258/281/259 270/294/271 269/293/270 257/280/258
f 259/282/260 271/295/272 270/294/271 258/281/259
f 260/283/261 272/296/273 271/295/272 259/282/260
f 261/284/262 273/297/274 272/296/273 260/283/261
f 262/285/263 274/298/275 273/297/274 261/284/262
f 263/286/264 275/299/276 274/298/275 262/285/263
f 264/275/254 276/288/266 275/299/276 263/286/264
f 265/287/265 277/300/277 288/301/278 276/288/266
f 266/289/267 278/302/279 277/303/277 265/290/265
f 267/291/268 279/304/280 278/302/279 266/289/267
f 268/292/269 280/305/281 279/304/280 267/291/268
f 269/293/270 281/306/282 280/305/281 268/292/269
f 270/294/271 282/307/283 281/306/282 269/293/270
f 271/295/272 283/308/284 282/307/283 270/294/271
f 272/296/273 284/309/285 283/308/284 271/295/272
f 273/297/274 285/310/286 284/309/285 272/296/273
f 274/298/275 286/311/287 285/310/286 273/297/274
f 275/299/276 287/312/288 286/311/287 274/298/275
f 276/288/266 288/301/278 287/312/288 275/299/276
f 277/300/277 289/313/289 300/314/13 288/301/278
f 278/302/279 290/315/290 289/316/289 277/303/277
f 279/304/280 291/317/291 290/315/290 278/302/279
f 280/305/281 292/318/292 291/317/291 279/304/280
f 281/306/282 293/319/293 292/318/292 280/305/281
f 282/307/283 294/320/4 293/319/293 281/306/282
f 283/308/284 295/321/294 294/320/4 282/307/283
f 284/309/285 296/322/295 295/321/294 283/308/284
f 285/310/286 297/323/296 296/322/295 284/309/285
f 286/311/287 298/324/297 297/323/296 285/310/286
f 287/312/288 299/325/298 298/324/297 286/311/287
f 288/301/278 300/314/13 299/325/298 287/312/288
f 289/313/289 301/326/299 312/327/14 300/314/13
f 290/315/290 302/328/300 301/329/299 289/316/289
f 291/317/291 303/330/301 302/328/300 290/315/290
f 292/318/292 304/331/302 303/330/301 291/317/291
f 293/319/293 305/332/303 304/331/302 292/318/292
f 294/320/4 306/333/3 305/332/303 293/319/293
f 295/321/294 307/334/304 306/333/3 294/320/4
f 296/322/295 308/335/305 307/334/304 295/321/294
f 297/323/296 309/336/306 308/335/305 296/322/295
f 298/324/297 310/337/307 309/336/306 297/323/296
f 299/325/298 311/338/308 310/337/307 298/324/297
f 300/314/13 312/327/14 311/338/308 299/325/298
f 301/326/299 313/339/309 324/340/310 312/327/14
f 302/328/300 314/341/311 313/342/309 301/329/299
f 303/330/301 315/343/312 314/341/311 302/328/300
f 304/331/302 316/344/313 315/343/312 303/330/301
f 305/332/303 317/345/314 316/344/313 304/331/302
f 306/333/3 318/346/315 317/345/314 305/332/303
f 307/334/304 319/347/316 318/346/315 306/333/3
f 308/335/305 320/348/317 319/347/316 307/334/304
f 309/336/306 321/349/318 320/348/317 308/335/305
f 310/337/307 322/350/319 321/349/318 309/336/306
f 311/338/308 323/351/320 322/350/319 310/337/307
f 312/327/14 324/340/310 323/351/320 311/338/308
f 313/339/309 325/352/321 336/353/322 324/340/310
f 314/341/311 326/354/323 325/355/321 313/342/309
f 315/343/312 327/356/324 326/354/323 314/341/311
f 316/344/313 328/357/325 327/356/324 315/343/312
f 317/345/314 329/358/326 328/357/325 316/344/313
f 318/346/315 330/359/327 329/358/326 317/345/314
f 319/347/316 331/360/328 330/359/327 318/346/315
f 320/348/317 332/361/329 331/360/328 319/347/316
f 321/349/318 333/362/330 332/361/329 320/348/317
f 322/350/319 334/363/331 333/362/330 321/349/318
f 323/351/320 335/364/332 334/363/331 322/350/319
f 324/340/310 336/353/322 335/364/332 323/351/320
f 325/352/321 337/365/333 348/366/334 336/353/322
f 326/354/323 338/367/335 337/368/333 325/355/321
f 327/356/324 339/369/336 338/367/335 326/354/323
f 328/357/325 340/370/337 339/369/336 327/356/324
f 329/358/326 341/371/338 340/370/337 328/357/325
f 330/359/327 342/372/339 341/371/338 329/358/326
f 331/360/328 343/373/340 342/372/339 330/359/327
f 332/361/329 344/374/341 343/373/340 331/360/328
f 333/362/330 345/375/342 344/374/341 332/361/329
f 334/363/331 346/376/343 345/375/342 333/362/330
f 335/364/332 347/377/344 346/376/343 334/363/331
f 336/353/322 348/366/334 347/377/344 335/364/332
f 337/365/333 349/378/345 360/379/346 348/366/334
f 338/367/335 350/380/347 349/381/345 337/368/333
f 339/369/336 351/382/348 350/380/347 338/367/335
f 340/370/337 352/383/349 351/382/348 339/369/336
f 341/371/338 353/384/350 352/383/349 340/370/337
f 342/372/339 354/385/351 353/384/350 341/371/338
f 343/373/340 355/386/352 354/385/351 342/372/339
f 344/374/341 356/387/353 355/386/352 343/373/340
f 345/375/342 357/388/354 356/387/353 344/374/341
f 346/376/343 358/389/355 357/388/354 345/375/342
f 347/377/344 359/390/356 358/389/355 346/376/343
f 348/366/334 360/379/346 359/390/356 347/377/344
f 349/378/345 361/391/357 372/392/79 360/379/346
f 350/380/347 362/393/358 361/394/357 349/381/345
f 351/382/348 363/395/359 362/393/358 350/380/347
f 352/383/349 364/396/360 363/395/359 351/382/348
f 353/384/350 365/397/361 364/396/360 352/383/349
f 354/385/351 366/398/74 365/397/361 353/384/350
f 355/386/352 367/399/362 366/398/74 354/385/351
f 356/387/353 368/400/363 367/399/362 355/386/352
f 357/388/354 369/401/364 368/400/363 356/387/353
f 358/389/355 370/402/365 369/401/364 357/388/354
f 359/390/356 371/403/366 370/402/365 358/389/355
f 360/379/346 372/392/79 371/403/366 359/390/356
f 361/391/357 373/404/367 384/405/368 372/392/79
f 362/393/358 374/406/369 373/407/367 361/394/357
f 363/395/359 375/408/370 374/406/369 362/393/358
f 364/396/360 376/409/371 375/408/370 363/395/359
f 365/397/361 377/410/372 376/409/371 364/396/360
f 366/398/74 378/411/373 377/410/372 365/397/361
f 367/399/362 379/412/374 378/411/373 366/398/74
f 368/400/363 380/413/375 379/412/374 367/399/362
f 369/401/364 381/414/376 380/413/375 368/400/363
f 370/402/365 382/415/377 381/414/376 369/401/364
f 371/403/366 383/416/378 382/415/377 370/402/365
f 372/392/79 384/405/368 383/416/378 371/403/366
f 373/404/367 385/417/379 396/418/380 384/405/368
f 374/406/369 386/419/381 385/420/379 373/407/367
f 375/408/370 387/421/382 386/419/381 374/406/369
f 376/409/371 388/422/383 387/421/382 375/408/370
f 377/410/372 389/423/384 388/422/383 376/409/371
f 378/411/373 390/424/385 389/423/384 377/410/372
f 379/412/374 391/425/386 390/424/385 378/411/373
f 380/413/375 392/426/387 391/425/386 379/412/374
f 381/414/376 393/427/388 392/426/387 380/413/375
f 382/415/377 394/428/389 393/427/388 381/414/376
f 383/416/378 395/429/390 394/428/389 382/415/377
f 384/405/368 396/418/380 395/429/390 383/416/378
f 385/417/379 397/430/391 408/431/392 396/418/380
f 386/419/381 398/432/393 397/433/391 385/420/379
f 387/421/382 399/434/394 398/432/393 386/419/381
f 388/422/383 400/435/395 399/434/394 387/421/382
f 389/423/384 401/436/396 400/435/395 388/422/383
f 390/424/385 402/437/397 401/436/396 389/423/384
f 391/425/386 403/438/398 402/437/397 390/424/385
f 392/426/387 404/439/399 403/438/398 391/425/386
f 393/427/388 405/440/400 404/439/399 392/426/387
f 394/428/389 406/441/401 405/440/400 393/427/388
f 395/429/390 407/442/402 406/441/401 394/428/389
f 396/418/380 408/431/392 407/442/402 395/429/390
f 397/430/391 409/443/403 420/444/404 408/431/392
f 398/432/393 410/445/405 409/446/403 397/433/391
f 399/434/394 411/447/406 410/445/405 398/432/393
f 400/435/395 412/448/407 411/447/406 399/434/394
f 401/436/396 413/449/408 412/448/407 400/435/395
f 402/437/397 414/450/409 413/449/408 401/436/396
f 403/438/398 415/451/410 414/450/409 402/437/397
f 404/439/399 416/452/411 415/451/410 403/438/398
f 405/440/400 417/453/412 416/452/411 404/439/399
f 406/441/401 418/454/413 417/453/412 405/440/400
f 407/442/402 419/455/414 418/454/413 406/441/401
f 408/431/392 420/444/404 419/455/414 407/442/402
f 409/443/403 421/456/415 432/457/139 420/444/404
f 410/445/405 422/458/416 421/459/415 409/446/403
f 411/447/406 423/460/417 422/458/416 410/445/405
f 412/448/407 424/461/418 423/460/417 411/447/406
f 413/449/408 425/462/419 424/461/418 412/448/407
f 414/450/409 426/463/134 425/462/419 413/449/408
f 415/451/410 427/464/420 426/463/134 414/450/409
f 416/452/411 428/465/421 427/464/420 415/451/410
f 417/453/412 429/466/422 428/465/421 416/452/411
f 418/454/413 430/467/423 429/466/422 417/453/412
f 419/455/414 431/468/424 430/467/423 418/454/413
f 420/444/404 432/457/139 431/468/424 419/455/414
f 421/456/415 433/469/425 444/470/151 432/457/139
f 422/458/416 434/471/426 433/472/425 421/459/415
f 423/460/417 435/473/427 434/471/426 422/458/416
f 424/461/418 436/474/428 435/473/427 423/460/417
f 425/462/419 437/475/429 436/474/428 424/461/418
f 426/463/134 438/476/146 437/475/429 425/462/419
f 427/464/420 439/477/430 438/476/146 426/463/134
f 428/465/421 440/478/431 439/477/430 427/464/420
f 429/466/422 441/479/432 440/478/431 428/465/421
f 430/467/423 442/480/433 441/479/432 429/466/422
f 431/468/424 443/481/434 442/480/433 430/467/423
f 432/457/139 444/470/151 443/481/434 431/468/424
f 433/469/425 445/482/435 456/483/163 444/470/151
f 434/471/426 446/484/436 445/485/435 433/472/425
f 435/473/427 447/486/437 446/484/436 434/471/426
f 436/474/428 448/487/438 447/486/437 435/473/427
f 437/475/429 449/488/439 448/487/438 436/474/428
f 438/476/146 450/489/158 449/488/439 437/475/429
f 439/477/430 451/490/440 450/489/158 438/476/146
f 440/478/431 452/491/441 451/490/440 439/477/430
f 441/479/432 453/492/442 452/491/441 440/478/431
f 442/480/433 454/493/443 453/492/442 441/479/432
f 443/481/434 455/494/444 454/493/443 442/480/433
f 444/470/151 456/483/163 455/494/444 443/481/434
f 445/482/435 457/495/445 468/496/446 456/483/163
f 446/484/436 458/497/447 457/498/445 445/485/435
f 447/486/437 459/499/448 458/497/447 446/484/436
f 448/487/438 460/500/449 459/499/448 447/486/437
f 449/488/439 461/501/450 460/500/449 448/487/438
f 450/489/158 462/502/451 461/501/450 449/488/439
f 451/490/440 463/503/452 462/502/451 450/489/158
f 452/491/441 464/504/453 463/503/452 451/490/440
f 453/492/442 465/505/454 464/504/453 452/491/441
f 454/493/443 466/506/455 465/505/454 453/492/442
f 455/494/444 467/507/456 466/506/455 454/493/443
f 456/483/163 468/496/446 467/507/456 455/494/444
f 457/495/445 469/508/457 480/509/458 468/496/446
f 458/497/447 470/510/459 469/511/457 457/498/445
f 459/499/448 471/512/460 470/510/459 458/497/447
f 460/500/449 472/513/461 471/512/460 459/499/448
f 461/501/450 473/514/462 472/513/461 460/500/449
f 462/502/451 474/515/463 473/514/462 461/501/450
f 463/503/452 475/516/464 474/515/463 462/502/451
f 464/504/453 476/517/465 475/516/464 463/503/452
f 465/505/454 477/518/466 476/517/465 464/504/453
f 466/506/455 478/519/467 477/518/466 465/505/454
f 467/507/456 479/520/468 478/519/467 466/506/455
f 468/496/446 480/509/458 479/520/468 467/507/456
f 469/508/457 481/521/469 492/522/470 480/509/458
f 470/510/459 482/523/471 481/524/469 469/511/457
f 471/512/460 483/525/472 482/523/471 470/510/459
f 472/513/461 484/526/473 483/525/472 471/512/460
f 473/514/462 485/527/474 484/526/473 472/513/461
f 474/515/463 486/528/475 485/527/474 473/514/462
f 475/516/464 487/529/476 486/528/475 474/515/463
f 476/517/465 488/530/477 487/529/476 475/516/464
f 477/518/466 489/531/478 488/530/477 476/517/465
f 478/519/467 490/532/479 489/531/478 477/518/466
f 479/520/468 491/533/480 490/532/479 478/519/467
f 480/509/458 492/522/470 491/533/480 479/520/468
f 481/521/469 493/534/481 504/535/482 492/522/470
f 482/523/471 494/536/483 493/537/481 481/524/469
f 483/525/472 495/538/484 494/536/483 482/523/471
f 484/526/473 496/539/485 495/538/484 483/525/472
f 485/527/474 497/540/486 496/539/485 484/526/473
f 486/528/475 498/541/487 497/540/486 485/527/474
f 487/529/476 499/542/488 498/541/487 486/528/475
f 488/530/477 500/543/489 499/542/488 487/529/476
f 489/531/478 501/544/490 500/543/489 488/530/477
f 490/532/479 502/545/491 501/544/490 489/531/478
f 491/533/480 503/546/492 502/545/491 490/532/479
f 492/522/470 504/535/482 503/546/492 491/533/480
f 493/534/481 505/547/493 516/548/223 504/535/482
f 494/536/483 506/549/494 505/550/493 493/537/481
f 495/538/484 507/551/495 506/549/494 494/536/483
f 496/539/485 508/552/496 507/551/495 495/538/484
f 497/540/486 509/553/497 508/552/496 496/539/485
f 498/541/487 510/554/218 509/553/497 497/540/486
f 499/542/488 511/555/498 510/554/218 498/541/487
f 500/543/489 512/556/499 511/555/498 499/542/488
f 501/544/490 513/557/500 512/556/499 500/543/489
f 502/545/491 514/558/501 513/557/500 501/544/490
f 503/546/492 515/559/502 514/558/501 502/545/491
f 504/535/482 516/548/223 515/559/502 503/546/492
f 505/547/493 517/560/503 528/561/504 516/548/223
f 506/549/494 518/562/505 517/563/503 505/550/493
f 507/551/495 519/564/506 518/562/505 506/549/494
f 508/552/496 520/565/507 519/564/506 507/551/495
f 509/553/497 521/566/508 520/565/507 508/552/496
f 510/554/218 522/567/509 521/566/508 509/553/497
f 511/555/498 523/568/510 522/567/509 510/554/218
f 512/556/499 524/569/511 523/568/510 511/555/498
f 513/557/500 525/570/512 524/569/511 512/556/499
f 514/558/501 526/571/513 525/570/512 513/557/500
f 515/559/502 527/572/514 526/571/513 514/558/501
f 516/548/223 528/561/504 527/572/514 515/559/502
f 517/560/503 529/573/515 540/574/516 528/561/504
f 518/562/505 530/575/517 529/576/515 517/563/503
f 519/564/506 531/577/518 530/575/517 518/562/505
f 520/565/507 532/578/519 531/577/518 519/564/506
f 521/566/508 533/579/520 532/578/519 520/565/507
f 522/567/509 534/580/521 533/579/520 521/566/508
f 523/568/510 535/581/522 534/580/521 522/567/509
f 524/569/511 536/582/523 535/581/522 523/568/510
f 525/570/512 537/583/524 536/582/523 524/569/511
f 526/571/513 538/584/525 537/583/524 525/570/512
f 527/572/514 539/585/526 538/584/525 526/571/513
f 528/561/504 540/574/516 539/585/526 527/572/514
f 529/573/515 541/586/527 552/587/528 540/574/516
f 530/575/517 542/588/529 541/589/527 529/576/515
f 531/577/518 543/590/530 542/588/529 530/575/517
f 532/578/519 544/591/531 543/590/530 531/577/518
f 533/579/520 545/592/532 544/591/531 532/578/519
f 534/580/521 546/593/533 545/592/532 533/579/520
f 535/581/522 547/594/534 546/593/533 534/580/521
f 536/582/523 548/595/535 547/594/534 535/581/522
f 537/583/524 549/596/536 548/595/535 536/582/523
f 538/584/525 550/597/537 549/596/536 537/583/524
f 539/585/526 551/598/538 550/597/537 538/584/525
f 540/574/516 552/587/528 551/598/538 539/585/526
f 541/586/527 553/599/539 564/600/540 552/587/528
f 542/588/529 554/601/541 553/602/539 541/589/527
f 543/590/530 555/603/542 554/601/541 542/588/529
f 544/591/531 556/604/543 555/603/542 543/590/530
f 545/592/532 557/605/544 556/604/543 544/591/531
f 546/593/533 558/606/545 557/605/544 545/592/532
f 547/594/534 559/607/546 558/606/545 546/593/533
f 548/595/535 560/608/547 559/607/546 547/594/534
f 549/596/536 561/609/548 560/608/547 548/595/535
f 550/597/537 562/610/549 561/609/548 549/596/536
f 551/598/538 563/611/550 562/610/549 550/597/537
f 552/587/528 564/600/540 563/611/550 551/598/538
f 553/599/539 565/612/551 576/613/283 564/600/540
f 554/601/541 566/614/552 565/615/551 553/602/539
f 555/603/542 567/616/553 566/614/552 554/601/541
f 556/604/543 568/617/554 567/616/553 555/603/542
f 557/605/544 569/618/555 568/617/554 556/604/543
f 558/606/545 570/619/278 569/618/555 557/605/544
f 559/607/546 571/620/556 570/619/278 558/606/545
f 560/608/547 572/621/557 571/620/556 559/607/546
f 561/609/548 573/622/558 572/621/557 560/608/547
f 562/610/549 574/623/559 573/622/558 561/609/548
f 563/611/550 575/624/560 574/623/559 562/610/549
f 564/600/540 576/613/283 575/624/560 563/611/550
f 565/612/551 1/625/1 12/626/4 576/613/283
f 566/614/552 2/627/5 1/628/1 565/615/551
f 567/616/553 3/629/7 2/627/5 566/614/552
f 568/617/554 4/630/9 3/629/7 567/616/553
f 569/618/555 5/631/11 4/630/9 568/617/554
f 570/619/278 6/632/13 5/631/11 569/618/555
f 571/620/556 7/633/15 6/632/13 570/619/278
f 572/621/557 8/634/17 7/633/15 571/620/556
f 573/622/558 9/635/19 8/634/17 572/621/557
f 574/623/559 10/636/21 9/635/19 573/622/558
f 575/624/560 11/637/23 10/636/21 574/623/559
f 576/613/283 12/626/4 11/637/23 575/624/560
