# Blender v2.93.3 OBJ File: 'untitled.blend'
# www.blender.org
o BezierCurve.009_BezierCurve.003
v -107.438072 0.000000 15.107578
v -104.591270 0.000000 15.125745
v -101.969856 0.000000 15.139647
v -99.508156 0.000000 15.149981
v -97.140518 0.000000 15.157449
v -94.801277 0.000000 15.162748
v -92.424767 0.000000 15.166578
v -89.945335 0.000000 15.169637
v -87.297318 0.000000 15.172624
v -84.415047 0.000000 15.176237
v -81.232864 0.000000 15.181176
v -77.685112 0.000000 15.188140
v -73.706123 0.000000 15.197826
l 1 2
l 2 3
l 3 4
l 4 5
l 5 6
l 6 7
l 7 8
l 8 9
l 9 10
l 10 11
l 11 12
l 12 13
