# Blender v2.93.3 OBJ File: 'untitled.blend'
# www.blender.org
o BezierCurve.012_BezierCurve.001
v -103.885132 3.303497 27.503279
v -103.522438 3.160790 27.437307
v -103.130356 2.840769 27.591820
v -102.700928 2.347024 27.962585
v -102.231598 1.728372 28.489197
v -101.719772 1.033629 29.111240
v -101.162880 0.311611 29.768311
v -100.558350 -0.388865 30.399996
v -99.903603 -1.018984 30.945889
v -99.196053 -1.529930 31.345577
v -98.433128 -1.872885 31.538654
v -97.612259 -1.999035 31.464710
v -96.735268 -1.884143 31.117842
v -95.852081 -1.618623 30.731249
v -95.100563 -1.351309 30.601994
v -94.496025 -1.121385 30.748556
v -94.015533 -0.936539 31.114510
v -93.636154 -0.804462 31.643427
v -93.334953 -0.732841 32.278877
v -93.089005 -0.729366 32.964436
v -92.875366 -0.801725 33.643669
v -92.671104 -0.957608 34.260151
v -92.453293 -1.204702 34.757454
v -92.198997 -1.550697 35.079151
v -91.860329 -2.038092 35.161434
v -91.377121 -2.722403 34.932808
v -90.951706 -3.283177 34.406395
v -90.623032 -3.650099 33.636131
v -90.367294 -3.846938 32.680691
v -90.160698 -3.897464 31.598745
v -89.979446 -3.825449 30.448973
v -89.799744 -3.654663 29.290047
v -89.597794 -3.408875 28.180641
v -89.349800 -3.111856 27.179432
v -89.031967 -2.787378 26.345095
v -88.620499 -2.459211 25.736303
v -88.032829 -2.113007 25.385815
v -87.086754 -1.645420 25.249453
v -86.013191 -1.141183 25.346104
v -84.899605 -0.637813 25.649494
v -83.763756 -0.145157 26.115366
v -82.623413 0.326940 26.699474
v -81.496323 0.768630 27.357563
v -80.400246 1.170069 28.045380
v -79.352951 1.521408 28.718676
v -78.372200 1.812804 29.333195
v -77.475739 2.034408 29.844688
v -76.681328 2.176375 30.208902
v -75.983818 2.245414 30.420881
v -103.705963 3.246052 27.453001
v -103.330902 3.025546 27.483757
v -102.920471 2.612561 27.753946
v -102.471413 2.050260 28.210186
v -101.981155 1.387461 28.792065
v -101.447121 0.672979 29.439173
v -100.866730 -0.044371 30.091103
v -100.237411 -0.715770 30.687443
v -99.556587 -1.292405 31.167784
v -98.821671 -1.725457 31.471718
v -98.030098 -1.966112 31.538836
v -97.179840 -1.968626 31.315538
v -96.285347 -1.759962 30.907579
v -95.456520 -1.480773 30.628616
v -94.781357 -1.231193 30.644323
v -94.241707 -1.022847 30.907637
v -93.814636 -0.863424 31.362125
v -93.477219 -0.760614 31.951363
v -93.206505 -0.722105 32.618919
v -92.979576 -0.755586 33.308369
v -92.773499 -0.868746 33.963280
v -92.565331 -1.069273 34.527225
v -92.332146 -1.364857 34.943779
v -92.047882 -1.767537 35.155590
v -91.625694 -2.373653 35.086823
v -91.150833 -3.028507 34.703751
v -90.776764 -3.489384 34.048080
v -90.487534 -3.768293 33.177891
v -90.259338 -3.889004 32.151863
v -90.068390 -3.875289 31.028671
v -89.890884 -3.750916 29.866987
v -89.703033 -3.539658 28.725487
v -89.481041 -3.265284 27.662846
v -89.201103 -2.951565 26.737738
v -88.839424 -2.622270 26.008839
v -88.364868 -2.296407 25.531584
v -87.594269 -1.891328 25.290234
v -86.556084 -1.393808 25.269171
v -85.460289 -0.888774 25.474722
v -84.333351 -0.389530 25.864885
v -83.193039 0.094077 26.395407
v -82.057098 0.552201 27.022038
v -80.943298 0.974996 27.700521
v -79.869392 1.352616 28.386608
v -78.853149 1.675215 29.036047
v -77.912315 1.932945 29.604586
v -77.064667 2.115962 30.047970
v -76.325081 2.216487 30.326862
l 1 50
l 50 2
l 2 51
l 51 3
l 3 52
l 52 4
l 4 53
l 53 5
l 5 54
l 54 6
l 6 55
l 55 7
l 7 56
l 56 8
l 8 57
l 57 9
l 9 58
l 58 10
l 10 59
l 59 11
l 11 60
l 60 12
l 12 61
l 61 13
l 13 62
l 62 14
l 14 63
l 63 15
l 15 64
l 64 16
l 16 65
l 65 17
l 17 66
l 66 18
l 18 67
l 67 19
l 19 68
l 68 20
l 20 69
l 69 21
l 21 70
l 70 22
l 22 71
l 71 23
l 23 72
l 72 24
l 24 73
l 73 25
l 25 74
l 74 26
l 26 75
l 75 27
l 27 76
l 76 28
l 28 77
l 77 29
l 29 78
l 78 30
l 30 79
l 79 31
l 31 80
l 80 32
l 32 81
l 81 33
l 33 82
l 82 34
l 34 83
l 83 35
l 35 84
l 84 36
l 36 85
l 85 37
l 37 86
l 86 38
l 38 87
l 87 39
l 39 88
l 88 40
l 40 89
l 89 41
l 41 90
l 90 42
l 42 91
l 91 43
l 43 92
l 92 44
l 44 93
l 93 45
l 45 94
l 94 46
l 46 95
l 95 47
l 47 96
l 96 48
l 48 97
l 97 49
