# Blender v2.93.3 OBJ File: 'untitled.blend'
# www.blender.org
o BezierCircle.014_BezierCircle.011
v -142.936111 -7.417644 88.620346
v -142.652100 -7.558794 86.973930
v -142.217133 -7.396859 85.449303
v -141.636948 -6.979276 84.051826
v -140.917206 -6.353488 82.786880
v -140.063644 -5.566935 81.659828
v -139.081955 -4.667057 80.676041
v -137.977829 -3.701294 79.840889
v -136.756989 -2.717088 79.159744
v -135.425140 -1.761879 78.637985
v -133.987961 -0.883107 78.280968
v -132.451172 -0.128213 78.094078
v -130.820480 0.455362 78.082672
v -129.465027 0.810279 78.319412
v -128.369659 1.023080 78.853180
v -127.475220 1.114971 79.629860
v -126.722549 1.107157 80.595322
v -126.052475 1.020845 81.695442
v -125.405830 0.877240 82.876099
v -124.723457 0.697548 84.083168
v -123.946190 0.502976 85.262520
v -123.014862 0.314730 86.360039
v -121.870300 0.154014 87.321602
v -120.453354 0.042036 88.093079
v -118.704849 0.000000 88.620346
v -117.510849 0.123518 89.008537
v -117.126640 0.466901 89.515472
v -117.429474 0.989403 90.139442
v -118.296616 1.650280 90.878700
v -119.605339 2.408787 91.731529
v -121.232887 3.224179 92.696190
v -123.056541 4.055711 93.770966
v -124.953560 4.862639 94.954117
v -126.801193 5.604218 96.243927
v -128.476715 6.239704 97.638657
v -129.857391 6.728351 99.136581
v -130.820480 7.029417 100.735977
v -132.039505 7.035575 102.882645
v -133.378052 6.497873 104.104607
v -134.788864 5.513465 104.507118
v -136.224640 4.179504 104.195419
v -137.638107 2.593145 103.274773
v -138.981979 0.851540 101.850410
v -140.208984 -0.948157 100.027596
v -141.271851 -2.708792 97.911568
v -142.123260 -4.333212 95.607574
v -142.715973 -5.724263 93.220879
v -143.002686 -6.784792 90.856720
v -142.936111 -7.417644 88.620346
v -143.977768 -7.693734 88.913292
v -144.991241 -8.028811 89.132957
v -145.977371 -8.401267 89.301018
v -146.936951 -8.789497 89.439186
v -147.870789 -9.171895 89.569138
v -148.779724 -9.526853 89.712578
v -149.664551 -9.832763 89.891205
v -150.526093 -10.068020 90.126701
v -151.365143 -10.211017 90.440765
v -152.182556 -10.240148 90.855095
v -152.979111 -10.133805 91.391380
v -153.755630 -9.870381 92.071320
v -154.933823 -9.284622 93.880074
v -155.344177 -8.952695 96.076332
v -155.094238 -8.829686 98.560226
v -154.291504 -8.870679 101.231895
v -153.043503 -9.030760 103.991455
v -151.457764 -9.265014 106.739052
v -149.641815 -9.528524 109.374809
v -147.703156 -9.776379 111.798851
v -145.749313 -9.963660 113.911324
v -143.887817 -10.045455 115.612343
v -142.226181 -9.976848 116.802048
v -140.871918 -9.712921 117.380569
v -138.753464 -9.127212 117.297020
v -136.810989 -8.767536 116.260826
v -135.043610 -8.589777 114.455750
v -133.450500 -8.549815 112.065552
v -132.030777 -8.603535 109.273972
v -130.783615 -8.706817 106.264786
v -129.708130 -8.815545 103.221733
v -128.803497 -8.885602 100.328575
v -128.068848 -8.872870 97.769073
v -127.503334 -8.733233 95.726974
v -127.106094 -8.422573 94.386047
v -126.876289 -7.896772 93.930031
v -118.704849 0.000000 88.620346
v -118.610008 0.735182 88.708588
v -118.764824 1.339013 88.237450
v -119.183365 1.837909 87.346619
v -119.879677 2.258289 86.175774
v -120.867828 2.626570 84.864594
v -122.161873 2.969169 83.552765
v -123.775871 3.312504 82.379967
v -125.723877 3.682992 81.485878
v -128.019943 4.107050 81.010178
v -130.678146 4.611098 81.092560
v -133.712524 5.221551 81.872688
v -137.137161 5.964825 83.490257
v -138.346375 6.277744 84.450630
v -139.025681 6.514441 85.544930
v -139.317230 6.652666 86.716156
v -139.363159 6.670163 87.907280
v -139.305618 6.544682 89.061295
v -139.286774 6.253970 90.121178
v -139.448776 5.775774 91.029922
v -139.933777 5.087840 91.730507
v -140.883942 4.167917 92.165924
v -142.441391 2.993753 92.279152
v -144.748306 1.543094 92.013176
v -147.946838 -0.206314 91.310982
v -149.301193 -1.059675 90.927589
v -149.855820 -1.763055 90.656784
v -149.778183 -2.335226 90.436020
v -149.235703 -2.794960 90.202736
v -148.395874 -3.161030 89.894379
v -147.426132 -3.452206 89.448395
v -146.493927 -3.687261 88.802223
v -145.766739 -3.884967 87.893311
v -145.412018 -4.064096 86.659111
v -145.597198 -4.243420 85.037056
v -146.489761 -4.441710 82.964592
v -148.257156 -4.677738 80.379173
v -147.946838 -0.206314 91.310982
v -149.606201 -1.102948 90.996613
v -150.974716 -1.926585 90.958496
v -152.068115 -2.681658 91.172508
v -152.902161 -3.372597 91.614525
v -153.492554 -4.003834 92.260422
v -153.855087 -4.579799 93.086052
v -154.005463 -5.104924 94.067314
v -153.959457 -5.583639 95.180061
v -153.732788 -6.020375 96.400177
v -153.341217 -6.419565 97.703522
v -152.800476 -6.785638 99.065987
v -152.126328 -7.123026 100.463425
v -151.505295 -7.344261 101.702370
v -150.774185 -7.505641 103.203239
v -149.922668 -7.607335 104.909386
v -148.940414 -7.649508 106.764137
v -147.817078 -7.632329 108.710838
v -146.542313 -7.555963 110.692825
v -145.105789 -7.420578 112.653427
v -143.497162 -7.226342 114.536003
v -141.706085 -6.973419 116.283875
v -139.722244 -6.661978 117.840393
v -137.535263 -6.292184 119.148888
v -135.134827 -5.864207 120.152695
l 1 2
l 2 3
l 3 4
l 4 5
l 5 6
l 6 7
l 7 8
l 8 9
l 9 10
l 10 11
l 11 12
l 12 13
l 13 14
l 14 15
l 15 16
l 16 17
l 17 18
l 18 19
l 19 20
l 20 21
l 21 22
l 22 23
l 23 24
l 24 25
l 25 26
l 26 27
l 27 28
l 28 29
l 29 30
l 30 31
l 31 32
l 32 33
l 33 34
l 34 35
l 35 36
l 36 37
l 37 38
l 38 39
l 39 40
l 40 41
l 41 42
l 42 43
l 43 44
l 44 45
l 45 46
l 46 47
l 47 48
l 48 1
l 49 50
l 50 51
l 51 52
l 52 53
l 53 54
l 54 55
l 55 56
l 56 57
l 57 58
l 58 59
l 59 60
l 60 61
l 61 62
l 62 63
l 63 64
l 64 65
l 65 66
l 66 67
l 67 68
l 68 69
l 69 70
l 70 71
l 71 72
l 72 73
l 73 74
l 74 75
l 75 76
l 76 77
l 77 78
l 78 79
l 79 80
l 80 81
l 81 82
l 82 83
l 83 84
l 84 85
l 86 87
l 87 88
l 88 89
l 89 90
l 90 91
l 91 92
l 92 93
l 93 94
l 94 95
l 95 96
l 96 97
l 97 98
l 98 99
l 99 100
l 100 101
l 101 102
l 102 103
l 103 104
l 104 105
l 105 106
l 106 107
l 107 108
l 108 109
l 109 110
l 110 111
l 111 112
l 112 113
l 113 114
l 114 115
l 115 116
l 116 117
l 117 118
l 118 119
l 119 120
l 120 121
l 121 122
l 123 124
l 124 125
l 125 126
l 126 127
l 127 128
l 128 129
l 129 130
l 130 131
l 131 132
l 132 133
l 133 134
l 134 135
l 135 136
l 136 137
l 137 138
l 138 139
l 139 140
l 140 141
l 141 142
l 142 143
l 143 144
l 144 145
l 145 146
l 146 147
