# Blender v2.93.3 OBJ File: 'untitled.blend'
# www.blender.org
o BezierCurve.007_BezierCurve.008
v -100.905090 3.725662 62.290283
v -100.670578 3.718313 61.826561
v -100.566925 3.697997 61.086308
v -100.567963 3.667307 60.124825
v -100.647522 3.628836 58.997429
v -100.779419 3.585178 57.759415
v -100.937500 3.538927 56.466095
v -101.095573 3.492675 55.172779
v -101.227470 3.449018 53.934765
v -101.307030 3.410547 52.807365
v -101.308067 3.379857 51.845886
v -101.204422 3.359541 51.105633
v -100.969902 3.352192 50.641911
v -100.628624 3.234096 50.498112
v -100.224525 2.909853 50.638626
v -99.761223 2.424529 51.000240
v -99.242325 1.823190 51.519753
v -98.671440 1.150902 52.133953
v -98.052177 0.452731 52.779644
v -97.388145 -0.226256 53.393616
v -96.682953 -0.840993 53.912659
v -95.940224 -1.346415 54.273575
v -95.163551 -1.697455 54.413151
v -94.356552 -1.849046 54.268185
v -93.522842 -1.756124 53.775471
v -92.657738 -1.500812 53.208202
v -91.925156 -1.252428 52.990982
v -91.308601 -1.022406 53.065781
v -90.791588 -0.822177 53.374580
v -90.357620 -0.663174 53.859360
v -89.990219 -0.556831 54.462097
v -89.672874 -0.514580 55.124763
v -89.389114 -0.547854 55.789345
v -89.122437 -0.668085 56.397820
v -88.856354 -0.886706 56.892159
v -88.574371 -1.215150 57.214348
v -88.260002 -1.664850 57.306358
v -87.754936 -2.460845 57.062668
v -87.400833 -3.055709 56.518696
v -87.167809 -3.470057 55.731510
v -87.025986 -3.724501 54.758171
v -86.945488 -3.839658 53.655746
v -86.896423 -3.836141 52.481289
v -86.848907 -3.734565 51.291870
v -86.773071 -3.555544 50.144550
v -86.639023 -3.319693 49.096390
v -86.416878 -3.047625 48.204453
v -86.076759 -2.759955 47.525803
v -85.588791 -2.477298 47.117500
v -84.587517 -2.007214 46.829716
v -83.501045 -1.514126 46.784061
v -82.352005 -1.010211 46.939182
v -81.163025 -0.507646 47.253723
v -79.956741 -0.018605 47.686329
v -78.755775 0.444735 48.195648
v -77.582771 0.870198 48.740322
v -76.460342 1.245608 49.278999
v -75.411133 1.558789 49.770325
v -74.457771 1.797565 50.172943
v -73.622879 1.949760 50.445499
v -72.929100 2.003197 50.546638
v -100.969902 3.352192 50.641911
v -100.811050 3.339880 50.281040
v -100.916542 3.303301 49.822060
v -101.233444 3.242990 49.279335
v -101.708809 3.159485 48.667248
v -102.289711 3.053319 48.000168
v -102.923210 2.925030 47.292477
v -103.556366 2.775152 46.558540
v -104.136253 2.604223 45.812737
v -104.609932 2.412776 45.069443
v -104.924461 2.201349 44.343029
v -105.026917 1.970477 43.647873
v -104.864342 1.720696 42.998348
v -104.587830 1.606176 42.657581
v -104.145607 1.559011 42.359322
v -103.568726 1.568261 42.096024
v -102.888237 1.622984 41.860142
v -102.135193 1.712241 41.644142
v -101.340645 1.825092 41.440475
v -100.535652 1.950597 41.241596
v -99.751266 2.077815 41.039970
v -99.018539 2.195807 40.828053
v -98.368530 2.293631 40.598301
v -97.832275 2.360348 40.343174
v -97.440849 2.385020 40.055126
l 1 2
l 2 3
l 3 4
l 4 5
l 5 6
l 6 7
l 7 8
l 8 9
l 9 10
l 10 11
l 11 12
l 12 13
l 13 14
l 14 15
l 15 16
l 16 17
l 17 18
l 18 19
l 19 20
l 20 21
l 21 22
l 22 23
l 23 24
l 24 25
l 25 26
l 26 27
l 27 28
l 28 29
l 29 30
l 30 31
l 31 32
l 32 33
l 33 34
l 34 35
l 35 36
l 36 37
l 37 38
l 38 39
l 39 40
l 40 41
l 41 42
l 42 43
l 43 44
l 44 45
l 45 46
l 46 47
l 47 48
l 48 49
l 49 50
l 50 51
l 51 52
l 52 53
l 53 54
l 54 55
l 55 56
l 56 57
l 57 58
l 58 59
l 59 60
l 60 61
l 62 63
l 63 64
l 64 65
l 65 66
l 66 67
l 67 68
l 68 69
l 69 70
l 70 71
l 71 72
l 72 73
l 73 74
l 74 75
l 75 76
l 76 77
l 77 78
l 78 79
l 79 80
l 80 81
l 81 82
l 82 83
l 83 84
l 84 85
l 85 86
