# Blender v2.93.3 OBJ File: 'untitled.blend'
# www.blender.org
o BezierCurve.005_BezierCurve.014
v -101.424034 3.725662 95.664108
v -101.190765 3.718313 95.199753
v -101.089096 3.697997 94.459229
v -101.092705 3.667307 93.497757
v -101.175278 3.628836 92.370575
v -101.310493 3.585178 91.132919
v -101.472031 3.538927 89.840027
v -101.633560 3.492675 88.547134
v -101.768776 3.449018 87.309479
v -101.851349 3.410547 86.182297
v -101.854958 3.379857 85.220825
v -101.753288 3.359541 84.480293
v -101.520020 3.352192 84.015945
v -101.179123 3.234096 83.871239
v -100.774651 2.909853 84.010666
v -100.310379 2.424529 84.371040
v -99.790092 1.823190 84.889160
v -99.217567 1.150902 85.501839
v -98.596581 0.452731 86.145866
v -97.930908 -0.226256 86.758057
v -97.224335 -0.840993 87.275215
v -96.480637 -1.346415 87.634140
v -95.703598 -1.697455 87.771637
v -94.896988 -1.849046 87.624519
v -94.064598 -1.756124 87.129570
v -93.201012 -1.500812 86.559998
v -92.469017 -1.252428 86.340813
v -91.852264 -1.022406 86.413963
v -91.334427 -0.822177 86.721375
v -90.899170 -0.663174 87.204994
v -90.530151 -0.556831 87.806747
v -90.211037 -0.514580 88.468559
v -89.925499 -0.547854 89.132385
v -89.657188 -0.668085 89.740143
v -89.389786 -0.886706 90.233765
v -89.106941 -1.215150 90.555199
v -88.792328 -1.664850 90.646370
v -88.287918 -2.460845 90.401329
v -87.935272 -3.055709 89.856407
v -87.704353 -3.470057 89.068604
v -87.565140 -3.724501 88.094887
v -87.487587 -3.839658 86.992249
v -87.441666 -3.836141 85.817665
v -87.397331 -3.734565 84.628128
v -87.324562 -3.555544 83.480606
v -87.193314 -3.319693 82.432091
v -86.973564 -3.047625 81.539566
v -86.635262 -2.759955 80.860008
v -86.148384 -2.477298 80.450401
v -85.147888 -2.007214 80.159935
v -84.061539 -1.514126 80.111374
v -82.912086 -1.010211 80.263420
v -81.722275 -0.507646 80.574783
v -80.514832 -0.018605 81.004158
v -79.312515 0.444735 81.510262
v -78.138054 0.870198 82.051796
v -77.014191 1.245608 82.587471
v -75.963669 1.558789 83.075989
v -75.009232 1.797565 83.476051
v -74.173615 1.949760 83.746376
v -73.479568 2.003197 83.845657
v -101.520020 3.352192 84.015945
v -101.362129 3.339880 83.654655
v -101.468849 3.303301 83.195953
v -101.787201 3.242990 82.654083
v -102.264198 3.159485 82.043266
v -102.846886 3.053319 81.377747
v -103.482277 2.925030 80.671753
v -104.117393 2.775152 79.939514
v -104.699280 2.604223 79.195267
v -105.174942 2.412776 78.453239
v -105.491417 2.201349 77.727669
v -105.595718 1.970477 77.032791
v -105.434891 1.720696 76.382828
v -105.159294 1.606176 76.041328
v -104.717865 1.559011 75.741882
v -104.141693 1.568261 75.477043
v -103.461838 1.622984 75.239342
v -102.709373 1.712241 75.021332
v -101.915375 1.825092 74.815536
v -101.110916 1.950597 74.614510
v -100.327072 2.077815 74.410782
v -99.594917 2.195807 74.196907
v -98.945518 2.293631 73.965416
v -98.409958 2.360348 73.708855
v -98.019302 2.385020 73.419762
v -97.597527 2.308786 73.148476
v -96.974716 2.098024 72.941719
v -96.191063 1.779639 72.786575
v -95.286789 1.380537 72.670151
v -94.302101 0.927622 72.579529
v -93.277199 0.447802 72.501816
v -92.252296 -0.032017 72.424103
v -91.267601 -0.484931 72.333481
v -90.363327 -0.884034 72.217049
v -89.579674 -1.202419 72.061913
v -88.956863 -1.413181 71.855148
v -88.535095 -1.489414 71.583870
v -88.792328 -1.664850 90.646370
v -88.127258 -2.376014 90.925385
v -87.332756 -2.744063 91.831406
v -86.438950 -2.831133 93.239594
v -85.475960 -2.699358 95.025078
v -84.473907 -2.410873 97.063004
v -83.462936 -2.027812 99.228523
v -82.473160 -1.612310 101.396774
v -81.534698 -1.226501 103.442902
v -80.677696 -0.932521 105.242058
v -79.932266 -0.792502 106.669373
v -79.328537 -0.868581 107.599991
v -78.896645 -1.222897 107.909073
v -86.148384 -2.477298 80.450401
v -85.147720 -2.103684 79.882507
v -84.061340 -1.874631 79.064423
v -82.912720 -1.764246 78.049011
v -81.725296 -1.746639 76.889145
v -80.522537 -1.795918 75.637672
v -79.327888 -1.886193 74.347473
v -78.164810 -1.991570 73.071396
v -77.056747 -2.086160 71.862312
v -76.027168 -2.144072 70.773087
v -75.099518 -2.139412 69.856575
v -74.297256 -2.046292 69.165649
v -73.643845 -1.838819 68.753166
v -88.792328 -1.664850 90.646370
v -88.488968 -2.403470 90.594986
v -88.689819 -2.845927 90.623093
v -89.290382 -3.042416 90.775719
v -90.186157 -3.043128 91.097885
v -91.272629 -2.898258 91.634636
v -92.445297 -2.657998 92.430992
v -93.599655 -2.372542 93.531998
v -94.631195 -2.092084 94.982666
v -95.435417 -1.866815 96.828049
v -95.907814 -1.746931 99.113159
v -95.943878 -1.782623 101.883034
v -95.439102 -2.024084 105.182709
v -98.019302 2.385020 73.419762
v -97.698944 2.489013 73.345741
v -97.356506 2.776524 73.684357
v -96.996407 3.210850 74.353088
v -96.623062 3.755286 75.269394
v -96.240883 4.373130 76.350754
v -95.854294 5.027677 77.514641
v -95.467697 5.682224 78.678535
v -95.085518 6.300067 79.759895
v -94.712173 6.844504 80.676201
v -94.352074 7.278830 81.344925
v -94.009636 7.566341 81.683548
v -93.689278 7.670334 81.609528
l 1 2
l 2 3
l 3 4
l 4 5
l 5 6
l 6 7
l 7 8
l 8 9
l 9 10
l 10 11
l 11 12
l 12 13
l 13 14
l 14 15
l 15 16
l 16 17
l 17 18
l 18 19
l 19 20
l 20 21
l 21 22
l 22 23
l 23 24
l 24 25
l 25 26
l 26 27
l 27 28
l 28 29
l 29 30
l 30 31
l 31 32
l 32 33
l 33 34
l 34 35
l 35 36
l 36 37
l 37 38
l 38 39
l 39 40
l 40 41
l 41 42
l 42 43
l 43 44
l 44 45
l 45 46
l 46 47
l 47 48
l 48 49
l 49 50
l 50 51
l 51 52
l 52 53
l 53 54
l 54 55
l 55 56
l 56 57
l 57 58
l 58 59
l 59 60
l 60 61
l 62 63
l 63 64
l 64 65
l 65 66
l 66 67
l 67 68
l 68 69
l 69 70
l 70 71
l 71 72
l 72 73
l 73 74
l 74 75
l 75 76
l 76 77
l 77 78
l 78 79
l 79 80
l 80 81
l 81 82
l 82 83
l 83 84
l 84 85
l 85 86
l 86 87
l 87 88
l 88 89
l 89 90
l 90 91
l 91 92
l 92 93
l 93 94
l 94 95
l 95 96
l 96 97
l 97 98
l 99 100
l 100 101
l 101 102
l 102 103
l 103 104
l 104 105
l 105 106
l 106 107
l 107 108
l 108 109
l 109 110
l 110 111
l 112 113
l 113 114
l 114 115
l 115 116
l 116 117
l 117 118
l 118 119
l 119 120
l 120 121
l 121 122
l 122 123
l 123 124
l 125 126
l 126 127
l 127 128
l 128 129
l 129 130
l 130 131
l 131 132
l 132 133
l 133 134
l 134 135
l 135 136
l 136 137
l 138 139
l 139 140
l 140 141
l 141 142
l 142 143
l 143 144
l 144 145
l 145 146
l 146 147
l 147 148
l 148 149
l 149 150
