# Blender v2.93.3 OBJ File: 'untitled.blend'
# www.blender.org
o BezierCircle.016
v -154.150940 -5.263718 61.855804
v -153.944229 -5.384916 60.702904
v -153.630096 -5.297203 59.631985
v -153.212952 -5.032715 58.647350
v -152.697235 -4.623588 57.753300
v -152.087341 -4.101960 56.954136
v -151.387726 -3.499966 56.254154
v -150.602814 -2.849745 55.657661
v -149.737000 -2.183432 55.168961
v -148.794739 -1.533164 54.792347
v -147.780441 -0.931078 54.532120
v -146.698532 -0.409310 54.392590
v -145.553436 0.000000 54.378052
v -144.592636 0.261167 54.541870
v -143.816040 0.431680 54.917923
v -143.181702 0.524491 55.467587
v -142.647705 0.552549 56.152248
v -142.172104 0.528805 56.933296
v -141.712982 0.466210 57.772114
v -141.228394 0.377715 58.630089
v -140.676422 0.276270 59.468605
v -140.015106 0.174825 60.249050
v -139.202545 0.086331 60.932808
v -138.196808 0.023739 61.481266
v -136.955933 0.000000 61.855804
v -136.108643 0.087651 62.131271
v -135.835999 0.331323 62.491009
v -136.050888 0.702101 62.933784
v -136.666229 1.171073 63.458382
v -137.594925 1.709326 64.063568
v -138.749878 2.287946 64.748108
v -140.043976 2.878019 65.510796
v -141.390137 3.450632 66.350388
v -142.701263 3.976872 67.265656
v -143.890259 4.427826 68.255386
v -144.870010 4.774580 69.318352
v -145.553436 4.988224 70.453308
v -146.419098 4.994514 71.976189
v -147.370621 4.618011 72.842163
v -148.374100 3.926612 73.126144
v -149.395645 2.988210 72.903069
v -150.401352 1.870701 72.247864
v -151.357346 0.641979 71.235466
v -152.229706 -0.630062 69.940788
v -152.984558 -1.877525 68.438774
v -153.587997 -3.032518 66.804337
v -154.006134 -4.027144 65.112411
v -154.205093 -4.793509 63.437923
v -117.625351 -5.263718 61.984100
v -117.773972 -5.384916 63.145920
v -118.034004 -5.297203 64.231247
v -118.401230 -5.032715 65.235565
v -118.871468 -4.623588 66.154358
v -119.440491 -4.101960 66.983109
v -120.104118 -3.499966 67.717300
v -120.858139 -2.849745 68.352409
v -121.698334 -2.183432 68.883926
v -122.620529 -1.533164 69.307327
v -123.620499 -0.931078 69.618095
v -124.694046 -0.409310 69.811722
v -125.836967 0.000000 69.883682
v -126.804779 0.261167 69.768257
v -127.599258 0.431680 69.431633
v -128.260361 0.524491 68.914474
v -128.828033 0.552549 68.257462
v -129.342209 0.528805 67.501251
v -129.842834 0.466210 66.686516
v -130.369843 0.377715 65.853928
v -130.963181 0.276269 65.044151
v -131.662796 0.174824 64.297859
v -132.508636 0.086330 63.655720
v -133.540619 0.023738 63.158401
v -134.798721 0.000000 62.846569
v -135.658752 0.087651 62.613949
v -135.949112 0.331323 62.268341
v -135.756683 0.702101 61.815342
v -135.168427 1.171073 61.260540
v -134.271255 1.709326 60.609539
v -133.152100 2.287946 59.867924
v -131.897873 2.878019 59.041290
v -130.595520 3.450632 58.135235
v -129.331955 3.976872 57.155350
v -128.194107 4.427826 56.107227
v -127.268906 4.774580 54.996464
v -126.643272 4.988224 53.828651
v -125.855072 4.994514 52.264267
v -124.948189 4.618011 51.351665
v -123.960220 3.926612 51.017708
v -122.928772 2.988210 51.189262
v -121.891464 1.870701 51.793194
v -120.885902 0.641979 52.756371
v -119.949699 -0.630061 54.005657
v -119.120461 -1.877524 55.467926
v -118.435791 -3.032516 57.070034
v -117.933319 -4.027142 58.738857
v -117.650635 -4.793506 60.401253
l 1 2
l 2 3
l 3 4
l 4 5
l 5 6
l 6 7
l 7 8
l 8 9
l 9 10
l 10 11
l 11 12
l 12 13
l 13 14
l 14 15
l 15 16
l 16 17
l 17 18
l 18 19
l 19 20
l 20 21
l 21 22
l 22 23
l 23 24
l 24 25
l 25 26
l 26 27
l 27 28
l 28 29
l 29 30
l 30 31
l 31 32
l 32 33
l 33 34
l 34 35
l 35 36
l 36 37
l 37 38
l 38 39
l 39 40
l 40 41
l 41 42
l 42 43
l 43 44
l 44 45
l 45 46
l 46 47
l 47 48
l 48 1
l 49 50
l 50 51
l 51 52
l 52 53
l 53 54
l 54 55
l 55 56
l 56 57
l 57 58
l 58 59
l 59 60
l 60 61
l 61 62
l 62 63
l 63 64
l 64 65
l 65 66
l 66 67
l 67 68
l 68 69
l 69 70
l 70 71
l 71 72
l 72 73
l 73 74
l 74 75
l 75 76
l 76 77
l 77 78
l 78 79
l 79 80
l 80 81
l 81 82
l 82 83
l 83 84
l 84 85
l 85 86
l 86 87
l 87 88
l 88 89
l 89 90
l 90 91
l 91 92
l 92 93
l 93 94
l 94 95
l 95 96
l 96 49
